<mxfile host="app.diagrams.net" modified="2021-12-20T16:05:38.127Z" agent="5.0 (Windows NT 10.0; Win64; x64) AppleWebKit/537.36 (KHTML, like Gecko) Chrome/92.0.4515.131 Safari/537.36" etag="cDLWOIT-4-0y2Ns9K3Ff" version="16.0.0" type="github">
  <diagram id="C5RBs43oDa-KdzZeNtuy" name="Page-1">
    <mxGraphModel dx="2435" dy="796" grid="1" gridSize="10" guides="1" tooltips="1" connect="1" arrows="1" fold="1" page="1" pageScale="1" pageWidth="827" pageHeight="1169" math="0" shadow="0">
      <root>
        <mxCell id="WIyWlLk6GJQsqaUBKTNV-0" />
        <mxCell id="WIyWlLk6GJQsqaUBKTNV-1" parent="WIyWlLk6GJQsqaUBKTNV-0" />
        <mxCell id="prbU7gKbNOZ-RbJoMTSF-0" value="" style="shape=image;verticalLabelPosition=bottom;labelBackgroundColor=#ffffff;verticalAlign=top;aspect=fixed;imageAspect=0;image=data:image/png,iVBORw0KGgoAAAANSUhEUgAABQUAAALTCAYAAACvwGS8AAAgAElEQVR4Aey9a9AlR3nneb4tHzZCsV9GX3aHDxPLu+OdgdjxGN8YLNsrYGLAZ2Nn8W6MNDcvMx7jXVvGMm8LgWRsQrZhjWxdoHXhJsx43Jb0IoSNEBZICCRwI00jqftVq5G6kfqCLFpN69K6tFrPRmZVVj2ZlVWnzqXOqazzeyPqPVWVmU8++cusqsx/ZVWN7rjjDrnlls/LTTfd2LjceOONwgID2gBtgDZAG6AN0AZoA7QB2gBtgDZAG6AN0AZoA7QB2kD/2sAkbc/of0YH3LPnv8qBA4/I6Mor/1R27PgdueCC35Df/M2m5f+V3/xNFhjQBmgDtAHaAG2ANkAboA3QBmgDtAHaAG2ANkAboA3QBvrXBup1PaP7Gf3P6IB33PEV2d7eJyOz4w8/+wW56uprWGBAG6ANrF0beP/Hbl27MnO+53pHG6ANmDbA+Y92wLmANrCubeC3fv9j9P8Y99AGaANr2QZuuunzVhg0Mwb37n1IRkYpNBeD//gdYekxg1/9osiPX8MCA9oAbYA2QBugDdAGaAO0gf62gf/j44/LG975cZYeM/hf/s+d8t/+yz+W/2b8EZYeM7jtO48JfxCAAAQWTeDqj11rnxTe2rpRHnroQUTBVMRQRMH+dn4ZmFA3tAHaAG2ANkAboA3QBrI2gCjYf0EUUTANMRRRcNFSCPYgAAFDwImC5t2DiII9nhkYipWIggw2GGzQBmgDtAHaAG2ANkAb6HsbQBREFGQG4mJER0RBBBwIQKALAoiCCQmBWhhEFGQQ0PdBAP7RRmkDtAHaAG2ANkAbQBREFEQURBTsQsjAJgQgsBgCiIKIgrybkHcz0gZoA7QB2gBtgDZAG6ANdNIGEAURBREFEQUXI11gBQIQ6IIAoiCiYCcdQGYGMDOANkAboA3QBmgDtAHaAG0AURBREFEQUbALIQObEIDAYgggCiIKIgoyM4A2QBugDdAGaAO0AdoAbaCTNoAoiCiIKIgouBjpAisQgEAXBBAFEQU76QAyM4CZAbQB2gBtgDZAG6AN0AZoA4iCiIKIgoiCXQgZ2IQABBZDAFEQURBRkJkBtAHaAG2ANkAboA3QBmgDnbQBREFEQURBRMHFSBdYgQAEuiBw1dXXyAUX/IbcdNON8tBDD8rIbJid+ku3rEvvePD1Ye68M/uCNkAboA3QBmgDtAHaQN/bAKIgoiCiIKJgF0IGNiEAgcUQQBRkpmAnd4X73kHFPwZRtAHaAG2ANkAboA3QBrpvA4iCiIKIgoiCi5EusAIBCHRBAFEQURBRkMeFaAO0AdoAbYA2QBugDdAGOmkDiIKIgoiCiIJdCBnYhAAEFkMAURBRsJMOIHfeu7/zDmMY0wZoA7QB2gBtgDbQ9zaAKIgoiCiIKLgY6QIrEIBAFwRqRcGHnxFh6S+Dh54S2X2EBQa0AdoAbYA2QBugDdAGaAP9bQPfOfSi/O1DR1h6zGD33iPy9YeekDsffJylxwyOP/NCF3oANiEAgTUnUCsKrjkXig8BCEAAAhCAAAQgAAEIQAACEIAABCAAgcESQBQcbNVSMAhAAAIQgAAEIAABCEAAAhCAAAQgAAEIxAkgCsa5sBcCEIAABCAAAQhAAAIQgAAEIAABCEAAAoMlgCg42KqlYBCAAAQgAAEIQAACEIAABCAAAQhAAAIQiBNAFIxzYS8EIAABCEAAAhCAAAQgAAEIQAACEIAABAZLAFFwsFVLwSAAAQhAAAIQgAAEIAABCEAAAhCAAAQgECeAKBjnwl4IQAACEIAABCAAAQhAAAIQgAAEIAABCAyWAKLgYKuWgkEAAhCAAAQgAAEIQAACEIAABCAAAQhAIE4AUTDOhb0QgAAEIAABCEAAAhCAAAQgAAEIQAACEBgsAUTBwVYtBYMABCAAAQhAAAIQgAAEIAABCEAAAhCAQJwAomCcC3shAAEIQAACEIAABCAAAQhAAAIQgAAEIDBYAoiCg61aCgYBCEAAAhCAAAQgAAEIQAACEIAABCAAgTgBRME4F/ZCAAIQgAAEIAABCEAAAhCAAAQgAAEIQGCwBBAFB1u1FAwCEIAABCAAAQhAAAIQgAAEIAABCEAAAnECiIJxLuyFAAQgAAEIQAACEIAABCAAAQhAAAIQgMBgCSAKDrZqKRgEIAABCEAAAhCAAAQgAAEIQAACEIAABOIEEAXjXNgLAQhAAAIQgAAEIAABCEAAAhCAAAQgAIHBEkAUHGzVUjAIQAACEIAABCAAAQhAAAIQgAAEIAABCMQJIArGubAXAhCAAAQgAAEIQAACEIAABCAAAQhAAAKDJYAoONiqpWAQgAAEIAABCEAAAhCAAAQgAAEIQAACEIgTQBSMc2EvBCAAAQhAAAIQgAAEIAABCEAAAhCAAAQGSwBRcLBVS8EgAAEIQAACEIAABCAAAQhAAAIQgAAEIBAngCgY58JeCEAAAhCAAAQgAAEIQAACEIAABCAAAQgMlgCi4GCrloJBAAIQgAAEIAABCEAAAhCAAAQgAAEIQCBOAFEwzoW9EIAABCAAAQhAAAIQgAAEIAABCEAAAhAYLAFEwcFWLQWDAAQgAAEIQAACEIAABCAAAQhAAAIQgECcAKJgnAt7IQABCEAAAhCAAAQgAAEIQAACEIAABCAwWAKIgoOtWgoGAQhAAAIQgAAEIAABCEAAAhCAAAQgAIE4AUTBOBf2QgACEIAABCAAAQhAAAIQgAAEIAABCEBgsAQQBQdbtRQMAhCAAAQgAAEIQAACEIAABCAAAQhAAAJxAoiCcS7shQAEIAABCEAAAhCAAAQgAAEIQAACEIDAYAkgCg62aikYBCAAAQhAAAIQgAAEIAABCEAAAhCAAATiBBAF41zYCwEIQAACEIAABCAAAQhAAAIQgAAEIACBwRJAFBxs1VIwCEAAAhCAAAQgAAEIQAACEIAABCAAAQjECSAKxrmwNydwYt+j8sYd98prLrhHzrpsv+w6HkNzSi6+7B4bx8TLlm25JRZ16fuOyzsLn3LfLjskDy/dDzKEAAQgAAEIQAACEIAABCAAAQhAAAL9IYAo2J+6mN2Tl0/LngNH5cLrH5DXfWC3nOWJYPfK2R/YLa+7fFsuvPNHsufUmfb5/OCwvN6zdY+8Zsd+ueXl0ERXomBE0Av9iWy/8wHtX8QGoqAGxDoEIAABCEAAAhCAAAQgAAEIQAACa0gAUTDlSn/5lOzatUdeGxHGyhl7buZe+XvWZdtyxYGXJpb84VvvD2b/ZTbO90Q3YwZRcCJMIkAAAhCAAAQgAAEIQAACEIAABCAAgR4RQBTsUWVM48qxfY/K6y8shb4mEbAu7LVXHpJvnarPtU4U9GfimfSIgvUUCYEABCAAAQhAAAIQgAAEIAABCEAAAv0jgCjYvzqZ4NFp+dbN8Rl8deJf4/4dD8gVP6jJkseHa8CwGwIQgAAEIAABCEAAAhCAAAQgAAEIpE0AUTCx+qubvdco/E18vPh+ubhGGDxx8JC84wOr+tBI5H2AE8tyj/gzGSM2eKdgYq0edyEAAQhAAAIQgAAEIAABCEAAAhBYNAFEwUUT7dDeiQe25exaUexeef31h2TXwRfkmP6YyMun5djxZ2TXrdv1jxtfdkj2VD4eMk1Blvn48LRfNUYUnKYmiQsBCEAAAhCAAAQgAAEIQAACEIDAehBAFEylnk89KefWCILm3YB3nWxTkDPy8H37PXHwrA8flofbJG2MgyjYiIdACEAAAhCAAAQgAAEIQAACEIAABCDQMwKIgj2rkDp3vvy57BHe8DHh19/6nLxQl6hu/6ln5MIP3ytnX350giDYPMuu/aPM087uc45H8r9gWlsRG20fH375lNxy63558wd3y9nqoy5nfWC3vPHKx+Tagy9NZH/ozj2VLzi/49tnXAEjv2fkhp3lB2Red/NzkTjlrluuL+NmbaP+UfAyFWsQgAAEIAABCEAAAhCAAAQgAAEIrDsBRMEUWsDJo/LmyCzBs68/Lidm9v/MREFLpFlQG64o+JJ8edf9claEeSjKvuYDD8nFB16qr4XjR+WNoZ2dT9azD+N/4DH5Vp31l5+Ud4S2P3xUDtXFZz8EIAABCEAAAhCAAAQgAAEIQAACEMgJIAom0BSO3flAZbbZa3YckLs6930NRcFTT8u7PhjOvpu8/brPPS3HovXxklxxeZh+n9xQ8w7H6szCe+Vd+6KG5YVv76u0izfeOfW80bhx9kIAAhCAAAQgAAEIQAACEIAABCAwaAKIgglU767KI6L3yHLEnz6KgqHAVt2e+evDp47LO3dU7VVmB4az8/LtupmbL3z7oYp4d270EeLn5MKIIHnW556OtFL/MePMxwfkilbvloyYYxcEIAABCEAAAhCAAAQgAAEIQAACa0UAUbD31X1KLq4IRffLR44vw/F1EgVfiMzom14gfHNspl7sMd8rI48QH3xMXhsVHCMzC1+OfHim6bHkZTQX8oAABCAAAQhAAAIQgAAEIAABCEAgGQKIgr2vqogwN/XHNmYtZCTv6Ec6lvn14clC3SwzBWOP4trZdxfeL+d/4xk5dMp9HOSMnDj+jFz7mbp3DkYEPGk3q6/uYzLGj3BmYeyR8uYPmMzaBkgHAQhAAAIQgAAEIAABCEAAAhCAwBAJIAr2vlYjwlwrUTCWbrKg9uY79UczIjYGKQrGRM175DWXPSbfOlXfQF44fEheH5nZF320+4HtyiPEfrwIa23b+4DIC3LFh8O6nParzPXlIgQCEIAABCAAAQhAAAIQgAAEIACB4RNAFOx9HcfEojYCUCxdKCRVt1//Ff2hioiNIYqCxw9HxL375eIfTG4ch2IfgbnscOQLwE/Luy4MeCuhr3amYiEM7pEr3CPj4ReKL7hH4u8dnOw/MSAAAQhAAAIQgAAEIAABCEAAAhBYTwKIgr2v99gstt1y4cFJjkcEvUJgCsQptX+WR29FYj62ES5nKcO0diMcQmEzMovvNbF3/kXdjdivmclZfTzYCX2RLxRfeK+cperFPEL8upufsx48fOv9wazD+i8UR11mJwQgAAEIQAACEIAABCAAAQhAAAJrTwBRMIEmcMtnqiKeE4jq3Y+JVVU72Vdr3f5QbIzYCAU160DaomDs/Xyvv7XhuWEPeqzsNbMMDxyoCH02n8jMv9ffelwuvszVS/77wcdkj0S+UHzhAbnL84kNCEAAAhCAAAQgAAEIQAACEIAABCDQTABRsJlPL0Ljj5Y+JDc06lYRQS+YeeYLgkZ4CmfhRWwgCgZtYgpRUJ6RCz9QFfquvfm+YOZfNoPw0J17gv33yru+8pi8LqjH1978TOATmxCAAAQgAAEIQAACEIAABCAAAQhAoJkAomAzn36EvvykvCMQgoygd9b1T8mxGT38VkWIir2Xbj1EQZnn8eGXn5RzK3UTiqtlJX3r5t0Voe+s8F2D7tHlk0flzRXbgah4wX1y4eHSPmsQgAAEIAABCEAAAhCAAAQgAAEIQKANAUTBNpR6ECcm4hlh8OwZhMETD2zL2RWx6b7IewrXRBSMfmjEve+vufKjHxq5/Gi9WHu4OtMvnLH5jm+fyTM9IzfsDEXAYNs+UtzsI6EQgAAEIAABCEAAAhCAAAQgAAEIQCAkgCgYEunr9svH5Z3hjLJc2Dvrsv2y6wdOSGoqwBl5+Bv75LUVQfAeMR/WOFFJuiaiYPRDKffIay57TL7V8Ij2iYOPRb5afI+88U79BecQauSdgLo+LjwgX1ZJ4o+Ol8Jg+3cfKqOsQgACEIAABCAAAQhAAAIQgAAEILD2BBAFE2oC8Rl+TiC6V157+X65+L5n5NBJLRCekRMnn5O7vnFI3nnZvcGjqy7tA3LF8RiIdREFRU58+6E4mwvvl/O/8YwcOuWYnpETx5+Raz9zf+WjIdmMv31yw8sxluW+6teDXT3EHuF+Wt5VIwa/5oJ2sxnLnFmDAAQgAAEIQAACEIAABCAAAQhAAAIZAUTBxFpCk6AUPobabvvb8s4HTtdQWB9RUOSUfCT82q+ewddy/c2NswRzzJGvDWd1FX79OYv/5c/ViLkfPiqHamqO3RCAAAQgAAEIQAACEIAABCAAAQhAoIkAomATnV6GnZZv3bynZpZaOeOsnSB4r7zxKw3Px8o6iYIicuq4vHPHtAzL+GdffzzyCHasEb0gV3y4TFfUVd37AQ8+Fn3k+9zi3YOxPNgHAQhAAAIQgAAEIAABCEAAAhCAAATqCSAK1rPpdcixfY/K62sfK40ITpWZbvfJu/a9NKGMayYKGhonn5LzP9CGnx/ntZ+Z7kvQx+58oPK4cv27CGPvIZz8mPKEyiUYAhCAAAQgAAEIQAACEIAABCAAgTUmgCiYcuW/fEpuuXmfvHYqcfBeef31R+Wuk20KvoaioMHy8inZVfvOQF8MfI155+B9TR8WqeH88pNyrifUNr8fsPLY+M4nZYZca5xhNwQgAAEIQAACEIAABCAAAQhAAALrRgBRcBA1fkYOHXxKLt71kLzxA7vl7EAkPOsDu+WNV+6XC80HMyZ8BMPHsaaioINw8jnZdet+efMHd3uPa5+1w/B8VC5+4NQcwtwZuWGnEhgniXzBewjf+YBzkl8IQAACEIAABCAAAQhAAAIQgAAEIDA9AUTB6ZmRAgIQgAAEIAABCEAAAhCAAAQgAAEIQAACSRNAFEy6+nAeAhCAAAQgAAEIQAACEIAABCAAAQhAAALTE0AUnJ4ZKSAAAQhAAAIQgAAEIAABCEAAAhCAAAQgkDQBRMGkqw/nIQABCEAAAhCAAAQgAAEIQAACEIAABCAwPQFEwemZkQICEIAABCAAAQhAAAIQgAAEIAABCEAAAkkTQBRMuvpwHgIQgAAEIAABCEAAAhCAAAQgAAEIQAAC0xNAFJyeGSkgAAEIQAACEIAABCAAAQhAAAIQgAAEIJA0AUTBpKsP5yEAAQhAAAIQgAAEIAABCEAAAhCAAAQgMD0BRMHpmZECAhCAAAQgAAEIQAACEIAABCAAAQhAAAJJE0AUTLr6cB4CEIAABCAAAQhAAAIQgAAEIAABCEAAAtMTQBScnhkpIAABCEAAAhCAAAQgAAEIQAACEIAABCCQNAFEwaSrD+chAAEIQAACEIAABCAAAQhAAAIQgAAEIDA9AUTB6ZmRAgIQgAAEIAABCEAAAhCAAAQgAAEIQAACSRNAFEy6+nAeAhCAAAQgAAEIQAACEIAABCAAAQhAAALTE0AUnJ4ZKSAAAQhAAAIQgMDgCWyNRzIajWQ03oqXdWuchZs4avGib2/KxmgkG5vbcRvshQAEIAABCEAAAhBYGQFEwZWhJ2MIQAACEIAABCDQVwJbMjZi3saGjEZjicqCVhTcEK33bW+a+EoERBTsawXjFwQgAAEIQAACEBBEQRoBBCAAAQhAAAIQgIBPwAp+Y9nKRT1v9p+LGREFRbZlc2Mko41NsXMDEQUdLX4hAAEIQAACEIBA7wggCvauSnAIAhCAAAQgAAEIrJJALuxZJVCvBz5FRUGR7LHjfHYhomAAjU0IQAACEIAABCDQHwKIgv2pCzyBAAQgAAEIQAACqycQzA7MHgn2HxO2TkZFQWYKrr4C8QACEIAABCAAAQi0I4Ao2I4TsSAAAQhAAAIQgMBaEMhEQPUewbrZfhFR0L1TsHjcuC7tWpCkkBCAAAQgAAEIQKDfBBAF+10/eAcBCEAAAhCAAASWSCCY6Wdzzj46Urwn0HljRUH/y8OVj5IgCjpa/EIAAhCAAAQgAIHeEUAU7F2V4BAEIAABCEAAAhBYEYEaES97T2DwCHFkpmDF6xp7lXjsgAAEIAABCEAAAhBYOgFEwaUjJ0MIQAACEIAABCDQTwLu8d/RKJwBmG1vbNpvCmfOIwr2sxLxCgIQgAAEIAABCLQkgCjYEhTRIAABCEAAAhCAwLAJxB4ddiWOhE0hChbvGHTm+IUABCAAAQhAAAIQWDkBRMGVVwEOQAACEIAABCAAgR4QyN8RWCfguVmERXgbUbBNnB4UHRcgAAEIQAACEIDAOhJAFFzHWqfMEIAABCAAAQhAICCQvTdQfXU4CJf8/YAjpwrWCn75h0nyR5C9R45Dm2xDAAIQgAAEIAABCKyMAKLgytCTMQQgAAEIQAACEOg5gYsuEjnnHBHzG/ubNzxmk30QgAAEIAABCEAAAkshgCi4FMxkAgEIQAACEIAABBIjsHOnyCWXZE6bX7Ot/+YN17ZYhwAEIAABCEAAAhBYOgFEwaUjJ0MIQAACEIAABCDQQwIXXCDy27+dOXbhhSJmW//NG65tsQ4BCEAAAhCAAAQgsHICiIIrrwIcgAAEIAABCEAAAj0h8OlPi/zMz4iY39jfvOExm+xbEwLmXZPunZV6fQnFN+/D3NiU7SVktZgsOuLTGYcu/O3CZpvaWVW+bXwjDgQgAIHFE0AUXDxTLEIAAhCAAAQgAAEIQGBNCRhRZSTFB2kKClps0etFBBHZls2NkYzyj9SYX/uhGvuRmw3ZnFXV60wM074b9zdlYzSLn1m53Td8ROr4zJNHnrYTcbTB3wBR+80ubLbJfVX5tvGNOBCAAAQWTwBRcPFMsQgBCEBgfgK1X/UUERs2knLw4GeXfUE0NiDz47EFAQhAAAIQ0ELcIr4Uvb25IRvjsWwUswIdYy226HUXbn6NODaLqKZtRNaXJQpGsm63awpRsJ3BeKzOONTVZ9yNdnu7sNkm51Xl28Y34kAAAhBYPAFEwcUzxSIEIACB+QnMLAqazuxINjY2ZFQZkNW4ZWc21IuMNanYDQEIQAACQyCQ32jKZue5x3tnLZgT9UKRy9jTYote13m59Hqfn9aIjuUsxDo7ZtKeuQ5msw6tSKlnyHll1te/zN6mSuvdgPPSxVhpfybYKoqYsXK+ZtfuprQ6Dz+t52tuvz2Hsjzm5qIWiD3mUQbap/LmpStT6VdTuQog+UpT3CxsPM7qd3ylmaGpZpgWGTbZ8NtI2WdqThN6yTYEIACB1AkgCqZeg/gPAQgMk4DtdNfMlsg75EWfVxOwYWPZmkbomyauzot1CEAAAhAYAIFSWNJC0EwF0zPRzPXIu1BlYsuWNazXdU6lL76gpONncYxpI155WThT9rpWXkPtDHonCgZh2SO/ThAz+ZSCmBXDdDq3bvKplM/uDN6bWGPL+Vn8lmXKdjX4ocXVqA+F0crjzBUOdeUxdosw41vOUtevyabIX9XPFHx99spvu+oz8OMGYV5S5a9lVVMH1k9X79qAb9trAzoa6xCAAAQGQgBRcCAVSTEgAIGBETAd7br3Etmw2EAoG1RkgzC9Xs/GDhD03XWzXgwE3LuL1N13HZab1bMQ7CAuGKEVHWrbAS9tuWieD25nvcuEQAACEIBATwmY830pLBpxpRTmFjVT0BbdXU8i1yQbXohVOSgT38UNw/L3GGaXH+OzEorCdE3Xyyxjlb7BVu5W+ZNds8tLYFNaFeY4lAlLk2YtLGvr8pg8IkJg3v9wgq39tVyVT2GeTXwbHxdXNm2pQrFP1ZMtatm/MH61qs8otyBfzcynyxYEIACBQRBAFBxENVIICEBgcARsx1sPplQJ8055pS+bDw7c/kysq7GhzGV3310HWgXk+ZQDvFxoVAMmI+iV4fkARM2yMNZK0bDswGshsEif+19sK1dYhQAEIACBvhMwYoovzBhxpjyna7FFr+tyaeFH7w/i59cn7yaWFz2YpaiEHXtNchdKm0YLckE+Kl1FYNP5Fes6vV6f9JEP7YMx1pQ2CLPRzY3Emuu4LusU5XHXd0/oNdy1vUi5p+K7KFHQ+OVE3yYRUpW/6qcrTMBXpXEx+IUABCAwJAKIgkOqTcoCAQgMh4Ab8EQGWPbOfKTzbzu4SrBzYl85IKvBYzq8FXu5ABh2/qNxtd1qusyvQJzM7fi+VdNqy6xDAAIQgECPCXjCTO6nt0+LLXpdl8lcB4LrhQ3W8c16FscJV9qCXbfXmNKOvRHlRKMgzIp9xbVT5xMIeWG6SqZmh06v1wNbkbTGx/KS25Q2CMttmWutf03N83Qz/txsujoOoU+mvBtjGev6qGWgfArj2P6Muylo4imh2AsLHWiKq/IzyYwdB8/m71gG8WyZNsV+xNrGc37pvBvS6GisQwACEBgIAUTBgVQkxYAABAZGwHaUywGNVzob5jq8LiQX1Fxn3+7OOtTl3XMXN/j1OtAuLEtbGWAE7+dxscvfqh8VsdJEzvMM7XsDt9IoaxCAAAQg0HMCcYHOXEvctUyLLXpdF2yyKOjlY68lzr62o2epm+vlloz19TG/jmY32XT6wC9jvzbdqBSiiqx1er0+WRTMxEkz09IIVU1py7Ds+upmZ8YErmk4hOWpXs9tMT12Lk3pUzVOlW/th1wKjmYls+k+JuLPhAzyy2cHZvU5FpMm0wiDeEF9xvk1p/FcZAMCEIDAAAggCg6gEikCBCAwQALTioJNIlsxIKvhlKd1N9ltrHyfm5UY/moxzwp54YxGNYhCFKzhzm4IQAACEIDAWhEIBLe1KjuFhQAEINBPAoiC/awXvIIABNadwJSioH+3280aKH+1iFdBGxMFJ84INFbyWQTFY1dqH6JgBTM7IAABCEAAAutNAFFwveuf0kMAAn0kgCjYx1rBJwhAAAJTiYI1j/hYik1hOeaoKJin86YPBtWSp/MFx2p+zBQMuLEJAQhAAAIQgAAEIAABCECgBwQQBXtQCbgAAQhAoEJgGlHQxnXvz6lYKr7+W6/vmTv37r1AKn3Uronr3g9UTVc8SsxMQQWSVQhAAAIQgAAEIAABCEAAAv0jgCjYvzrBIwhAAALZl/QK8S0AEoh1mRAXf8G4TeneD1ivCub55Y8bK0HPfRCkfKegEwRzn5xt907B8ZZYf5QNZgoG9ccmBCAAAQhAAAIQgAAEIACBHhBAFOxBJeACBCAAAQhAAAIQgAAEIAABCEAAAklaPooAACAASURBVBCAAASWSQBRcJm0yQsCEIAABCAAAQhAAAIQgAAEIAABCEAAAj0ggCjYg0rABQhAAAIQgAAEIAABCAyTAF+cHWa9TluqLtpBFzbblmuVebf1kXgQgAAEJhNAFJzMiBgQgAAEIAABCEAAAhCAQC0BI5Dk76UNfsdbiCc+tm3Z3Kj/OJgfdxFbk/KbFD6LDzGbXbSDLmy2Le8q827rI/EgAAEITCaAKDiZETEgAAEIQAACEIAABCAwUAKZgGM+KLWxuT1/Gc3HsLwPWyGe+FBjgpkfY7Fbk/KbFD6LNzGbXbSDLmy2Le8q827rI/EgAAEITCaAKDiZETEgAAEIQAACEIAABCAwTAL5F+2zr8w3fMm+belrRMHNzQ1xX7L3NcNxsX800vlnokttusKfpnhZ2HiczWIs8vXKrGftNdja3pQNPQuyMCayldt35RttbMp2NH4mlhXxdHk9nzSHoqAmI8Wq6veWi2ryNj5IQ342bk14bT4ug/w3Gq/GpjSwNeY8W678NfVXuNFkM0h7ZX39yQTftlXbLdtoU9515fHZqCZUlIgVCEAAAssmgCi4bOLkBwEIQAACEIAABCAAgd4QKIWK7mYKlrMQrcBiBSsRKcSrHIYRhgqlxIguNek8dn48a7MQ24Iwk86KdRtSTIq021qEKvP0belMDbPchlcGk5+yXSRR8XOhriim88kxMdseh9zIRL9dGUKuWf16+RV+2cz9x5kb81EJG+PF8vTrol078NOo3PPVINz65DgEYV5iXR8mwI9b8a1oT9rIhDSx+ozVqzbJOgQgAIEVEEAUXAF0soQABCAAAQhAAAIQgMAgCVSEDyOeOKEmEKxMXD37zqwXYkpDOg9cEM+Kbk6YC8NigpsWsML4vngUzgi0QpsRojyfXd7VGYSZMKfzywvSyEHF8ZQ9bSfw2/NJx/PA5RtBeKX+gnBnojFeLE2Dj7XlD9K4vIvfMNzk6/iHYXX1YYwFcTW/Sjld5hPSxNq1FS1HSvh2tviFAAQgsDoCiIKrY0/OEIAABCAAAQhAAAIQGBaBiogyQTzxhC6NoiGdjhYKOhNEQTsLzMtTC1hBntqWKVch/oVpyo+sFLMta+PrtHlBKsy8AtqNqfzWolZsZqJn3venOZ8yYXM832aWKmCrfawtf5CmzD5fC8NNvjWiYG19GFOBHeVbtZzOifo00ZmeLpnNLhPDvWaow1mHAAQgsEQCiIJLhE1WEIAABCAAAQhAAAIQGDSBisDTIJ7YmVNOxAmpNKTzopp46pFfk38xMzGwYdKFeVbi19jS5bI28nf6bY3jH2ipi28nK+r3AUZ88sqXb0z0u+RoZzQWAmY2Q65JgDLxi/DGfJRjE+J5Nm2yoC5MeudjaKvIJkhT7HcrU9R9Q300iYL1j5AHvrUqj/PbNMONeLspo7AGAQhAYCkEEAWXgplMIAABCEAAAhCAAAQgsAYEtPhii9sgnphwE18/almoUxPSFSizePEPkgQ2XBovz1JMc+JQ3FY2+y3zdSzm4yXWVStolTMFTXhWhJr4XpnVY9WeTzWPmHpxtN+ZyOQ4jre2ZOwEt7r8HItYeEM+Oplfd74/ZZgrY1AXWkTzfMhZWohBGi9zm8g+mu4+JFOyL8OKj6/kMyYr9WdtBvkEvtnZgkUbnb08cTuVQrEDAhCAwFIJIAouFTeZQQACEIAABCAAAQhAAAKLIxAIOnMZnt6WmRFXPDJs8jaCWiFszuUMiSEAAQhAAAKdE0AU7BwxGUAAAhCAAAQgAAEIQAAC3RCYXsir92MGW5WZgm4mWX0uhEAAAhCAAAT6QgBRsC81gR8QgAAEIAABCEAAAhCAAAQgAAEIQAACEFgSAUTBJYEmGwhAAAIQgAAEIAABCEAAAhCAAAQgAAEI9IUAomBfagI/IAABCEAAAhCAAAQgAAEIQAACEIAABCCwJAKIgksCTTYQgAAEIAABCEAAAhCAAAQgAAEIQAACEOgLAUTBvtQEfkAAAhCAAAQgAAEIQAACEIAABCAAAQhAYEkEEAWXBJpsIAABCEAAAhCAAAQgAIFpCWzL5sZIxlvTphMR82XgjU3ZniHp9Elm+HLx9JnEUyyznMvMK17aFe1dYf1OXeJV+rqqvFeV79SVQwII9I4AomDvqgSHIAABCEAAAhCAAAQgkBqBTLwbjUZSLDMpeWG5w8H+FCKhFrDM+mhDNhemEIZ+hH6G5ehwW5ezNpvQ39qIzQGt8mo20S50Qf42ZjZNHm3rdxqbjc7NEdjW1zmyqE26qrxXlW8tCAIgkAwBRMFkqgpHIQABCEAAAhCAAAQgsGgCmYhhhLyNuRQzY0eLbrndOWfqbW9uBLMEpxBdOhWwQj9WKEq0Kmfo74ztqFVeM9r2ki3IX89muDFNHm3rdxqboT+L2m7r66Ly03ZWlfeq8tVlZx0CaRJAFEyz3vAaAhCAAAQgAAEIQAAC8xPYGpcz+0ZjmeUp3cwJI4ZoUdDsNQN19eivl5fab+ONZXNzo/AlPskwE1yKmYgRf42I6MI3xmP1+LAWDbL18Tib1Vjk5flXstA2RzbPmB+l/a2xL7Da9EUmrsrK+HZPRWzLwuuYaJ+8cho7ldmaMX9N9bSr+9q8bBVXbbQrv+Ngfn3/xlv+dsZcxw/Xm1n55XTtbrY8suOjLr8WNj3mzhdTnsxmpU0WRY2Ee7bK9upsFcdyLF60nbjM/HIUTTdmxyUpfuvYmAhBGa6MtdUyXpu2X7aNpnwL51iBAAQiBBAFI1DYBYHhE8gunEVnYfgFrpTwhydfkFu+fYgFBlO1gS/uPiR7vnes0p7YAQEIQCBdAqUAsNiZghmRQiCyIoQSDe22EzJMv6QU0qwIVTvDMPO3ECo0+CAPk/eosKP7Pn5+1oRJW8TNBTOTieenl1nwrkNl34gnhS3jryp3YULFN/vC/HNBtagT7YddL2365SwyyMU2Fy/gFuZnfI5Bbcqrzkar8is/o3kH/qro1dWgPq3PedsK/Pfrc9o84u21tc1GX4IyVAoZhNext+lU22qM5zIJ2misPlrZMfYifhbifRDmsre/2gc/nnc+sAxdPWgDDWl0NNYhAIEKAUTBChJ2QGAdCJgLZ+yCug5lz8p4232H5Bff8wkWGMzUBtbnSKGkEIAABNoS0IP6Mo0RrKzWVBEatCAT9EtCAaI0V8wqi+lXdkaYDvDs6Dz0em7c+Kdn2Jl1I+xV/HbOaP/NPm3TrOdinOeDSxvGrxMFdV9N8Q19CvKwIqEqS4Yk8LeuvNpF62YgFuq8am20Kb/KyNg0/uq6y2cPertUEn9VszchDaw8uwET32iwpfPQ60F+nv3QRMDSixvaDNJ67SsXrVUd27ZbCNHKVm0dmYmi6v2fekZvrD4a7PieqrxtgKqLsAy2GDEfAhthm4s2ioY0voNsQQACAQFEwQAImxBYDwLBhXM9Cu2V0omC5123V1hg0LYN/NuPfduKiF5jYgMCEIAABHwhpuBh+huZOGZn+3iDeS3IBP0SLQIUttyKTuf25b9GuNB5eHZ0Hnq9Jm2+u+q3yzP0w7dp0plZfu7XpSp//fjxmYIziIKGQSEOaR/1ei4qaValY/5aE9MwTKU0glNz+VVkt2rsFeJU4K+LE/0NWCpRsFp/2q5ejxpWO3Ueet1EMXZqZmQqC82+hDZVQrsahDew9wTqunhmf7SdqHx1fdTZUdGz1cBPj00QVutDEE8dx1WGzoH6NC4GvxCAQJwAomCcC3shMBgC9uJZ3El0ncvgwplf9N0d8rKPmMWre6eH/44WZzsNdIiCCIFthUAdD1EwjeMbLyEAgVUQ0MJIlr+dieSEBzOwd7PnTLDte7i+Q9AvUSJArCTGbtlXUTGCPLz8vVlKQX7GRJC2sGr3Oz+LvXbF9yOwacswlnEhFvlpM+HGCUn5rC3HKrPuPVLt8Qp89cqpxRsbr2Tl+RvYCL0rtoN4Xl5BWJHGrJiwjabye7GLDdNvdY9Me/4WMWIrhn35+HkTKy8sn6kWbUuVbHT9NuTXZDPk1XQMNObf0F5tOuVrmKez29BOXBTzW9RHnR0d2a43sVF+mbi1PgTxbFvaFPvhcOtH7HhsSFPxkR0QgIAmgCioabBeEPi9P/u6/Os//DzLnAx+66q/kgOHjxdcl77S5sIZXuS9NP6F3QqMrsNq4rl1UzB9YV96QafPEFEQUVCLfW3X+y8KBp3i6Q+NpFNw7eK6vU59lwuu+uJq+xiVs0U268rdYLS/odpiRRD3uGApiHkzm4zdsI8R5lXYqYoD+mboeGtLxkVfRZ8f9boyXtjNfcz91zbLDxvkfR9749X4EdrMeRT5q3zyVW3X99VEyOzV3ZitT6vrYSzmwxVFNRTly7kV2355Q0/r89IMQhth+bPtwheVibZfz7c+/SRWmRAYa3faf8Nkch7NHxrJC1VwrbbPel/C9qMA2dVIeJFPyD6IG42X10/efnU7mVwfYX7a1yxv98GUcuaniRP4lfPOzhm6rQbxgvNB3L/mNNpD1iEAAZ8AoqDPg62cwPl/8Hk5d/Oz8kuXfZllDgbmnXV7DhxdXbsynYBY70tflCtxdIeo4QIbdjBMp6Kh47s6CPGcEQURBdsKgToeomD8eOrLXiMIce3iur0ufZeV9zH6cuD32I/2M91ihQj6YLEoq9p30UUi55wjYn5jf9HwecvTlL4pLOZg3b62drJ4D0fLWWeb/RCAAAT6SQBRsJ/1snKvjCj4tot38a61Od83t+oOu72TNkEUrMaZQhSM2l55823lAKIgoqAW+9quIwq2OrxWFsmIgly7OLbbHs+px1t1H2NlB3oqGXtPXszidFuBahbbc6TZuVPkkksyA+bXbOu/mnDT35yn29icfjGsmvPQhdySq0dvkH1NHHR01iEAAQj0mACiYI8rZ5WuIQouZlC18g57bYdUdZ5sHPUIj50B6B53UPFMg9TT98N0q2ywM+SNKLiYNp76oHpa//skClpBn/eFekc/oiDH9bTHdMrxV97H8I4+NgZLwIh8l16aFc/8xkTApvChgIHDUGqSckAAAgEBRMEACJsZAUTBxQys+tBhn144UAKhfszYNA0tCprt8BHieW4BL/ngQxRcTBtPeUA9i++9EQWtKO/Ee33wKCE/FO69NCZe+VJ2e55wj//HjvNEjm1EQY7rWY7rVNP0oY+hzz6sD5jAjh3Z48LmN/Y3KTyWJsV9k8o5KTzFMuMzBCAweAKIgoOv4tkKiCi4mIEVHfbZ2t8yUiEKLqaNpzqYntXv3oiClXeBuqNGiYKVOFO8GqCYgZi/TNwJhi6bnv4iCnJcz3psp5iOPkZPT0S4BQEIQAACEEiIAKJgQpW1TFcRBRczsKLDvsxWO11eiIKLaeMpDqTn8bkvoqCd2RedvVeKgtU4U4iCUdvTHWOriI0oyHE9z/GdWlr6GKs4y5AnBCAAAQhAYFgEEAWHVZ8LKw2i4GIGVnTYF9YkF24IUXAxbTy1QfS8/vZFFLSP8o+mfHx4Dd4XiijIcT3vMZ5SevoYC+8aYBACEIAABCCwdgQQBdeuytsVGFFwMQMrOuzt2tsqYiEKLqaNpzSAXoSvvREF7Ss+N2RUPObrBMJypqA9rrz3fg7/faGIghzXizjOU7HRzz6GmZHszkfLvrpvybivrzoI39W6bDTkBwEIQAACEKghgChYA2bddyMKLmZg1c8O+7q37qz8iIKLaeOpDJ4X5WefREGO5CoBREGO60Ud6ynY6WUfw3uXqX5lQfV47WLP1ngky377gfdBtxpR0sTZ2Nyeq8imbKORvrnjzGWcR9HZ4y4OvxCAAAQgAIE4AUTBOJe134souJiBVS877GvfujMAiIKLaeMpDJwX6SOiYL9PIIiCHNeLPN77bmtxfQwnKpVfJJ/1SPdFueWLguKJkrOWYpp0WzIuVMisvFXxz8zgjol5bfMx6Y3YGbeTCY6bMkYUbAuUeBCAAAQgoAggCioYrJYEEAUXM7BaXIe9rBvWFkMAUXAxbbzvg+ZF+4couJjjrysriIIc14s+5vtsb2F9DO81A/M8+qtFq1JozF5zkNuty8s8Xlu8DmEko0JoMzbHsrnpXpdgxDVlO5yZZ+1EyuDlm39VPSaiefGUnVr/9NlMl1/tNzaL8oh4MwsLH8JyxmY8RuwX5c3Sb6lsWYUABCAAAQi0IYAo2IbSGsZBFFzMwGphHfY1bINdF7nXouDtJ0VOPCUXXreYdjj/oPZx2S0iu2/vyp8D8oUTIkf2HJD5fe3Kx8wuomDXR+Z89nsrCq7dMd3tcTj5PNH1OcuVb7XnrsX1MUqRrTrLbZpjMhSmMruFHmYELC3iBWJZmZNJ52bWGZvlDEYnqGU2A/vWQOhDaXXi2kz++SJfUVaVmTd7shDxVAS76pcz/jEpE8dxydKXtucod+gK2xCAAAQgsFYEEAXXqrr9wt5439/Jj06d9nfmW4sUBT96MDdaK3JknXcTqzvRwXXgl/u7uA57tJrYOYHAHdtPy+ETL0ZjrUIUtMdC7XHg2mY2yOzbsXDhnhdFDj7ekWi32oH1ZIHB1c1eQRSMHk5L3fnR2x+X+w49I69Gcl22KMgxXR4b7Y+j7Hgvq++kfDRyAyTrO7woX9g1Sx6IgiXfJa5VBK9AtPNm4eWz9ZRImL0zz83iczPlArHL2FBpqu/qqwpnrQnM5J+2npVXzwoUifgfUw7DeKKFUZdHUDZPVA3ycUn4hQAEIAABCEwggCg4AdCQg9/16W35d5/cJ5/8xlH5u2de9oq6cFHwxItyRGo693YGhQmfXxS0wsVE0WWWAcZsaRAFvWa19I0/vv1xOf+6vXLlHU9UxMHeioK7npIj4g+Se9GuI361FwEmHT+Igks/OBLO8Df+/BErTr/v5ketOKiL0ktRMHLsDP+Yrj/mQyE1E//0Oa+8USh1/YaIiOifjxAF9XGxvPVQmIqIglFBTMS+C7AQ+3S6wGYrUVA99usKHxP8ikd380ieyOYSqrCof03x8nKpMtuZjmq7TB2Us4UoGIqo2WPa/kzC0j5rEIAABCAAgTgBRME4l7XYa0RB14k+//q9cvVXD8vjx7NZVQsXBQ8+LrbjX5lp5MSApxbyeGIvBlpqsIIouNpDyYiCRRsPxMFViILOl6bfWBuO7Wuy0U1Yl4Nsdx7g8eHVHjFp5O5EQdfOL73lMXngiees88sWBZ0PTb+x4ze2r8lGN2FdHtM1oqAVSIMbhHZfeVOwEA1jcdX1tZnJssq22nNX//oYRtjyRany8VYxz9nKRhBenHW0IGfjzThTsDJbschh8sos/m2Nva8KW6GuEP20uJlnX+ufYVc+Jm1F0lC0tLMJfb5loUJRsQxhDQIQgAAEINBEAFGwiU7Pw777xLMyz/J/f6oUBXXn+iO3fV/O+8ht8raLdxWCig6fdr0QA82MwGAG1HnFDIpYBz7bV1SDmgFoB1RFgBlMZB1ztUu9ky0M0zMSsrDdt5d5LfKxzbds/pnc9K3vy/2PP1tdvv+M3B9Z/uvjz0ps2fP4szLV8sSzsieyTNtmHnjiWYkuh5+TB2qXZ+WBw9XlwcPPSWx56MhzElsePPysxJZYXLNv71F/+b1bD1basJs5+Jf3PCZmQDVdey7biW1rqk2ed51rS3570+/JK46FhoGtH8e35ecZhul2bQbk0/tq2749TvMjySvfXivs6/JU2TkGZd7l8dTkbxZW2m6KO6lse6V6fnACxSS7Ll79r3l8+C07Pjf1uTd2LNp9Ux7XsXOD2Rc7l9h9sXNPQ/z7vv+MxJbvHDop9csz8p1D7ZfdB09KdDn0jOyOLH978KTo5d2f2x89bo04eP7/d/uU166yrfrHl2kDWXsJry9lO82OiUmP1ad9TNcdT5PZVM8Pe+W8WD8g56y52rRTiYJ+Pbprenn+KeszP7sV/RFbP8G5zvez6byRhfm+h/FLwTNjMiO7yHXj3N+5QW761uNy//fNOWDxyw9OvlTiarnmiYAmTTFDL/ahEf1BkUxAcx8lGY9nFAW1uNjSZy9a4W/+GHMg8FX9036PvEebrQhazC4sc3HvRXS2so+DZKJe+UEVV36TLsjDfJClYhdRsCTMGgQgAAEITEMAUXAaWj2KawZgn7j7qPzNvqdnXn6lRhT80BcPzjCwqh9ElwOirNOuO89hWNmBN51mPZtApW0YKFRnX+SdczVD0Y/jOu86r/qyRAc5kY66i/fWi/6z3PD1g/K1h5+eYjkhX3u4unz14acltpj35sWWr24/LbElFtfs+5t9x+OLCYstDW3vK3uPS3TZ97R8JbLcvve4LGL58t7jopf3bz0aFQ/+zfV75Xe3HpFffM8no+Gu/vzfhjZp24BrS2oAaNtquV2297o2ltnQx4jxwW+zanDb2K51m1bHj+drGcf6Zs5xxeA4TNNGAHEMSrsZw3x/o7/uQyNt4mr7gZ+154dJduvqxN9vRMG3XfwX8WNl3/HosWiOr9ixaPbVHY+xY93si50bsn3TnGOeljv3n6hZTFh1uWv/CaldHjkhd0WWrz/yI4kvJ+Trj1SXux85IbHlGwd+JHpZnCho2kRDW8rFKnNYFNemdTumJx1PDWz882d2HGWCfXgDIzs2w/NedtNQ149/LJb2w2M739a+ubqMnYOsUKnz0f6EtsPzsY5r/KvGzwRG1YZcHO1f0K7KstWVOdt/7ubn5LN3H6o5luuO8Xb7zfnJvL9z6r95RbmpM/QTVERJP3ipW9X3HTZlj6jXRIcwCEAAAhDojgCiYHdsO7V876Mn5Z7v/WiuPPTjw6YDamZZ7Dv6vLXZxePDJg9f3DCDedcRzwb2xcArIrQZ0cIOGvLOc2UAUbG/V+KDCp1v2KFv7oC37ai7eP17tGeuJpNcYv34sKmTX/nUPvnsvcfk+HOnZRGPDxdtUgltYbvUQqBed23E/w0Ervw48I+bNu262o4n+hqZwRP6W/GjcpzWHE9RYaHmOJwYd0LZ6s4PM9j16ybLlw+NrP400OXjwxOPk+t8cTw8RqptJvFjuu54yoWtpvNdlYWbdbhgUbD22FZCXG0c0wcJzls6rl4vznc15y4THo3vtxknHE7LLsazyz7G6TOvyhV3PDHDAb9KcWuVeYeozOy+ukd9w7hmu0++x/xjHwQgAAEIDJUAomCiNbtIUVC/j8nh6EoU1B1mX2DIBk6eKKgfY8wdKzrRtuOd74zd+Xeddx3PFc7+OjEyGAy4dAv67bLD7hWHjSgBJwr+6g0Py033/Z08++IrRbyZRMGmNtlikKwFBNv+C2/c4HUaAUElLlZdu3aP6RUBdqU4fmK+TikKxv2vOZ6mOQ4nxp1UNjcwz8vuzg9t7LY47hEF/Ta1ii0nCi7kQyMc08Xs4PgxXXM8xc4hgWAatRc5z9SJZLq/4ASxqE17bIdCY9CnmHD8W7v5LGm9nvkQa+XuXBuc86Lly8VQdy5qwc6Vd9Jvl32M2UXBGC/2QQACEIAABCDQVwKIgn2tmQl+LUIU/MMvHSpezh5m15komHeG5eBT8oUTTggxM3DiHXgtEvozONxsIb9D7nXmzQDfDgRc592l0b9++kkd8GnDu+ywh3XGdpXAp755VL704HF58fSZSuDUomA+qKxvk7G2lO1z7xzTomC8LcVshDNsW7TrWXyNDGZDf8Ptahni/k91HE46ZieWreb4nmS3hSBoyosoWDmUlr7DPNJ436Fn5NVIzlN9aGRiW4q153U7pmuOp6iw5bOpnh9qzl2RerBp2x6z0XixPkVDX6CwkZWhOM8X+zUHvR60kZr4/rkzSGPPPS3YRc5RXfYxEAUjJxh2QQACEIAABAZIAFEw0UpdhCjYVPTuREE9y0ff2Z/QgbcdbffOsfoOeTaLQNud1NGOdc61/fnWu+ywN9UfYZMJzCYKqkFlpU3mba14JN619TKNPzCMt61YnKnbdTgwrfG1nDnofNXHTvyRNydwRgf8UaHAlHOa43BC3Ill01z18T3BbmTAHSsjouDkY2uVMaYXBcvj080KK4+LvM2s9TE94XhqYBM7fmLnAnvOK95lqvILj/XaYzQ8tl296RuPYRyVT27X+HHk4Ek54n0QbVK6LLzSZopZge7cqtqZOx9Oza7qc5d9DETBVZ7JyBsCEIAABCCwPAKIgstjvdCckhYF81mBZSfadHQDUdC9H9BRO/GUfHTPi9k7BcPHvbzBRGbHJiv2lwMEZ678CnLYoa92uuMDm3bxuuywl2VhbRYCU4uCTW3SDipdW3pKdiuHihknwaN1de2qMtvV2p62Xbt3d+WO6OPH8/VA+aGViTMFq8dotQyOgbKbD7gLMUCxqT8Om47ZCWVrPD80262Wp3qcIwp6Fdi7jalEQY5pe67S56jKMVB7PLljvf58V7FVnAvU+cy0oOJanR1v2U2QatNq9DP42rr7YrSfZsLx78qqBT11vvQ9cjdQHAd9zgvKp8U/Ze/InlnY+eekLvsYiIJ+jbMFAQhAAAIQGCoBRMFEazYlUbB+YOB3bocYr8sOe6JNtzduzyIKhm308//8P8jejZ8Q8+tELy12++HhzLua9m9nx7gBZ02cYnC9xPC++rVkFoiCvTmEo45MKwpyTE9/rsnOaz8p+99zUXajbsnHYFhn6W3HhMTZzuVd9jEQBaOnGHZCAAIQgAAEBkcAUTDRKkUUnK0DvezBQ5cd9kSbbm/cnlcUvP78S+XGt/+anWlnfq8///fsezKdKDgpvL4tZgNGf4bL6tu7nb1TmUGzer/qOXbjG6Jgbw7hqCPziIKTjtlJ4fVtcTjHdMnggGy/9xI58f7fK2cbIw62ZIEoGD142QkBCEAAAhCAwEoIIAquBPv8mSIKdjPgrx/UzZYfouD8bb0rC9OKgmYw/Jdvf3cuAr5bzLZuL0YU3Ld5qZ05c+Pbg3DzWNrOnSKX7pCPWdaqKgAAIABJREFUXrdXKuHhYNrEDx6p03ktf73No8OzHSPLL8t8fiIKdnVELsbuNKIgx7R+5178uKhnlAlbRhRsOi+mdnwvx19EwcUc7ViBAAQgAAEIQGARBBAFF0FxBTYQBeMDmOV06NvnjSi4goOjZZbTioKmbd3ytnfZx4XNb6ytzRses8m+9sfbMlghCrY8wFYUbRpR0LSXeY/ZSemX0Sa7zmNSGSeFd+3fOtvvso/B48MrOomRLQQgAAEIQGDJBBAFlwx8UdkhCvZLKKgblHTZYV9UW1pXO7OIgnX1zP40jsdF1BOiYL/PGNOKgotoE9hYn+O/b3XdZR8DUbDf5zq8gwAEIAABCCyKAKLgokgu2Q6iYBqDkC477EtucoPLDlEwjWOob4NwRMF+nwoQBTmu+3bO6NKfLvsYiIL9PtfhHQQgAAEIQGBRBBAFF0VyyXYQBdMY+HTZYV9ykxtcdoiCaRxDXQ6oZ7GNKNjvUwGiIMf1LMd1qmm67GMgCvb7XId3EIAABCAAgUURQBRcFMkl20EUTGPg02WHfclNbnDZIQqmcQz1bbCOKNjvUwGiIMd1384ZXfrTZR8DUbDf5zq8gwAEIAABCCyKAKLgokgu2Q6iYBoDny477EtucoPLDlEwjWOoywH1LLYRBft9KkAU5Lie5bhONU2XfQxEwX6f6/AOAhCAAAQgsCgCiIKLIrlkO12Lgv/+w7fIv3jf5+RdV32VZQ4GXXbYl9zkBpcdoiDiwSxCAKJgv08Fv/IRrl1ct9en39JlHwNRsN/nOryDAAQgAAEILIoAouCiSC7ZTtei4G9d9VdiOpt9Wd72vr+Qt33gL3vjzzRc9hw4uuTWQXZtCCAKIgoiCrY5UtKK07dr1zTXipTj/ovfvUXesuM/J3mNTpm78b2rPgaiYFrnPryFAAQgAAEIzEoAUXBWcitO17UouOLiVbL/zqFn5K79Jyr72QGBWQkgCiIKIgrOevSQDgI+gS/seUq+93en/J1sJU0AUTDp6sN5CEAAAhCAQGsCiIKtUfUrIqJgv+oDb9IjgCiIKIgomN5xi8f9JHDrd5+SA08iCvazdmbzClFwNm6kggAEIAABCKRGAFEwtRrL/UUUTLTicLs3BP724SP2Ubf/dPkXhGU4DH718ls7rc9/+4c32XbTm4aMIxDoAQFEwR5UwoJdQBRcMFDMQQACEIAABHpKAFGwpxUzyS1EwUmECIdAM4Fjx5+VT992P8uAGHzytvvlNz77oHxqCWVqbl2EQmC9CJjHhx958vn1KvTAS4soOPAKpngQgAAEIACBnACiYKJNAVEw0YrDbQhAoDMC5r2j5pHg3Yee6SwPDEMAAlUCiIJVJqnvQRRMvQbxHwIQgAAEINCOAKJgO069i4Uo2LsqwSEIQGCFBF55VeQ9f3HAioLvu/lReXWFvpA1BNaNAI8PD6/GEQWHV6eUCAIQgAAEIBAjgCgYo5LAPkTBBCoJFyEAgaURcLME3cdDmC24NPRkBAFBFBxeI0AUHF6dUiIIQAACEIBAjACiYIxKAvsQBROoJFyEAASWQkDPEnSiILMFl4KeTCBgCXzxgR/KI3x9eFCtAVFwUNVJYSAAAQhAAAK1BBAFa9H0OwBRsN/1g3cQgMDyCISzBJ0wyGzB5dUBOa03AUTB4dU/ouDw6pQSQQACEIAABGIEEAVjVBLYhyiYQCXhIgQg0DmB2CxBJwoyW7Bz/GQAAUsAUXB4DQFRcHh1SokgAAEIQAACMQKIgjEqCexDFEygknARAhDonMD+HzwvH/riQbv8/hcPym/8+f5i2+z//vEXOveBDCCw7gS++N2nxByL/A2HAKLgcOqSkkAAAhCAAASaCCAKNtHpcRiiYI8rB9cgAIGVEGAQuxLsZAoBQRQcXiPgfDq8OqVEEIAABCAAgRgBRMEYlQT2IQomUEm4CAEILJUAg9il4iYzCBQEzOPDDx9jpmABZAArnE8HUIkUAQIQgAAEINCCAKJgC0h9jIIo2MdawScIQGCVBBjErpI+ea8zAUTB4dU+59Ph1SklggAEIAABCMQIIArGqCSwD1EwgUrCRQhAYKkEGMQuFTeZQaAg8FcP/JB3ChY0hrHC+XQY9UgpIAABCEAAApMIIApOItTTcETBnlYMbkEAAisjwCB2ZejJeM0JIAoOrwFwPh1enVIiCEAAAhCAQIwAomCMSgL7EAUTqCRchAAElkqAQexScZMZBAoCf/0g7xQsYAxkhfPpQCqSYkAAAhCAAAQmEEAUnACor8GIgn2tGfyCAARWRYBB7KrIk++6E0AUHF4L4Hw6vDqlRBCAAAQgAIEYAUTBGJUE9iEKJlBJuAgBCCyVAIPYpeIms04IbMl4NJbNzQ0ZjUYyGm3I5va2bG6Y9ZGMNjZlW+e7Nc7jmfCxbNmwzMZ4nKUZZztlK9/O7CpbURs6k8nrf/3AD2X72HOTIxIjGQKcT5OpKhyFAAQgAAEIzEUAUXAufKtLjCi4OvbkDAEI9JMAg9h+1gteTUPACHoj2djMpL/tXBzMhL1MHHQin2xvyoYWCY24ZwN9GzZ3L64JN2KjSL2NaXwWQRScjlcKsTmfplBL+AgBCEAAAhCYnwCi4PwMV2IBUXAl2MkUAhDoMQEGsT2uHFxrSSCb5ZdP7hMxQp8S/oxI6ARDG2ZnE+azCIuZhIENk3OdKOjNEqyZjdjCc/P48Pax51vEJEoqBDifplJT+AkBCEAAAhCYjwCi4Hz8VpYaUXBl6MkYAhDoKQEGsT2tGNyagkAg6E0SBYtpgzqLwIYNMvtK8dATFqM2tL3J64iCkxmlFoPzaWo1hr8QgAAEIACB2QggCs7GbeWpEAVXXgU4AAEI9IwAg9ieVQjuzEAgEPSaREEz+889BuzlFNgwYVvjcoahjltrQ0eavP6lh47L9lHeKTiZVDoxOJ+mU1d4CgEIQAACEJiHAKLgPPRWmBZRcIXwyRoCEOglAQaxvawWnJqKQCDoNYmCxm74+G/xTkH30ZE8cyv+lTMFzcdGigmCURtTOS2IgtPxSiE259MUagkfIQABCEAAAvMTQBScn+FKLCAKrgQ7mUIAAj0mwCC2x5WDayslYL48XDwybDwxQmChCs7v2pce/KHsY6bg/CB7ZIHzaY8qA1cgAAEIQAACHRJAFOwQbpemEQW7pIttCEAgRQIMYlOsNXxeCoHKTMFgJuGcTiAKzgmwh8k5n/awUnAJAhCAAAQg0AEBRMEOoC7DJKLgMiiTBwQgkBIBBrEp1Ra+DonAbQ8dl31H+frwkOqU8+mQapOyQAACEIAABOoJIArWs+l1CKJgr6sH5yAAgRUQYBC7AuhkCQERQRQcXjPgfDq8OqVEEIAABCAAgRgBRMEYlQT2IQomUEm4CAEILJUAg9il4iYzCBQEvvzQcdnLOwULHkNY4Xw6hFqkDBCAAAQgAIHJBBAFJzPqZQxEwV5WC05BAAIrJMAgdoXwyXqtCSAKDq/6OZ8Or04pEQQgAAEIQCBGAFEwRiWBfYiCCVQSLkIAAkslwCB2qbjJDAIFgdse+qHsPfJcsc1K+gQ4n6Zfh5QAAhCAAAQg0IYAomAbSj2MgyjYw0rBJQhAYKUEGMSuFD+ZrxGBV0XkC3uekhvv+zu7/NFt35eP33mk2L5r/4k1ojHMonI+HWa9UioIQAACEIBASABRMCSSyDaiYCIVhZsQgMDSCDCIXRpqMoKA3HDPMTnvur3RBVEw/QbC+TT9OqQEEIAABCAAgTYEEAXbUOphHETBHlYKLkEAAislwCB2pfjJfM0InHj+tPy7T+6riILv+YsD8oqZSshf0gQ4nyZdfTgPAQhAAAIQaE0AUbA1qn5FRBTsV33gDQQgsHoCDGJXXwd4sF4EPnH30YooyCzBYbQBzqfDqEdKAQEIQAACEJhEAFFwEqGehiMK9rRicAsCEFgZAQaxK0NPxmtK4AcnX5J/fX35CDGzBIfTEDifDqcuKQkEIAABCECgiQCiYBOdHochCva4cnANAhBYCQEGsSvBTqZrTmDnnYeL2YLMEhxOY+B8Opy6pCQQgAAEIACBJgKIgk10ehyGKNjjysE1CECgWwLbm7KxsSnbQS4MYgMgbEJgCQTcbEFmCS4B9hKz4Hy6RNhkBQEIQAACEFghAUTBFcKfJ2tEwXnokRYC60VgazyS0ShbNjZDKa0lCyPEjTZkcvJt2dwYyXgrZjcLc77Y33jEWOJyXytRsJpXq6xal7N0h7V5CDS1l3ns9ifts6dekj3fOzbo5Q9uPSB/dvehQZfR1OE6/SEKrlNtL7esBw4fH/y5YujnfFO+Y8efXW7DITcIQKAzAoiCnaHt1jCiYLd8sQ6BwRDYGstIzarbGo8lqtctrMBNIo8JayMsTnCmtSio8jIcRl2XfYLfBEcINLWXSPQEd923/6j84ns+Mejl3Pd+Vn7htz856DKaOlynv7UVBWuuL9PV/ZaMud7UIjv/D7YGf64Y+jnflO/Tt91fW8cEQAACaRFAFEyrvgpvEQULFKxAAAJNBAJRsIyaDVo2NzeKWYTlTLosbJzPMMz260FOXdpM4ClnAoYiXJMoWGcz83hb+bkxHqvHh7M8zQxIfxAb5mXsK5HQzggsZ1COisLrcvrlKaMYgdGlDcvoCIflMXkre0qoFStYxuxlNnQ96Fmf1gdnp9aG88f8Vu3Z0Lq0av/G5qaMXV65nUJcDgfRKp0vxKryj8xsUn/bj6v9TnvdiYL/2x/dIe/8k3tZEmRw3h/9lRUx0m6J03nvn0+nS5t07PB8NlNh9HVkJgM1icJz5kjKa5dJUh9urh3VJwW68rPG/Xy3EQXfdvGu4l2k511XfqyI9TRYIAo2t3FCIZAaAUTB1Gos9xdRMNGKw20IrICAE5L8AYEZDKhBghXJnMAVhFmf9eDBD7eCXSEYZYOSQkDzyhsOWJRIZ4Wm0h/PpvWtjGvLU+RXZuAPYk1eZRorvEXSZKl1XFVOI26FBQkHjLE4Ba+gPFYIM4GKUaM9n7N4cU1YXj5vv9H+In5HfLK76tKa/c6+NTlSM04VI1sc9Y7HOnsmXtQvxcI6NLx/ThQ0giAD3jQGvGE9/coVX0UUHN6hGS9ReA6Lx5qwNzhHTojdPlhfq0yq7PxZPg0QhivL5vwbXgOj52SVpqNVRME0z4P6vIgo2NHBgVkIrIgAouCKwM+bLaLgvARJD4F1I5APHopHmsJBix5MhGGGld6n1824RIlCWvCqINZ5hIENNsOBi5dfaacqCrrZd1rQKuM7sdTN+sv0P+WHycfMCNTCoPGlmCWY2w8HWjYLZcdsBwMyI3pakbbRXmDDK7cJy0XBRhtlef06zPfXpTX7dbkreTsBOaj/OnsmuxjPxvaifU93HVEw/QEwomC6x18bz+tnoufn7uKcr857+TWxabZ9MZs6OC+6U2s4e8/6YQOz67V/I8+UJHYNNdcC9x7fWLgjoK4ZdleWh/PFxVrGL6Jg+udERMFlHCnkAYHlEUAUXB7rheaEKLhQnBiDwNoQKAchgeDkDTbCMINH79PrgSjUKPJMGrCoAZcWoRoFqrLqqqKgmymYDX68AZaxWYh5enAUlM0WPRMC7eAp9KXMPlgL7Hj5GX1MiYK1o7LARj6b0omSRXlm9cmVLZZ/aFPXh9cWgvoP0wVU7KaJ4w1i3YA2Fjn9fYiC6Q+AEQXTPw5rS2BvVrhrhbl/o24ieee9XCAszpfm/FzOBs9uerhrmDp3B/a9eOZc6F2HSj/i/savoeV1PbuWuWvEyN04yo2V8dxNGudvPLeu9iIKpn9ORBTs6ujALgRWQwBRcDXc584VUXBuhBiAwFoQMOJTMYbxBLtgQGOFGjdAUAOagpLep9cDUciOm+pEnviAJsuiwWYwqPIGbYV/0vxOQWvDlS8Y3Nkw53PgR26/EPECX1T2wWpgxxv8KVGw0V7VRiEE6twabeiIgT0TVJc22O8zN3bKwasXFqTTuev1gmdje9Ep0l1HFEx/AIwomO7xN9Fzc24uL5LZOdEJdfa6qGacmxmDLiy8OVJ3Yy20X7kO5+dSc+4sbNd5Hb+GmnNwVoR4eGFN5WHOwV65i0jdryAKpn9ORBTs/jghBwgskwCi4DJpLzAvRMEFwsQUBAZNwAg45aCmFJUygajVo0+WjxaU9HpVFLSPyto8lQhnbYSzGPSjuc027QAmL8d4a0t99CKzacpVP1Mwq2AzcCrLr30Zi/mYRzaoKv3QeXofwQgHinpAWbSl0k6GT88IUaKgCay1F9iwgltZl+VsuyYbhUMmUvyLmDX56/KPN/0Bqxfm1Ue9LzpNnGfYXrTv6a4jCqY/AEYUTPf4m+h5KNop4Sz+HlRnMTyfakGuDLPnPe8akV173C4Tbq5L7tdZj//qPFwMk5e7SRMLd/HMr8t7UjydZvHriILpnxMRBRd/XGARAqskgCi4Svpz5I0oOAc8kkIAAvUCUcJsfFEw4YLUuO6Lmrn45kaWNWkWtlsPlBdmdD0MIQqmPwBGFBzwsWpvtjhRLfL4cCG4hQyMGKduNNmbK+7GRikKVmZje/HcTbWxjPWHscKsiu2qmOfN1PZmKxaJvBUrUm5stJiV6CVb6AaiYPrnRETBhR4SGIPAygkgCq68CmZzAFFwNm6kggAEHAE1aHG7Ev8duiiYDS71TEE3AF1CxSEKzgwZUTD9ATCi4MzNP4mEViiLzkSvn/nsZl63mm3vzcYuBcgMTjZ7r3ws2ezN9pUz2x3GPK6a/e8/AjwpPBchtZjpTC/xF1Ew/XMiouASDxiygsASCCAKLgFyF1kgCnZBFZsQgEDKBAYvCqZcOWvsO6Jg+gNgRME1PoBri764G2vlOwFrM6sPuOgikXPOETG/sb9J4bE0He9DFEz/nIgo2PFBgnkILJkAouCSgS8qO0TBRZHEDgQgMBQCiIJDqclhlQNRMP0BMKLgsI7JxZRmQaKgfXx5xlnfO3eKXHJJVhzza7b136RwHXeJ64iC6Z8TEQWXeMCQFQSWQABRcAmQu8gCUbALqtiEAARSJoAomHLtDdd3RMH0B8CIgsM9PpMqmRH5Lr00c9n8xkTAecKXBANRMP1zIqLgkg4WsoHAkgggCi4J9KKzQRRcNFHsQQACqRNAFEy9Bofp/7BEwcdlt4jsvj39Qe1517UvA6LgMI/NJEu1Y0f2uLD5jf3NGx6zOcO+fUefr02Vmij40YORopx4Si4MziHReHJSPnrdXrFhkTTmPNQUNs15aplxEQUjbYJdEEiYAKJgopWHKJhoxeE2BCDQGQFEwc7QYngOAoiC7cW3ZQ5qp8kLUXCOA4Cka0nAHF8f+uJBiYmDSYqCBx+X8pxxQL5wwlTri/KFXeX5zYp7Xrwy7LzbT1biZ/bSvNGCKLiWhzWFHjABRMFEKxdRMNGKw20IQKAzAvWi4ILe/TSL53Vf7a3bP0seXpoll9W+D8t8ETn8oqbn1FpvIAqqgXEws6YcZPc7DqLgWh/CFH4GAvrYNuLggSdPFVbSFwXN+SoXBpUI2CgKXpeJf0f2HFDi4l7JxMJsNqFm1vd1RMGiObMCgUEQQBRMtBoRBROtONyGwNIJbMvmxkjGW9NmbNKFQk+d4GT2j2Q0MZO6eJmPI2MjX0pTdXlWy9NHUXB7c0M2Nrerzg5EFPS+mmkFwhlfmF8lNJg9iIL9FvzaDL4RBQdzOFKQJRGIHVd/9KXvW3FwGKJgVdBrFgX3yoV7XhQJHiGelCbGsQ/7EAWXdCCZbAbSX1wiMbKagQCi4AzQ+pAEUbAPtYAPEEiBQPeioBW+xmPZGDULQvXxAgFyayyjwlbKoqDxPRRW8zYziE5e0LYQBaMnhLRFwWx2iyvY7tvDR93cY3QuRjnjxQ52gwFwqrNijCj4jg/9tXz6m0cblmPy6W/Gl09986jULt84Kp+qW5rSffOofPIb9csnvnFUZl7uPirX3X1ELviLR+QTdx/1luvvPiJ1y3VfPyKNy91HrF1ju7I0pL32rsPSuHz9iFxbs1xz1xGpXw7LNXc1LfVpd951WOqWj995WJqWnXcelrqlKd3HvnZYapc7D8vHmpaGtFd/9QmpXb52WK5uWK766hMSW5qEq3/5ezfJ2y7e5c+Y6/Es4lrhbtdTckQ9QmzjuVNh/uu9fzWIf14+e9CL02MOuk67EQXzG8fqBnH1RnEAOLoZ9E0k3I4mmnNn7nt5Rzu3l+XtymF+yygt+7eD6C/OiZfknRNAFOwccTcZIAp2wxWrEBgWgbAzkot2VnSLzcrTpTdpQ0Er1oFx8bK8ys6OtmXWm+K5MJfG5OPyjuVp4mX7x+OsHCZfO1Pwg28pZhvWCote+ZWQaUWtkks58zErm+vUFWWss1MUY+zNnjSiqLOxYUTUjU0p5hDW2DIz8fRMQ2vDORBNE/Dy4lQ7o5vKJ2fWuW9/WzJx5Sp+nTEvf8e6WndengPbSFcUDB+PKwXAbBAbhgczYSrv0MriVx6fS2AQbETBc3/nBjn+3Mu1y9PPn5a65cTzp6Vuefr5l6VuqUvj9v/o1GnpYjn5wiu2LH98++Ni1r3l1Gk5WbM888JpaV5ekWdeiC/PvviKzLo89+IrUrc8/9IZqVvq0rj9z7/0itQtp14+I7XLS6/IqaalIe0LL5+RWZYXT5+R5uVVefF03VKf9qXTZ6RpefmVVyW2aAHJrbvHiAczUzAQ+WrFw+IcF5wD7TmyvJHiOKXw240oqC7+pu/g+hFqd7vVSf3RdlamidXpTW9EwWmqgrgzEkAUnBHcqpMhCq66BsgfAqkQCDpHVuRxglv+WEIxK0+XyRfCCrEnjKs7K02duMZ4Ji/lkxWSfAGp+vSzEZZ8wez03k35e//Du32hzXYqlVCm/TDFrfVZ+RSL08JO9dHasowmbOREwSZbJm8XrxBWI4+TFD4GZS3E1bCuA37Gh7BudXOw64pJsa2ExtBGbbmCvCv5DGtHsqJgMODNBqpqpmBtuHv5fjAAjsZP49FiHh8e1jFJabonoIWt8IMjgxEFA1Fvsijo3zhpE19z7NP60kVB08cpZhC6/qFpx35fdbzlb5dpXF8l6yPV3RC1fbMiH9VPy/PRN2nLo8j1jbK8fS3ThbnYJn/XF8x8qfZvzRPDC7yJXMsuyN+L53gZv5uZ2X50wUzXTZauvHnv143PyfHhd1UEEAVXRX7OfBEF5wRIcgisDYGgk1KIRw5AEO52awGq2Bd0IKzOpN+ZZ8JdZ6dIZFfsXdTi3XphPL+j4H+0oppnZrm6//RNutOYz/h73XvlvhdvkrePfkn+3Mwm2fVLqmOp42QzTf78HWqm4Ggkb9/1ijz33ffK60yH5x03lbNRJth5Tufp8tXpjU3r2ySfjO8b8p7v5n5MTBOUVef54kPyntflZQr9s2F5PsGsmygTG0fbc5xyzq7MRUdRs1Y+Bnm5GTqL+H3lzKt+I1zRVtqiYDiLJRQFY1CdKOgPgGPv0+rTILfJF0TBWD2zDwL1BMzxFIqBLvZQRMFQ1Au3o+eU4uaIOZeW58po3GKGYf9unixVFKy9wVh3Y7fary1v0pq+Y3lD2Ypv7sarl0/YT3WtN/Kr00X72KpfbIU3J5xV+7HWurGn+tJz3UT+q83qUymFGqfyD/K07zEsbhT7zLwwXXbjvFf+IJ0XFuHIrpUSQBRcKf7ZM0cUnJ0dKSGwXgT8zpHtABUdAkPCDy/ZmP2qI2MDVAei2PZFNHNXtnonNesY6Du2frxYXs6TMM/6/WduHsvo5z4VeX/UJ+QNo7fKr5l3S33orTJ60ycicfKwv//r8kH7Dqq75K1/fyRv+JB6p5RJO8r3NdmJ5RPGv+HX5WyXVxgWvAPr1940krP/1V3ywX/1D+yvfT9WbZqyrCa+X1ZdpjJe9r4tE/YP5K03qPK6cjg/79LpTbxg25TJcXZpo6zDvIM8g/LXvw+sPt2VdzwhX3rouGssK/1NWxQMB62hKBiGB4PXYgCczRpM8d1ZZrCOKLjSQ4jMEySw7+jztV4PQRS0AqD4N01aiYLuq8WGTvjO1R6LgKFouVRR0AppQV9TC3nm5uOEfq0vCjpRLn+CQtty63Z2XNgHjjfphd/0DsUzLbw1sdA+uzQT4+cswjy9sUHYD1d99rb2DTorPIZ1FWfK3uUTQBRcPvOF5IgouBCMGIHAWhAoO0Puoqw6OvaCrjpIBRF10S/2BR0Dk7boQOWRZtoXyyu3ZzsRMf8CX0x0G1eVLeZ3bZzgDmfeefH6mTaLfGZkkx2vM6XLUfpWufOr7goXbrsVk9fGWMZapK3NX3EJ43h1beIpAdcLcxlPYmLqTT1iYvNTdRXmX5hVPhb7Frty7EcvyZ//7ZOLNTqjtWRFQTd4Pfh4/kGATNgzGOreKRgOHM22GSgfOXhSjgQD6Fjcvu5DFJyx8ZMMAhECSYqCYTmK82J5IyQTCsOIvnBoznF21rSIpPh+VXeOXrooGHbGQsy2D+P6I0HfxHZlXFjQ/zD9lKIfm/WL3A3s6g3uMFOz7aeppm3o3+aP5VYeHzZl0eXVPoZhgUumb2n8LoTKxvgli+YJA2W8LDtVppb2PTdNGu+DK14oGysigCi4IvDzZosoOC9B0kNgjQjkF+DiwxvFtrnzWgpVPhF10S8C/I6B63wUwXbFxPFtTo5Xl1d+Z1h3jorMfF/K3cEjxDZtENcrv75rafxwd6PHYt6DYpLbzlLxGKwSvers6A5c4ZhvZ7y1JeOiI5qLb0Ue2idjIPdLxze7o/k3lVXXSxav7r06pdtxJll4FlZWj4rrdrbxscxsYWuIguVA1Q3iZvvNZga6itl9ezjjrxQKXRwJxT/73i0RiQyiZ/NpUWVrbwdRsKxd1iAwL4HURMHwPPX5f/4fZO/GT4j5DcPM9rzhMZt927dUUbD2BqPfEgshzBMBszimH5p1S4I+ku6vbY36wxSUAAAgAElEQVQjT7r4eVS2TB8n1jcr9pl+ke57KQu2XKpP6YKC8hrfizyCMJek+LXlUTeRG+MrFmE823dzvpl4NTeRw3SFI2ZF2ff2Z/3hdqJrkJDNzgggCnaGtlvDiILd8sU6BCDQMYGLLhI55xwR8xv7mxQeS9OTfbpj2hOXIm7Ud9YikZPbhSjYXvCaZrC5DoPdGA9EweROATjcYwIpi4LXn3+p3Pj2X7NioPk12/qcMW+4ttXn9aWKgqYtR28w+jdbixvfXvxM2GolClqBy90Yzn7d/U13czYUsrq56e2Xa+6byDXsKqKdF08LmVl/sfYmspdO39T2+5m1N9h7fK5aJ9cQBROtbUTBRCsOtyEAAZGdO0UuuSQjYX7Ntv6bFK7j9m694a5wr3z1O2u9cm0BziAKLl4UXJfBbmwgjii4gIMSExDICaQkCprz3l++/d25CPjuqAg4T3jsfJPCvs5FwRUcLRWBz4hdpSrY3qNJN7UnhbfPaUkxh91fXBLE3meDKNj7Koo7iCgY58JeCECghwSMyHfppZlj5jcmAjaF97BIuNRvAoiC84uCDIZLhoiC/T7e8S4tAimJgkagu+Vt77KPC5vfmGA3b3jMZt/3DVEULD6EUbzKxT0+O8XxNemm9qTwKbJaXlREweWxXl1OiIKrYz9XzoiCc+EjMQQgsGwCO3Zkjwub39jfpPBYGvZBoIYAomApaM0zuJx3sDsp/Ty+LTMtomDNgcZuCMxAIDVRcJnnmlTyGqQoOENbtje5m25qT7opPkuepIFABwQQBTuAugyTiILLoEweEIAABCCQIgFEwcWIgqkMULv2E1EwxbMAPveVAKJg+udnREF1dE26qT0pXJliFQKrIoAouCryc+aLKDgnQJJDAAIQgMBgCSAKpj/o7From8Y+ouBgTxUUbAUEEAXTPz8jCq7gwCFLCHRIAFGwQ7hdmkYU7JIutiEAAQhAIGUCiILpDzqnEe26josomPLZAN/7RgBRMP3zM6Jg344q/IHAfAQQBefjt7LUiIIrQ0/GEIDAIghsb8rGxqZsL8IWNiAQEEAUTH/Q2bXQN419RMHgAGMTAnMQQBRM//yMKDjHAUBSCPSQAKJgDyuljUuIgm0oEQcCEFgIASPgjTZkc6KCty2bGyMZb7XIdVWiYOuyVMuwNR7JKP8q3YaFYb7IVu5zYea3FYNqFuxZEAFEwfQHndOIdl3HRRRc0IGJGQiICKJg+udnREEOZQgMiwCiYKL1iSiYaMXhNgQGTSABUXBW/ltjGamZjVvjsXjapwlHCZyV7sLT9UkU3HPgqJgB1L/5g5vkP13+BZYEGfzyB/+LrcOFN9QeGzx95lW54o4neuwhrqVK4P/50y/a48mcF1nSZfDp2+5PtQniNwQgEBBAFAyApLKJKJhKTeEnBFZNIBPq3Cy2TLcyM9zGsrm5Ucx8K/WsLGycz4rT8TMRrC6tn89oFIhmIrKt8tsYj/3Hh42oVsy602nD/MyMRZWXEurEs1E3Wy+zVwp6of2adIEoWKlVRMEKklXu6JMoeOz4s2IGTyzpM1hlm1523oiCyya+Pvnd9rePcD4cwDXB3PDiDwIQGAYBRMFE6xFRMNGKw20ILJtAVKwyQthIskdgrVonG4WIF4RZf7WQ5odboa8Q5hpmCgaP7dpHcV268FFiz+dIfsXjuSq/wL7YbS0uOvC6LGZfxL7zyyXJf93jwwU3He75rANYXwWBPomCqyg/eUJgXgKIgvMSJD0EIAABCEAgDQKIgmnUU8VLRMEKEnZAAAIxAlYcGwWPtobCmBHX3DsDwzBjVO/T67mgWIhoSqQLfQlFMy0EmrBilmD+jr7CZpCfiVuEZbMPrUgX2pc6XwJ7XtnC8oSFMNuZ3cpMyEr+sbTsWxYBRMFlkSafoRJAFBxqzVIuCEAAAhCAgE8AUdDnkcwWomAyVYWjEOgHgVx4qz4ObNzrgShYPr8c8ApEvBpR0M5Y9Gx0JQpm7plZg96MQUTBoN5Wu4kouFr+5J4+AUTB9OuQEkAAAhCAAATaEEAUbEOph3EQBXtYKbgEgZ4TMMJZJmQZoU2JWlYwdI/aBiKcLZPep9erM+uMWOZpc45J8Hhv5fHh2q8bB/nViILZ48JutqOZ3GhmH7oyOSfMb2Av3NYzGFUyw64sV0RwRBRUtFa/iii4+jrAg7QJIAqmXX94DwEIQAACEGhLAFGwLamexUMU7FmF4A4EekrAzqArHs11IlkmjDV9aKT8EIcpmBbS9HpVFCw/9uHyKsFoX8ZbWzJWjwGX6fLHhwsFLsivThS0burHkJVAWLoQlCUsW6Q8RVrjR+6bFlRdOKKgI9GLX0TBXlQDTiRMAFEw4crDdQhAAAIQgMAUBBAFp4DVp6iIgn2qDXyBQGoEAqEtNffxFwITCCAKTgBEMAQmEEAUnACIYAhAAAIQgMBACCAKJlqRiIKJVhxuQ6AXBBAFe1ENONEZAUTBztBieE0IIAquSUVTTAhAAAIQWHsCiIKJNgFEwUQrDrchAAEIQKBzAoiCnSMmg4ETQBQceAVTPAhAAAIQgEBOAFEw0aaAKJhoxeE2BCAAAQh0TgBRsHPEZDBwAoiCA69gigcBCEAAAhDICSAKJtoUEAUTrTjchgAEIACBzgkgCnaOmAwGTgBRcOAVTPEgAAEIQAACOQFEwUSbAqJgohWH2xCAAAQg0DkBRMHOEZPBwAkgCg68gikeBCAAAQhAICeAKJhoU0AUTLTicBsCEIAABDongCjYOWIyGDgBRMGBVzDFgwAEIAABCOQEEAUTbQqIgolWHG5DAAIQgEDnBBAFO0dMBgMngCg48AqmeBCAAAQgAIGcAKJgok0BUTDRisNtCEAAAhDonACiYOeIyWDgBBAFB17BFA8CEIAABCCQE0AUTLQpIAomWnG4DQEIQAACnRNAFOwcMRkMnACi4MArmOJBAAIQgAAEcgKIgok2BUTBRCsOtyEAAQhAoHMCiIKdIyaDgRNAFBx4BVM8CEAAAhCAQE4AUTDRpoAomGjF4TYEIAABCHROAFGwc8RkMHACiIIDr2CKBwEIQAACEMgJIAom2hQQBROtONyGAAQgAIHOCSAKdo6YDPpEYHtTNkYjGY02ZHN7MY6tXBQ0ZdrYlAUVR0HZkvFoLFtqD6sQgAAEIACBdSaAKJho7SMKJlpxuA0BCEAAAp0TQBTsHDEZ9IjA1ngk4wWrXN2IgkaQaylcIgr2qIXhCgQgAAEIDJkAomCitYsomGjF4TYEIAABCHROAFGwc8Rk0BsC27K5kYooOAU0RMEpYBEVAhCAAAQgMDsBRMHZ2a00JaLgSvGTOQQgAAEI9JgAomCPKydp17JHTzc3N2RUPK6biXJ2O3zcdWucxzOP9rpHVjMb47HZV4p5ZrZfZjP/dbaiNhxElbfxx6aJ2xfPTpmvSLxMv7MR+OGyNL/F48p5HG+aYmgvzKt+puB2wXUkG+Ox//iw579jKWK4bahnpq0N5080TeZfMbHSixP6OpayrnWYhsE6BCAAAQhAIG0CiIKJ1h+iYKIVh9sQgAAEINA5AUTBzhGvaQZGUCpFKCdiZRpUMGMvnOlmxCcb0bdhQXpxTXgunHn7xShguQ2NP8jXinylj4V9Z9PssKKeE9Z8f1yZfummV+WKO77WYhaiyV8Lfb69al46riqH9akMsyKpE0abOBgmLp4oX2rTGP/ysgd5Vn1VHG1cx0z5zSoEIAABCEAgcQKIgolWIKJgohWH2xCAAAQg0DkBRMHOEa9pBkpQMgQ8QcpobRvlrDUTZmcTqhmAaiZfMVPN2PEELJNHLo7V2tD4Y6JgIF4ZO272nE2q08TL9OAZIwo+4ZdJZRvObCzNB/a0UGcFy6xsTnw0jOxMv9BHzaSRg+LVKo3yL8zT+upmBKp4BbNStFQoWIUABCAAAQgkTQBRMNHqQxRMtOJwGwIQgAAEOieAKNg54jXNIBCKjKhUzFKLiIKlUqZ4BTZsiNlXiofF47AV0UqZKVa1wGd2Vu1bAc7zRacJ4udlahQFvXJrW7H8TbgT00xebr0oQLYSljUU+Dz//bTuEeKKKBtNU5Z3Ki6euOnnzxYEIAABCEAgZQKIgonW3rqJgo89dcresf7MPceEBQa0AdoAbYA20NQGPva1w3Lx1qNcLzq4Zl5z1xE59NSpRHtP87pdCkrWkieOBaKgEbWiAlhgwxjaGpczDLWLtTa8SMEjvhH7oR3jt3uENhQR8zJNFAWd4GZtu9l1tjDeI9bZuwzdzEXjW40oGPhYeXy4Lp3J0qTdGMu4EB/dI9KxvBSfIM+qr+rxYY+Z5s86BCAAAQhAIG0CiIKJ1t+6iYKmmp5+7mU5/txpFhjQBmgDtAHaQGMbePjYKfnkN481xuF6Mtv19BsHfiRf2ft0or2ned1WgpIx1SQKunA1A7B8p6ATyXJ/cmFNP27sNLdMqCpnEfqPAZv0k2bq5XlYUcvZ0WJZvEyNomCeZ+bvWMxHUwp/c5Ex/oGOBlHQ6njuAy7G3paM1SzMZg4ZAz1r05baK/NIvdNR8ffiVLnEy5Ez5QcCEIAABCAwAAKIgolW4jqKgolWFW5DAAIQgMCSCfD4cHfAv/vEs/I3+9ZVFOyGq3v8tbBuhKpSZSt2L3PldP5OwdZ5XnSRyDnniFz0v5cf8tCJbfg/kl2j/07Ux4LLGEX6i8p9em3p4YFYOil/7SvrEIAABCAAgYQIIAomVFnaVURBTYN1CEAAAutL4NVXX5Vpl/94438/dRqTRyp/iILd1RSiYAdsKzMF1Uy2DrJrY3IqUXDnTpFLLsnMXvLLcvXoDeJ9SMWE//Lr7IdXLt34ZRGzrf+89Jf0JFyJgpP802VhHQIQgAAEIJAYAUTBxCrMuYso6EjwCwEIQGC9CcwiCL7v6z8mswiDqZBGFOyuphAFu2PbJ8uNoqARyS69NHPX/MZEviGH96mi8AUCEIAABCAwJwFEwTkBrio5ouCqyJMvBCAAgX4RmEYUNEKgEQQ//vibZcedG1MLg/0qeb03iIL1bOYNQRScl2Aa6RtFQVOEHTuyx4XNb+xv6OGxMrMPAhCAAAQgkCABRMEEK824jCiYaMXhNgQgAIEFE2grCjpBcOcT58jV33+TXHnwp+W9X/sfpxIGF+x6Z+YQBTtDK4iC3bHtk+WJomCfnMUXCEAAAhCAAARmJoAoODO61SZEFFwtf3KHAAQg0BcCbURBIwg6UfBjj/8zuerQz8ifPvbGQhQ0YW3s9KXMk/xAFJxEaPZwRMHZ2aWUElEwpdrCVwhAAAIQgMDsBBAFZ2e30pSIgivFT+YQ6BkB9UL0nnmGO90TaCPmuThG/Lv60M/KFY/9pFz+vZ+YapagsZHKH6JgdzWFKNgd2z5ZRhTsU23gCwQgAAEIQKA7AoiC3bHt1DKiYKd4MQ6BxAggCiZWYQt11wl+bX6NKGgeG/6TR39CPnrgxxEFF1oT62EMUXBbNjdW/3XghbQ289XjjU3ZjhhbH1FwS8Y1DCJY2AUBCEAAAhAYHAFEwUSrFFEw0YrDbQh0QgBRsBOsiRhtIwa6OEYUNI8NX/69fyoffQRRMJEq7pWbay8Kbo1lNN7qVZ3M7IwWBc36aEM2c4WwKgoaMXQkSRbdK1u1HFvjRMs1c8WTEAIQgAAEIFASQBQsWSS1hiiYVHXhLAQWRmB7c0NGo1G+uNkqgShoBq1FHD3YyeJtKhveAM9L52wvzHUMdUTACX5tfo0oaB4bNrMEP/rIP2GmYEd1MmSz6y4KDkpA0qJg0GgHJQp6ZauKgjIkodcrKxsQgAAEIACByQQQBScz6mUMRMFeVgtOQaBbAna2Q0ysU6KgNyNCRLw0Jt5INvKpIFZgdI9NhYNDBknd1uUCrYdioBH+wn1u24RlguCPy+UTRMGYnQW63akp3inYHd71FgXNObScTSeSnXvH4+xGjb3JUntzJYtb3pQxdjKByt7EcediV3WenezmjhEk3fnbRLPncHdnx4sfu05khvWNpY3xWD0+nPmXzYHckl8ajeUf/6wrl/LT3nAay44mX1wZnI/FTSrll+dv082rOk7T8HRlq5bDlte7TirnWYUABCAAAQisAQFEwUQrGVEw0YrDbQjMQ8AMotwA0LPjBjwi1RkPelaEimfSayEwGKBFB6lenmz0hYAT/MyvEfJiYp6LY0XBR7JZgpfvb358OGarL2We5Aei4CRCs4cjCiphy4qCSqjT51SD2Dtnm/NvGdeJc9kpXZ+n3c0cJT460crYK8RDkyaP05ivqmtrp7RrRMbSnr4+GFFwJH/v//qaTuw/Plzni0rh35RSAYEffry2nNrGM/nqsgWsrVs6XPnJKgQgAAEIQGANCCAKJlrJiIKJVhxuQ2AOAt6sEM9OOaCpxtEDoDKeTa4Hkt7g1TPORs8JaMHvoq//mLzv6z9WiINO2HO/77vrH8nHH/tfZadZHj1XLr7zH9fHveN/kvfd8Q89kbHnKAr3EAULFAtZ2bX7SfnQFw/a5X03Pyrv/csDxfZVX31C0vku9Zw4rJgVioJq25xHi1lx+WseChEvOP96olo266+YBVg5H7vzuLEREQIb81VlDu3qa4AnnGUzBd91xxMqsfPB7arxxQWb3zA/F1bZr2235dQ2nnVExiNXTzqvwqGSq9vFLwQgAAEIQGBNCCAKJlrRiIKJVhxuQ2AeApUBqTOmBkc2TjkTxA7KisGQimeS6gFhmM6Z5rf3BNwMwYvu+jG59sgvyHVHflGuPfzzsvOJn5Orv/+zcuXBn5I/efSfykcP/BNPELzm0XPl2kffIlc88lNy5SM/JVc/8tPysf0/Kx/f/ybZuf+fybUPv1mue/jn5OI7MpHR5JPKH6LgYmtq39Hn5bzr9kaXLz14fLGZ9dpacA71hLQGEcyWKUhrhLFCMPRFwaabO+4RYhOnXkSsgRiKcfoa4JWljShY+uz5orKuliMLrO7XQl1bTm3jmTx1XJ2Xc1aHu338QgACEIAABNaDAKJgovWMKJhoxeE2BOYkYAdTxUwUN/MhGNCYgV8RRwmE3sAoEAWNX166Uc2jynMWgOQLJ2BmAe646x/KNYd/3gqC1x35Bbnm8DnyscffJFcd+mn508d+Qi7/XvbIsJ0l+Oi54gTB6x59qxUEr7KC4M/Ix6wg+Ca5JhcEr3/4HPnEwz8v77/jf7YzBhfufEcGEQUXD/b3bz1YEQV//c/2y0uvpCMWz0/FnGsnnFO9cJ1j5DxdIwpmj9OqfOy5OT/fWyFvLGP36LDJou1NnSBe8+PDY/FnCppLhH73n7uGBL7oItv83HVKBQR+NN68MmWPcpqCZ3Dti5ajuHmm/GQVAhCAAAQgsAYEEAUTrWREwUQrDrchAAEILJiAmyloHhs2gqCZJfjxx98sVx36GbnisTfK5d/LZgmarw27x4avefQtcu2jb5XrH32bXGVnCRpBMJsleI2dJfhzcv3DP5cLgswUXHCVJWkuNltwvWYJZtXmC0qBMGWi1N5cCeLWil158/DsKIFQspluWiizKbz49Td19I2l8daWjAvBTfsXmymoy+aEvhpf8iKYH53fSAtvnr+6fNqPPM/Cx3J2oj/7ryme8SJi0944y8thfIm+r1cVhFUIQAACEIDAQAkgCiZasYiCiVYcbkMAAhBYMAH9TkEjDF50V/YeQPceQf1r3iFYzhJ8m7z/zjfUvlPQPDb8fvXoMI8PL7jiEjSnZwuu3yzBvMLWREA6feZVucJ7p2C8wfoiaTxO3/cOoQx9Z4x/EIAABCDQXwKIgv2tm0bPEAUb8RAIAQhAYG0IOFHQzRg0IqDep9dN2J8+8ka54pGflCsf+UnvIyI6Xp2tlKCeWaenWpdUMXq24DrOEswwB7POlsR+2dm0EgXrHg9etrNz5bce9TkXIhJDAAIQgMCgCSAKJlq9iIKJVhxuQwACEFgwgZiYF+5z25komAmC5rHhSQKiS+d+F+w65hIkYGYLru0swQTra1aXW4mCsxonHQQgAAEIQAACvSGAKNibqpjOEUTB6XgRGwIQgMBQCTjBrs2vEQGzWYI/JVft/+lGUTBmr+8Mb7x7W/74pm+zdMjgd//Ld+R3/ux+GHfIuG0b/syX75djx5/t5LBEFOwEK0YhAAEIQAACvSOAKNi7KmnnEKJgO07EggAEIDB0Av8/e2/+NMlxHuh9/4t/aPtHh61QhFYbgbAoCQrR6g076Ng1sBuyQgxZsrRBkTA/YLEGLK0sinYIJChSBAWSGFC8NAT5gSBIgiAAHjiJwYBDAIMPwAAYYO77vq/X8WZVVmVlZ/VZXZVZ/UxETVVXXm8+2VVd9XxZ3SF5V7dPpaA+Nqy/Nvy5N/onBf/93z0sv/XRL7Esm8HHHoDxshlPWf+OXQeWcopDCi4FK5VCAAIQgAAEoiOAFIxuSKYLCCk4HSdyQQACEOg7gToBGNqvUlAfG9ZZgv/4xm/0bqagSsGb79wqt9y/kwUGvX8PqABHCvb9DE//IAABCEAAAsslgBRcLt+l1Y4UXBpaKoYABCCQFIGQ/Kvbp1Lwc2aW4G/I59/4V0hBxFnvxVmfBTFSMKlTNcFCAAIQgAAEoiSAFIxyWCYHhRSczIgcEIAABFaBQJ0AdPerDNRl/amBfM7MEvxXct8bvyl3PPnfmP2a5uav246dJzMFmSHZZwno9w0pGPsZifggAAEIQAAC8RNACsY/RsEIkYJBLOyEAAQgsHIE6gSev1/F3+1PDcxjw59/4zflC2/8pvynXAr6eetexw4XKYgU9MVZn18jBWM/IxEfBCAAAQhAIH4CSMH4xygYIVIwiIWdEIAABFaOQJ3AC+1XMXjHk/+13PfGv55ZCGp9sf9DCiIF+ywB/b4hBWM/IxEfBCAAAQhAIH4CSMH4xygYIVIwiIWdEIAABFaOQEj+jduXicHsseFx+UJpscNFCiIFfXHW59dIwdjPSMQHAQhAAAIQiJ8AUjD+MQpGiBQMYmEnBCAAgZUjEJJ3k/ZN+x2Cfj2xw0UKIgX7LAH9viEFYz8jER8EIAABCEAgfgJIwfjHKBghUjCIhZ0QgAAEILDCBJCCSEFfnPX5NVJwhU92dB0CEIAABCDQEAGkYEMg264GKdg2cdqDAAQgAIHYCSAFkYJ9loB+35CCsZ+RiA8CEIAABCAQPwGkYPxjFIwQKRjEwk4IQAACEFhhAkhBpKAvzvr8Gim4wic7ug4BCEAAAhBoiABSsCGQbVeDFGybOO1BAAIQgEDsBJKQgo+fFjl5VG67PxaBt0e2ici2x2OJp4s4dskjJ0X279glKUlEpGDsZyTigwAEIAABCMRPACkY/xgFI0QKBrGwEwIQgAAEVphAl1Lwnt0yhezL5FNsAu62HZdEdu/pQIhlPMq37Gm5JyBLDVu5JI9sXZYw7K8UfP3A+RLvDFtXr9+Qzzy5d4YSZIUABCAAAQhAIEUCSMEUR01EkIKJDhxhQwACEIDA0ghELwW3HpX9UhVfRsh1PXMwEFcbM+Z8kZrJP5dPNosxe8MgBf0xGTdT8JW95+Tu774rf7xlc67jDSk4FzYKQQACEIAABJIjgBRMbsiygJGCiQ4cYUMAAhCAwNIIdCkFfWETeh0SgKF9obLL3dfBI8RGRHqiz+wrH2UupGEob2BG4fyM+jNTUGcGqgy0LJCCSzvdUDEEIAABCECgFwSQgokOI1Iw0YEjbAhAAAIrTuDKtRty+er1pSy3/t135eY7txZCxIqR6dburDT/UWD72G/1cVf3O+iMwJrwCG41T7Uu87YoZgz6ae7sOX2EdvZYzSPL+n2G9l/RVvZIrsbm9ifEzAhMW774HsLJbEJ13WJi8fuV1TUSx9RS0MZS8ikf1R7H1G93XN5J/HdKmJOWm1RvNhZBXgEJ6s4UVBn4N4/uHnnvqxSc53g7f/ma3PvEHme02YQABCAAAQhAoI8EkIKJjipSMNGBI2wIQAACK0zgpd1n5E/++Q35j19/cynL/3rfL+V37nxoRIxMliwqa9xZa5lUKuVUKXMKyRSa1TZWCmZ1lHVmAmh0pmDellNXNc+0sZb9MTJS33eFCPT7t1OqwjIgp2rF3GQ2If6ZOFuOFJSR7x+chqmVotPkLdlaQVuM6yROteMaYB4QgS5LKwUf2n6k9j3/h19+XT771N6Zl394cq9sfenwCp+t6DoEIAABCEBgNQggBRMdZ6RgogNH2BCAAARWmMBXXzgoX3pmv1y9dmMpy79faKZgVcpUZ85loqgQP7mscUWau+2Km3J7VMRpWlX47ZRbglJJy7oiasZYA7Py/HhH4vCFVC5BfQZ29pu/36+/5JDFvkwp6Mcymakzvovyr+M0R70+M/+1lYJ6Shk3U3CFTzl0HQIQgAAEIACBCQSQghMAxZqMFIx1ZIgLAhCAAATqCKgUfODZA3XJC+9f6DsF3Udr80hKueRII0eWueLL3c6EV9mdbHbhLFKwLFtuOVJw1lhnlILh+K2wzCMqZrxNZhOsLxBTnWAMSb1gnfnjueW45fI0F3UlS7tlmTp9mJh3p2SPPts6snWlTbcOy8ndVylqY6iKXl8Ahl67UtBW2dR3Ctr6WEMAAhCAAAQg0G8CSMFExxcpmOjAETYEIACBFSYQrRTMhU3xaPD92eO0pehxpFEhBbN9kksfVwqGBE6d8DJyq3is14q3MaJonlgDAs6P138d7oMVVy4Pd7uabtkE6zL98PoZ6JspG8pbjINtU9ehWKZg6pab1FYgRmVXvldq4plUb7A/bl2j2yEpaE8vi/76sK2HNQQgAAEIQAAC/SaAFEx0fJGCiQ4cYUMAAhBYYQJxS0FHUOXipxQ9uQB0H+E1oq0sM41UC+XJZry5362Xt2VnmPmyyJdLNbGWsduZbW4b/ncITmjTj8GVaPl25Xv8PDZBKWjLOf00fFxBatv1+61CdMYAACAASURBVGz3j6xrpGCgrWpMbrkJLPxYRvi78m6Gekf64tYT3h4nBe1pRmcO8g8CEIAABCAAAQjUEUAK1pGJfD9SMPIBIjwIQAACEBghEK0UtN/tZyM+eVTu2XHJmf1l5c5R2WbzFL++mwmbkPCriqfA9wcaEZQ9VmyqLYRYLqactkRKqVd5dLY21l3lj09MnCmYxeDOlPRjH3lk1ot1/456NiN1FQLM6bv2tagzY1rpp8OiPk47Tk7fi7bGMfXLjcvr/bqwz9+wdoKt9Gl8vfWc5peCTiRsQgACEIAABCAAgRECSMERJGnsQAqmMU5ECQEIQAACJYGYpaAvZB7+vQ/LzsGvia5Dj6VW0/2Zd2GJk303Xin3/DY7e21mu80eV8bg1+XNj97hCNSavhdyjvSmxnmamYLl0ccWBCAAAQhAAAIQGCWAFBxlksQepGASw0SQEIAABCDgEEhFCn7x1rvloQ/+qZlpp+sv3vrX8sjJ8nvjJqXXS59splj9TLduhJmZkec8xlsffxlfyWCXbH78Ljn5n/+6nJmIAGyFBVLQObmwCQEIQAACEIDAXASQgnNh674QUrD7MSACCEAAAhCYjUCsUvAHH/gP8r3f+UMjch79nT8Ufe2KsR984A9l159/zMyGG0nXx0U/8hGRj/2F3HP/ThlJ9wWZ5q88UlqKNrfN9raneHT4/p2GSZhRJjrP3vKHYxm215+uebbXPlJwtvMPuSEAAQhAAAIQGCWAFBxlksQepGASw0SQEIAABCDgEIhVCqqw+vz/9rey+V/9t2YdEliLpofqTG0fDNoTftO8N5CCzsmFTQhAAAIQgAAE5iKAFJwLW/eFkILdjwERQAACEIDAbARiloLTSBjyxCXFVn08kIKznX/IDQEIQAACEIDAKAGk4CiTJPYgBZMYJoKEAAQgAAGHAFIQqbbqIq/J/iMFnZMLmxCAAAQgAAEIzEUAKTgXtu4LIQW7HwMigAAEIACB2QggBZGCTUqxVa8LKTjb+YfcEIAABCAAAQiMEkAKjjJJYg9SMIlhIkgIQAACEHAIIAWRgqsu8prsP1LQObmwCQEIQAACEIDAXASQgnNh674QUrD7MSACCEAAAhCYjQBSECnYpBRb9bqQgrOdf8gNAQhAAAIQgMAoAaTgKJMk9iAFkxgmgoQABCAAAYcAUhApuOoir8n+IwWdkwubEIAABCAAAQjMRQApOBe27gshBbsfAyKAAAQgAIHZCCxbCv75vY+KihKWdhn8zu1fkw/ctgXuHbz3duw6MNtBSG4IQAACEIAABCDgEEAKOjBS2kQKpjRaxAoBCEAAAkpg2VJw177jopKEpV0GX3jyXfnhy3vh3sF77+yFy5xcIAABCEAAAhCAwNwEkIJzo+u2IFKwW/60DgEIQAACsxNYthScPSJKNEHge786KrsOX2iiKuqAAAQgAAEIQAACEGiRAFKwRdhNNoUUbJImdUEAAhCAQBsEkIJtUG6/DaRg+8xpEQIQgAAEIAABCDRBACnYBMUO6kAKdgCdJiEAAQhAYCECSMGF8EVb+JEdR+Wtw+ejjY/AIAABCEAAAhCAAATCBJCCYS7R70UKRj9EBAgBCEAAAh4BpKAHpCcvmSnYk4GkGxCAAAQgAAEIrBwBpGCiQ44UTHTgCBsCEIDAChNACvZz8JGC/RxXegUBCEAAAhCAQP8JIAUTHWOkYKIDR9gQgAAEVpgAUrCfg//oK8fkLX5opJ+DS68gAAEIQAACEOg1AaRgosOLFEx04AgbAhCAwAoTQAr2c/CRgv0cV3oFAQhAAAIQgED/CSAFEx1jpGCiA0fYEIAABFaYAFKwn4P/6K+OypuH+KGRfo4uvYIABCAAAQhAoM8EkIKJji5SMNGBI2wIQAACK0wAKdjPwdeZgm8cRAr2c3TpFQQgAAEIQAACfSaAFEx0dJGCiQ4cYUMAAhBYYQJIwX4OPlKwn+NKryAAAQhAAAIQ6D8BpGCiY4wUTHTgCBsCEIDAChNACs46+BsyXBvK+vpA1tbWZG1tIOubm7I+0O01WRusy6Zb5cYwz6fpQ9kwaVkdw2FWZpjtlI38dVavU1ewDreR0e3vv3KMx4dHsbAHAhCAAAQgAAEIRE8AKRj9EIUDRAqGubAXAhCAAATiJYAUnHVsVOityWA9U3+buRzMxF4mB63kk811GbiSUOWeSazWYSKo5NV0lY0i9XWMj/sHr/L48HhCpEIAAhCAAAQgAIE4CSAF4xyXiVEhBSciIgMEIAABCERGACk464Bks/zyyX0iKvoc8aeS0ApDk2ZmE+azCIuZhF4dGkKdFKzMEqyZjRjoAlIwAIVdEIAABCAAAQhAIAECSMEEBikUIlIwRIV9EIAABCAQMwGk4Kyj4wm9SVKwmDbotuPVYZJ0XykPK2IxWIdb3+j2D145JpsHz40msAcCEIAABCAAAQhAIGoCSMGoh6c+OKRgPRtSIAABCEAgTgJIwVnHxRN646Sgzv6zjwFXmvHq0LSNYTnD0M1bW4ebaXQbKTjKhD0QgAAEIAABCEAgBQJIwRRGKRAjUjAAhV0QgAAEIBA1AaTgrMPjCb1xUlCr9h//Lb5T0P7oSN6+kX/lTEH9sZFigmCwjvFx6+PDmwfPj89EKgQgAAEIQAACEIBAdASQgtENyXQBIQWn40QuCEAAAhCIhwBSMI6x0F8eLh4Z1pBUBBZWcPYYf/jacdk8wOPDs5OjBAQgAAEIQAACEOiWAFKwW/5zt44UnBsdBSEAAQhAoCMCSMGOwPvNjswU9GYS+vknvEYKTgBEMgQgAAEIQAACEIiUAFIw0oGZFBZScBIh0iEAAQhAIDYCSMHYRqSZeH746jF5nZmCzcCkFghAAAIQgAAEINAiAaRgi7CbbAop2CRN6oIABCAAgTYIIAXboNx+G4+9dlxeP8B3CrZPnhYhAAEIQAACEIDAYgSQgovx66w0UrAz9DQMAQhAAAJzEkAKzgku8mJIwcgHiPAgAAEIQAACEIBADQGkYA2Y2HcjBWMfIeKDAAQgAAGfAFLQJ9KP1z967bjs5PHhfgwmvYAABCAAAQhAYKUIIAUTHW6kYKIDR9gQgAAEVpgAUrCfg48U7Oe40isIQAACEIAABPpPACmY6BgjBRMdOMKGAAQgsMIEkIL9GPwbIuY7BPV7BHV58LmD8oNXsu8V1NfvHL3Yj47SCwhAAAIQgAAEINBzAkjBRAcYKZjowBE2BCAAgRUmgBTsz+D//eN75Jb7dwaXh7Yf6U9H6QkEIAABCEAAAhDoMQGkYKKDixRMdOAIGwIQgMAKE0AK9mfwdx+7GBSCH35wU85fvt6fjtITCEAAAhCAAAQg0GMCSMFEBxcpmOjAETYEIACBFSaAFOzX4IdmCzJLsF9jTG8gAAEIQAACEOg3gaAU3Nh4pN+97kHvkII9GES6AAEIQGDFCCAF+zXguw5fqMwWZJZgv8aX3kAAAhCAAAQg0H8CX//GVvnIR/6jfPvbD8lrr70qa/pCTSH/4iaAFIx7fIgOAhCAAARGCSAFR5mkvue/fG93IQaZJZj6aBI/BCAAAQhAAAKrRiA4UxApGP/bACkY/xgRIQQgAAEIVAkgBas8+vBKf21Yf3CEWYJ9GE36AIHlE/jWzzfl77/9C5aEGXzxB9tlx64Dy3+z0AIEINAKAaRgK5ibbwQp2DxTaoQABCAAgeUSQAoul29XtetsQWYJdkWfdiGQFoFbP7EhH7jtAbn5zq0siTL4rY9+SbY89nJabzyihQAEagkgBWvRxJ2AFIx7fIgOAhCAAARGCayiFNTZFHoD1efl5jv/RT5w24O97qOOH/8CBDbXZTBYl81A0vS7NmS4NpSN6QtEnnNT1gdrsra2JsP+dKox5ioFVQjqDGOWNBkgBRs7HKgIAlEQQApGMQyzB4EUnJ0ZJSAAAQhAoFsCqygFt7+ZScF/88kn5UOffp4lQQa3fPL7Rnh2e/RE2nrUUrCUcyrozFKxdPXpG8M1Gaz7qnNGebkxNG2O1jM6ltqejTHLr22V+2yaritdGK0q+j1IwTRFoCtwkYLRH2YECIGZCCAFZ8IVT2akYDxjQSQQgAAEIDAdgVWWgioE3ZsqttO5Mf6jzzyFFKw7xKOXggMp3V4uAYuZjfraTXc6qUKvyJfv132zGrlpxKDX1sbQmzU5T7tOV2LbRAqmc+6r+5xCCsZ2VBEPBBYjgBRcjF9npZGCnaGnYQhAAAIQmJMAUjD9m8G6m8Q+70cKVg/4zfVBOattOKw+PpxLsGxmmyu3sll2607Z0q95M/AqdZQz4/zZeyYOU0km+0Zn5IWkXzYDL2s7lG77qvlcYZi1UcZs802xzvszGl9eVtN9AelWq+lzNexWEs82UjD9zwGkYDzHE5FAoAkCSMEmKHZQB1KwA+g0CQEIQAACCxFACqZ/M9hn+VfXN6Sgc9jrzEBHlpnHXq3Q8mcNVmRWJuMKMWbqsdLQkYJe/eLmq8izcULPxhvOU8rFTPSVj+a6ElCkzCdSicNWX6yzvpX1hB/7Nek1cs9wXAs9siwaCFKQ7x+MaqY5UrA4+NmAQC8IIAUTHUakYKIDR9gQgAAEVpgAUhApWCfeYt6PFHROWr6gckWgpvnfg2eFoTjiz1TnCjsnza9fMnGXuTTNl4s7t10nvOqm20aZogIuqy+cXuR02ihnJRap028YsVkj/Cq1ZH1d8390ZYRJpVByL5gpmP7nAFIwucOOgCEwlgBScCyeeBORgvGODZFBAAIQgECYAFIw/ZvBmOXdsmJDCjrHsy+oHHE2fkabI/5Mda6QK9NG5VsmyuwEO03X2YZ27UQW2HTbsMmOWDTCsTo70ObK1rbtUD3VnLWvclFazJCszVgmVGYo6m6feZk1yS2kYPqfA0jBJA89goZALQGkYC2auBOQgnGPD9FBAAIQgMAoAaRg+jeDyxJvMdeLFHSOZTPrrRRp5rFXOxvQS3NKqdkyv6ZbyDEjy6Z4fLiSL3+MdzCUYd0PhFQaHZV5lXgnSkF9angga4NB9XsTK22MeTGlENQ2rPSUyszIvG6kYFSPzsZ8rmorNqTgmOOeJAgkSAApmOCgachIwUQHjrAhAAEIrDABpCBSsK2b1ibbQQpWT1pGlOWPCQ83NmRopaBmy0VY8RhxYbuy2YCz/9BIKSCzKLLZe9Uf5sj2FcKxCDfP6z7SXMSjmSal2+8SnObR36JRs2Hk45p9TLmaNvoqE6aW2Ug/kIJIwci+UxEpOHoUswcCKRNACiY6ekjBRAeOsCEAAQisMAGkIFKwSVnXVl1IwSZOWpkU3GigKhVuFbc3S5133CFy000iug79m5QeKsO+mQjw+HD6nwNIwZne8mSGQPQEkILRD1E4QKRgmAt7IQABCEAgXgJIwfRvBtsScTG1gxRs4pzSkBQ0jyjbx45njOu++0TuuisrpGt97f6blO7mZXtuAkjB9D8HkIJzv/0pCIEoCSAFoxyWyUEhBSczIgcEIAABCMRFACmY/s1gTLKurViQgnGdR6aORiXf3Xdn2XUdkoCLpE8dyOplfHXfudpO90cK7pFtbi9375Fb7t8lj5x0d3rbJk/6nwNIQW9ceQmBxAkgBRMdQKRgogNH2BCAAARWmABSMP2bwbZEXEztIAUTPmndfnv2uLCuQ/8WTQ/VyT7zHYD/18Y78uLuM3LjRhVIP6RgJgT379hVfN/hPbsvySNb3XN8JgjdPDGd1xaJBSlYfU/zCgKpE0AKJjqCSMFEB46wIQABCKwwAaSge8PI9iI3pW2WRQqu8EmLrs9FwD0+b9u6S3765km5dj2zg72QgluPyn7xJaB/TkcKzvXmoRAEINA6AaRg68ibaRAp2AxHaoEABCAAgfYIIAX9m8Z+vb5txyWRk0fltsh+KdMVFPNsIwXbO0fQUvsEdCaf+jqVdld1uXZDruTLpavXRZeLV67LhXw5d+ma6HL20jU5c/GanL5wVU7ly4nzV+TE+avF7Dn3ePuLr78pP3z1uNz6iYfl5ju3BvO4+ePezh8dHvs4MFKw/XczLS6VgH6nq/tr80ttjMrbJIAUbJN2g20hBRuESVUQgAAEINAKAaRgvySgf9OOFGzlMJrYyPUbN0QXI3lyuXP56nXR5dLVGxXBc/7yNTl/+XpF8Jy+eM1InpPnr4oux89dMcuxs1fkaL4cPnNZdDl0OlsOnr4s+09eMsveE5dk38lLsuf4RbO8f/yivHcsW949ekF0eefoRXn7yAXZdfiCvHX4vLx1+IK8cfC8WTYPnpfXD5yT1w+cl537z8lr+fLKvrPyyr5z8qu9Z2WHLnvOysvvnzHL9vfPyEvvnZFtu0/Li/nyi3dPiy7Pv3PKLM+9c1qe3XVKnn37lDy966Q8/dZJ+flbp+Rnb56Un755Qn7yhi4n5cnNE2Z5YvOEPPH6Cfnx6yfk8Z3H5Ue6vHZcHnvtuPzwtePyg1eOyfdfOSaP/uqofO9XR+WRHdny3R1H5eFfHpENXV4+It/Jl4e2H5aHXjos33rpiGx96bBs3XZYvvniIfnmi4fl6784ZJavvXBQ9Dz51RcOyVeePyhfee6gPPjcAXnwuYOy5dmD8sAzB+TLzxyQL+ny9AG5/+f7zfJPP98vX/jZPvnCz/bL53+6zyz/+NN98rmn9spn8+Ufntwrn3lyr9z7xB759BN75FM/Lhd9rfs1XZfPPrXPlNPyWo/WeZ8upo19ou2Ztp/eL198er+JR+PS+DRO/9xgX//JV96QW+55qgdScKfcYmYL5odjUA4iBSeerIIZ9EeJ1mQtsMz2q+Obsj5wf6ncfx1sfMGdeewjgWZtu30qs4z/ESb9tXW33GB9MxBjXbuBrIvsqpWC2r+BVEML9WuaON268vwLvxcW6fRqlEUKJjrOSMFEB46wIQABCKwwAaRgP6SgkX/O+3jb49nNr7OrVzMGdabg7//VI4Xg+fb2I6LLQ9uPyLdU7uSC51+2HZZvvHhIvuELnucPyj/nSyl4DsgDz2ZLRfA8vV/+KZc7VvCojPnHn2TL536SyRoreIzkeXKvfNoVPD/eI/fmcqciePI6tK5S8KhMytq83wqepzPpZOPb8mwmpTR224+vPn9QvvaLQ6ISS4WW9ln7rgx0USbKRhlZXirHVJI9/Muj8l1ddpQy7VGVa68ckx+8mi0/fPWYkW+PvXbMCDmVcj/eedxIuidePy5PbZ6Qp4zEO2EeTVWp9zMj+U7KM7tOmUXlny7Pva1S8LS88G62qCh88d3Tsu29TCS+9N5pUan48p6z8ss9mWxU8fiKLvvOif5oxqv7zsrOA+fMorJy88A52Tx4Tt48dN4sVm6q6HwnX3YfvSi7cxmqUlTl6J4Tl8RKUxWnKlIPnLosB0+VgvXImSuiy9Ezl+XYuSuiMvb4uatmBp7OxLOz8lTenrl41QhdO3tPJe+Fy9eM+LWz/HTWnwphMwvweiaLdWag/11/leN3wRdWAtr1hx/clO9sP2Li6sXjw+5s6MdP57T8x4mRggu+jUQ2hrJW2rMZq2tDAlZD2lwfyGA4lMGa/wvpruiSrF9FnpA8y+o1QrDS/0yS+WKwvt1qfAu/WlAKThenx8oGvdB7wVbCuo4AUrCOTOT7kYKRDxDhQQACEIDACAGkYA+k4Jjv0urzTMHfuf3rZoabnfFmBE8+E07ljhU8Knl01pydQadyR2fU2Rl2VvDo7Ds7E08ljxU8+jimPpaps/es4NHHNvXxTZ3lZ2f82cc8dTagnRk4csCxAwIdEfBloL6f7b/eSUEjCPM/jFRmDCIF7ZjPvfZFkL4uZo254i0TgDZtuFF9bffrOnNsmYhbXx8U9bnuzZ+dt1Y8MpvV60u5rH9WZmV53PpEbJoloe3bmXU1UlAFXCEObblcKBbx6H5bd6hdp5ypz5l1WAQ4noWKPMvPCM9K27Z+G4N9rWu/XzbPhDiL/rh15f0uYvbSeLkwAaTgwgi7qQAp2A13WoUABCAAgfkJIAX7IgVFQr+o2WcpqL+2yT8IQGA6AnZmoCsDbcl+SsGdMnr+QwraMZ977UpBf5aam+ZuF42NyieVfZlXUmG1JlbuGfFlZVelHc1n5V1RcXjDLTcSjxVieVFNL4SfL8+cPDYmt0Uj9xwhOrZdt6C77cYzgYXTfyNLQzEZkecIx5C4nTpONzYn5hGmThqbCxNACi6MsJsKkILdcKdVCEAAAhCYnwBSsAdSUGfF1HyX1uhNcT/6yw+NzH/MU3I1CYRkoCXRByloznWVWYHZD49U/1iCFLRjPvfaFUFGpHniyQoqI8rWvEeNJ0nBGrHmyisz2206KWgejS2+VM+XiVksdsbdmiPaRmfU5bS0v7Z/LkDT1zL28e26BfWp5Sq/UpCW9Ynbf5e/VuWmVaoOibyq7Jw+zlBdzBSs4F7CC6TgEqC2USVSsA3KtAEBCEAAAk0SQAr2Q5LZRwNvub9604sUbPJooS4I9JNAH6SgngPv2V0dn6oQ1HN99fxYnjfT/xzQmdNbHnu5CmAZr1wp5W7XtaV5ikeE55SCRgSW8szOJqxrMtufzbYrpV9WvixbI7pM4ao8K9rx5F+xX/tYyMJJ7Ralsu8xLMq5bLz2XfHnM3fTnKrLR5jdnW69M8TJ48MuxNa2kYKtoW62IaRgszypDQIQgAAElk8AKZj+zWD1xrZ602ukoJyWe9wv4e/BNjMFl39uoIXVIdAXKVg9F/bt3D6+P51IQSPJJs/ac2eklY8LZ8dX+doVVt4MuI1h8Vjx1EdlRdTlpSr7xkjBOvlnH8mtfI9eJteKXZU2Qu06PXAFn2nTfZS6Zqagx3z848P+2DiMZ4kTKegMWnubSMH2WDfaElKwUZxUBgEIQAACLRBACo6/0UriJrP4pc38DXPyqNxWiL/sETqTUtmfdr+Rgi2cHGhiZQggBdM+H+rnVCdSUI8QlUvF99WVjwurCCz3O4KryJ/tm0oK5sKsrM/KMw0gm2FXzgDMDlut19+XPRZsRVlICjqz5wrL558GsvbcWMx2nn9yu259bl1DGVa+X9Fhpv0vZhTqE8Ml2+HGhgydtLL2uv6V3MfzKWsKzzrk8WGX0DK2kYLLoNpCnUjBFiDTBAQgAAEINEoAKZj+zWAS4rKQlM3wRgo2ehqgshUngBRs5rzU5bm4NSnYwbEyItrcGXazxnPHHSI33SSi69C/SemhMmZio4o6R+TV5GM3BKYlgBScllRk+ZCCkQ0I4UAAAhCAwEQCSMH0bwa7vBHtqm2k4MRDmwwQmJoAUjD9z4E+S0HzYxrubMR55dt994ncdVd2XOhaX7v/JqW7edmGwJIJIAWXDHhZ1SMFl0WWeiEAAQhAYFkEkILp3wx2Jea6bBcpuKwzAvWuIgGkYPqfA72WgvMelB/5iMjHPpaVvu02EX3t/puU7uZlGwItE0AKtgy8qeaQgk2RpB4IQAACEGiLAFIw/ZvBLuVcV20jBds6Q9DOKhBACqb/OYAUrDlSt2wR+Y3fENF16N+k9FAZ9kGgBQJIwRYgL6MJpOAyqFInBCAAAQgskwBSMP2bwa7EXJftIgWXeVag7lUjgBRM/3MAKbhqRy397TsBpGCiI4wUTHTgCBsCEIDAChNACqZ/M9ilnOuqbaTgCp+06HrjBJCC6X8OIAUbPyyoEAKdEkAKdop//saRgvOzoyQEIAABCHRDACmY/s1gV2Kuy3aRgt2cL2i1nwSQgul/DiAF+3ls0qvVJYAUTHTskYKJDhxhQwACEFhhAkjB9G8Gu5RzXbWNFFzhkxZdb5yASsHfveMb8qF7X2BJlAFSsPHDggoh0CkBpGCn+OdvHCk4PztKQgACEIBANwSQgkjBrsTeIu0iBbs5X9BqPwn85We/LyqVWNJmsOWxl/v5BqVXEFhBAkjBRAcdKZjowBE2BCAAgRUmsIpScMeuA+bm988++7jcvuUZlgQZ/NH/910zhit86NJ1CDRGYNe+46LnRZa0GRw8frax9wQVQQAC3RJACnbLf+7WkYJzo6MgBCAAAQh0RGAVpaDeAOvMGJb0GXR02NAsBCAAAQhAAAIQWBoBpODS0C63YqTgcvlSOwQgAAEINE9gFaVg8xSpEQIQgAAEIAABCEAAAs0QQAo2w7H1WpCCrSOnQQhAAAIQWJAAUnBBgBSHAAQgAAEIQAACEIBAgwSQgg3CbLMqpGCbtGkLAhCAAASaIIAUbIIidUAAAhCAAAQgAAEIQKAZAkjBZji2XgtSsHXkNAgBCEAAAgsSQAouCJDiEIAABCAAAQhAAAIQaJAAUrBBmG1WhRRskzZtQQACEIBAEwSQgk1QpA4IQAACEIAABCAAAQg0QwAp2AzH1mtBCraOnAYhAAEIQGBBAkjBBQFSHAIQgAAEIAABCEAAAg0SQAo2CLPNqpCCbdKmLQhAAAIQaIIAUrAJitQBAQhAAAIQgAAEIACBZgggBZvh2HotSMHWkdMgBCAAAQgsSAApuCBAikMAAhCAAAQgAAEIQKBBAkjBBmG2WRVSsE3atAUBCEAAAk0QQAo2QZE6IAABCEAAAhCAAAQg0AwBpGAzHFuvBSnYOnIahAAEIACBBQkgBRcESHEIQAACEIAABCAAAQg0SAAp2CDMNqtCCrZJm7YgAAEIQKAJAkjBJihSBwQgAAEIQAACEIAABJohgBRshmPrtSAFW0dOgxCAAAQgsCABpOCCACkOAQhAAAIQgAAEIACBBgkgBRuE2WZVSME2adMWBCAAAQg0QQAp2ARF6oAABCAAAQhAAAIQgEAzBJCCzXBsvRakYOvIaRACEIAABBYkgBRcECDFIQABCEAAAhCAAAQg0CABpGCDMNusCinYJm3aggAEILCKBDZkuDaU9fWBrK2tydraQNY3N2V9oNtrsjZYl00Xy8Ywz6fpQ9kwaVkdw2FW5r/75EF54NkDspG/zup16grWMqIzxAAAIABJREFU4TbCNgQgAAEIQAACEIAABCDQFAGkYFMkW64HKdgycJqDAAQgsHIEVOityWA9U3+buRwcGtuXycFsW0Q212XgSkKVeyaxWoeZKfj1/8PJq+kqG8fVsXLg6TAEIAABCEAAAhCAAARaIYAUbAVz840gBZtnSo0QgAAEIOASyGb5ZTP+RERFnyP+VBJaYWjSzGzCfBZhMZOwWsdYKViZJVgzG9ENj20IQAACEIAABCAAAQhAYCECSMGF8HVXGCnYHXtahgAEILAaBKpCb6IULKYNunSqdWTfKfhlMwPRPjpcEYvBOtz62IYABCAAAQhAAAIQgAAEmiKAFGyKZMv1IAVbBk5zEIAABFaOQFXojZWC+viwfQy4wqlah5GCn/jdcoahm7e2DjcT2xCAAAQgAAEIQAACEIBAUwSQgk2RbLkepGDLwGkOAhCAwMoRqAq9sVJQ2fiP/xbfKWh/dESkeHzYe9S4mCAYrGPlwNNhCEAAAhCAAAQgAAEItEIAKdgK5uYbQQo2z5QaIQABCEBguQRUCv7Fvy5/vMS0piKwsILLbb+L2g8ePyt//+1fsCTM4DMPvygP/ujlLt4+tAmB3hH41s83OR8mfD7Uz7Mv/mC77Nh1oHfvTToEgVUlgBRMdOSRgokOHGFDAAIQWGEC4ZmC5UzCPqLZ/uYB+a2PfomlBwz6+P6kTxBom8Ctn9jgfNiD8+GWx/hDSdvHDu1BYFkEkILLIrvkepGCSwZM9RCAAAQg0DgBIwWfXa3ZBVYKfujTz8st9+9kSZDBH33mKSMxGj8gqBACK0hApeDNd27lXJjgudB+hukfupCCK3jw0uXeEkAKJjq0SMFEB46wIQABCKwwAaQgUtDeVKa0TlYK6o/3DNZlc6FzjvfdogvVFUPhTVkfrIn++nn731rQZdsxsM9iQAqm/zmAFIzneCISCDRBACnYBMUO6kAKdgCdJiEAAQhAYCECSMH0bwZTknlNxYoUXMYj/qUgU0Fnloqlq0/fGHrfS2rOSjPKy/xHjQbrk5WptmdjzPJrW+U+m6brShfqzpZTtz3KwK/fjU3bbyS+urgb2o8UTP9zACnY0MFANRCIhABSMJKBmDUMpOCsxMgPAQhAAAJdE0AKpn8z2JRoS6kepOCypOBASieXC7BiZqO+dtOds5dKtSJfvn+eHyyaRs55bW0MPRbztKshT9O2eAxMmbJ9IwQrljCTlRXROW98Du6mN5GC6X8OIAWbPiqoDwLdEkAKdst/7taRgnOjoyAEIAABCHREACmY/s1gSjKvqVhTkoKb64NyVttwWH18OBdR2cy2Ui6JZLPs1p2ypWvyZuBV6ihnxvmz90wcppJM9lVElTn/eMLL7MukVtZ2KN2euDSfKwyzNsqYbb4p1nl/RuPLy2q6LyDdajV9roanEYM+A6ff+mj4mjuGNfEuEp/bzwa3kYLpfw4gBRs8IKgKAhEQQApGMAjzhIAUnIcaZSAAAQhAoEsCSMH0bwabEm0p1ZOMFDSiqJRlZiaZFVr+9wtWZFEm4woxVhFOmpbLJ69+cfNV5Jkvs0JnnXCeUi5moq98NLfsl9ZW5hOpxDHSVNa3sp7wY78mvUbuGY7Fo7leAxWOXpqRrWPacx9BDrbtMdK27FhUeDvtumOiu8fG55RrcRMpmP7nAFKwxQOGpiDQAgGkYAuQl9EEUnAZVKkTAhCAAASWSQApmP7NYEoyr6lYk5GCvgBSQWSloBFKnqCyaflMwY3i4HdllCMF/frN4612tqDmy8Wd225Rp7/htlGmqYDL/Fg4vcjptFHOSixSp98wEs1+F9+4YhqP8vNm540wGVeHlzaxbdumHTdHjGq7xfg59Zo6nRgXic+ptslNpGD6nwNIwSaPCOqCQPcEkILdj8FcESAF58JGIQhAAAIQ6JAAUjD9m8GmRFtK9fRGCgZno+kJwRF/5vzgCrkybVS+ZdLKVqvpOtvQrsefatw2bE5HLPrfp2ezFGvbdqieItP4DRVmdTMAa0pWZihqnnml21Rtj+mbL/9svFqvKwvnjc/Wt4Q1UjD9zwGk4BIODKqEQIcEkIIdwl+kaaTgIvQoCwEIQAACXRBACqZ/M5iSzGsq1mSkoBFF5Wwy89irFUReWvX4VxnnzJYzwsrONiulYPaYbll/9mMZNl/+GO9gKMO6HwipNDoqvCrxTpSC+tTwQNYGg3I2ZKX+CS+mknJZG1Z6SmVmZF7/PNJtyraz9hzelS5lUrT6fYbZOJbxLiAtK201+wIpmP7nAFKw2WOC2iDQNQGkYNcjMGf7SME5wVEMAhCAAAQ6I4AUTP9msCnRllI9yUhB4+XKHxoZbmzI0EpBPepzGVV8v15hjzLxN/sPjfjCKhdVbpu5SCu+r7A4++R5a79Xb1K6/S5BR2YWdY/fMPJxzT6mPD5vNovSPr4baGtGKThb28rAZ+zGO8qoGFKbbcb4bLFlrpGC6X8OIAWXeYRQNwTaJ4AUbJ95Iy0iBRvBSCUQgAAEINAiAaRg+jeDKcm8pmJNSQrOdzg7swHnq6AopdJrREwVqVNs3HGHyE03ieg69G9SeqgM+6IigBRM/3MAKRjVIUUwEFiYAFJwYYTdVIAU7IY7rUIAAhCAwPwE+ioF3zt2Uc5fvh4Es/3NA6I3UB/69PPSlKRKrp6tR2W/S2f3nqRYIAXdwRuzXfc9d2OKVJLuu0/krruyXbrW1+6/SeluXrY7JfD6gfO17acoBe/ZPdqdbY/7cm+XPHLSy3fyqNx2v80XSHezJ3ReRAq6A8c2BNIngBRMdAyRgokOHGFDAAIQWGECfZWCD20/Ih9+cFO+s/3IiBxcNSl4245LIpUb4T2yTS7JI1vtjbG+Ftm/Y1cyYrD/UrCjk5JKvrvvzhrXdUgCLpLeUbdoVsyx/TeP7paQHExWCrrS7vHTZpgLMWj/8OHmud9KwNNyTyEG7XkwS0vpPOj+MQopyFEOgX4RQAomOp5IwUQHjrAhAAEIrDCBPktBe8Nk5eDFK9nMQaSgvQku12bWTeXmuUyzHGNaIwWXeNK6/fbscWFdh/4tmh6qk31LJ+Aev74c7IUUtMIvP4/Vn9Pq/giCFFz6m5AGIACBqQkgBadGFVdGpGBc40E0EIAABCAwmcAqSEF7M/wnX3lDvverY/L8zv2JPD6c3aRue9zObsnGszqTpZqmOYqZMvYm2X0bVGYMluKv/ga6zGM5xrA2UvBjX5bLV6/PtFy5dkNmXa5evyEzL9duyNVZljnauHb9hrSxXL9xQ2ZfRK7fmGWZvY0bN0RmXdxDYdW2Q8etysFdhy9In6Rgdn7MxF95Lqyex8z5buRciBRctWOC/kIgZgJIwZhHZ0xsSMExcEiCAAQgAIEoCXz/lWNyx3feln94cm+vlo8/9Hbto7B/8dVN+cDHv5LAdwqWwq+4uc0ficte5+nuDD//Ebr7d8ro48PVG+RbKnV6aSOP2MWRrlLwDz7xI/nsU3tnXPbJZ5+abZnn2PjMk3slxuXeJ/bIzMuTe+XeGZdPP7FHZlp+vEc+PePyqR/vkb4ss/bd5J+RcUgKFvs+9VO5+c6ttefMIl9E54ORP2SYc1/+tQjmnOZ+RUL1vBU+JyIFo7xIISgIrCgBpGCiA48UTHTgCBsCEIDAChP4xbun5ee7Ts42q2mWGVAd5d360pGRG9xUZwpWZwbulOJmuObGt0jPb+DDN8D2JjkgFiO68a+TETw+vMInrQS6PusMxtlnYurMyllmYmbfKegfT5/84ftpzxSsvBccCVhzbrT9D58TkYIVnJUX+mvoa7IWWGb7ZfNNWR+4v4buv640uuALrXsg65tuNaFfdc/7NrYj09QVyuO2zTYEZiOAFJyNVzS5kYLRDAWBQAACEIDAlARUCj779qkpc6eTTX9oxN4ApvudguGb1EL6mZkxo1+Yb254ndmD4RvgTAqaumS0Dssu1jVSMJ1jkUjjIOAey/axYRtZPx4ftn/o0PUUjw8758iMTfh863KLebu1HxrZGMraWIFm31Wh9TIloN9eSNKNSsHN9YEMhkMZrA1lw6+ieD1NXaE8RQVsQGBmAkjBmZHFUQApGMc4EAUEIAABCExPoM9S0MrA85ezHxixVNL5oZHQTWq2T/SGtmY2TCENJ8wUTFUI6o05UtC+m1lDYDoCetz4PzBiS/ZPCjrnyZGZz3XCMHS+dUVj3NudSUGVhMUMQlesZQLQpg03qq/tfl1njjETduvrg6I+1z1uDL2ZioN1ySYBZvUOqlMCRSQk6XwpaPNkdbjt2WMjW9t87t66utw8bENgfgJIwfnZdVoSKdgpfhqHAAQgAIE5CPRVCr537KL4MtDiSU0KijiPxbnfm2V/SMSd8VJJz25izUxBbzZgykIQKWjfyawhMD2B1w+cr83cPym4U24x50KR6tcv5LJw5EdG9FyJFKx9g7gJ7kzBzXUZFHJORNw0d7soPyrfVPaVUnBNrNzTGXxrtu5KOyrj/MeCiwacjawtVz5m2464dOsNxmurm6KuoIS05VlDYHYCSMHZmUVRAikYxTAQBAQgAAEIzECgr1JwHILUpOD+HUdlm9Oh4kdHzAyYbNZLmewIxGKGjJNHb4bNDMOyRLkVKhvn7BhmCpajxhYEFiXQSymo57/Aua4qCd3zG1JwqveRK890u5glmM/kc0WeplWm302SgjXCzpV3MosU9OVhdXafeXS4mGE4rl6Ne3xd4ZmJUxElEwSCBJCCQSzx70QKxj9GRAgBCEAAAlUCSEH3pjC27bRvUpf5/VtIwepxzCsILEIgRSm4zPNLinV38viwKwjr3oC5OMzc4JxS0IjA8vFhO5uwrsls/ySRpxKwrNPKzXDdk+rSFkN5xkdIKgTGEUAKjqMTcRpSMOLBITQIQAACEAgSQArGJgLdeJCCdTfnSMHg4cxOCMxFACnonnfT3O5ECuoMvike5XVn5JWPC2dv1fJ1dRafuLMDN4bFY8XTv8FDks5pQ2WlndVoKw3tM2kT6qrNYytmDYHZCSAFZ2cWRQmkYBTDQBAQgAAEIDADAaRgzDeASEGk4AwHM1khMCcBpGDMnwPTxdaJFNT3Wz4T0M60s48Lm+8ELGbiOY8FF/mzfVNJQSMfq7P6yqeSVdiV30VYHgLjRZ62OzorsO4R4vF1ZW2G8pTRsAWBWQkgBWclFkl+pGAkA0EYEIAABCAwNQGk4HQ3XHVyiv3d8GOm4NSHOBkhMJEAUrCb81iTnx+tScGJ76bmM4wIPBWLpRVsvkFqhEAEBJCCEQzCPCEgBeehRhkIQAACEOiSAFIw/ZvBJm8sU6kLKdjlWYO2+0YAKZj+50CfpaB5lLiYdagzBp2Zh307GOkPBHICSMFE3wpIwUQHjrAhAAEIrDABpGD6N4OpiLwm40QKrvBJi643TgApmP7nQK+lYOPveCqEQPwEkILxj1EwQqRgEAs7IQABCEAgYgJIwfRvBpuUbanUhRSM+KRCaMkRQAqm/zmAFEzusCNgCIwlgBQciyfeRKRgvGNDZBCAAAQgECaAFEz/ZjAVkddknEjB8PHMXgjMQwApmP7nAFJwnnc+ZSAQLwGkYLxjMzYypOBYPCRCAAIQgECEBJCC6d8MNinbUqkLKRjhyYSQkiWAFEz/cwApmOzhR+AQCBJACgaxxL8TKRj/GBEhBCAAAQhUCSAF078ZTEXkNRknUrB6HPMKAosQQAqm/zmAFFzkCKAsBOIjgBSMb0ymiggpOBUmMkEAAhCAQEQEVlEK7th1QPQGiiV9BhEdSoQCgWQJ/Pm9j3I+7MFnwpbHXk72PUjgEIBAlQBSsMojmVdIwWSGikAhAAEIQCAnsIpS8OyFy6JikCV9BhzIEIDA4gR27TvO+bAHnwkHj59d/M1ADRCAQBQEkIJRDMPsQSAFZ2dGCQhAAAIQ6JbAKkrBbonTOgQgAAEIQAACEIAABOoJIAXr2USdghSMengIDgIQgAAEAgSQggEo7IIABCAAAQhAAAIQgEBHBJCCHYFftFmk4KIEKQ8BCEAAAm0TQAq2TZz2IAABCEAAAhCAAAQgUE8AKVjPJuoUpGDUw0NwEIAABCAQIIAUDEBhFwQgAAEIQAACEIAABDoigBTsCPyizSIFFyVIeQhAAAIQaJsAUrBt4rQHAQhAAAIQgAAEIACBegJIwXo2UacgBaMeHoKDAAQgAIEAAaRgAAq7IAABCEAAAhCAAAQg0BEBpGBH4BdtFim4KEHKQwACEIBA2wSQgm0Tpz0IQAACEIAABCAAAQjUE0AK1rOJOgUpGPXwEBwEIAABCAQIIAUDUNgFAQhAAAIQgAAEIACBjgggBTsCv2izSMFFCVIeAhCAAATaJoAUbJs47UEAAhCAAAQgAAEIQKCeAFKwnk3UKUjBqIeH4CAAAQhAIEAAKRiAwi4IQAACEIAABCAAAQh0RAAp2BH4RZtFCi5KkPIQgAAEINA2AaRg28RpDwIQgAAEIAABCEAAAvUEkIL1bKJOQQpGPTwEBwEIQAACAQJIwQAUdkEAAhCAAAQgAAEIQKAjAkjBjsAv2ixScFGClIcABCAAgbYJIAXbJk57EIAABCAAAQhAAAIQqCeAFKxnE3UKUjDq4SE4CEAAAhAIEEAKBqCwCwIQgAAEIAABCEAAAh0RQAp2BH7RZpGCixKkPAQgAAEItE0AKdg2cdqDAAQgAAEIQAACEIBAPQGkYD2bqFOQglEPD8FBAAIQgECAAFIwAIVdEIAABCAAAQhAAAIQ6IgAUrAj8Is2ixRclCDlIQABCECgbQJIwbaJ0x4EIAABCEAAAhCAAATqCSAF69lEnYIUjHp4CA4CEIAABAIEkIIBKOyCAAQgAAEIQAACEIBARwSQgh2BX7RZpOCiBCkPAQhAAAJtE0AKtk2c9iAAAQhAAAIQgAAEIFBPAClYzybqFKRg1MNDcBCAAAQgECCAFAxAYRcEIAABCEAAAhCAAAQ6IoAU7Aj8os0iBRclSHkIQAACEGibAFKwbeK0BwEIQAACEIAABCAAgXoCSMF6NlGnIAWjHh6CgwAEIACBAAGkYAAKuyAAAQhAAAIQgAAEINARAaRgR+AXbRYpuChBykMAAhCAQNsEkIJtE6c9CEAAAhCAAAQgAAEI1BNACtaziToFKRj18BAcBCAAAQgECCAFA1DYBQEIQAACEIAABCAAgY4IIAU7Ar9os0jBRQlSHgIQgAAE2iaAFGybOO1BAAIQgAAEIAABCECgngBSsJ5N1ClIwaiHh+AgAAEIQCBAACkYgMIuCEAAAhCAAAQgAAEIdEQAKdgR+EWbRQouSpDyEIAABCDQNgGkYNvEaQ8CEIAABCAAAQhAAAL1BJCC9WyiTkEKRj08BAcBCEAAAgECSMEAFHZBAAIQgAAEIAABCECgIwJIwY7AL9osUnBRgpSHAAQgAIG2CSAF2yZOexCAAAQgAAEIQAACEKgngBSsZxN1ClIw6uEhOAhAAAIQCBBACgagsAsCEIAABCAAAQhAAAIdEUAKdgR+0WaRgosSpDwEIAABCLRNACnYNnHagwAEIAABCEAAAhCAQD0BpGA9m6hTkIJRDw/BQQACEIBAgABSMACFXRCAAAQgAAEIQAACEOiIAFKwI/CLNosUXJQg5SEAAQhAoG0CSMG2idMeBCAAAQhAAAIQgAAE6gkgBevZRJ2CFIx6eAgOAhCAAAQCBJCCASjsggAEIAABCEAAAhCAQEcEkIIdgV+0WaTgogQpDwEIQAACbRNACrZNnPYgAAEIQAACEIAABCBQTwApWM8m6hSkYNTDQ3AQgAAEIBAggBQMQGEXBCAAAQhAAAIQgAAEOiKAFOwI/KLNIgUXJUh5CEAAAhBomwBSsG3itAcBCEAAAhCAAAQgAIF6AkjBejZRpyAFox4egoMABCAAgQABpGAACrsgAAEIQAACEIAABCDQEQGkYEfgF20WKbgoQcpDAAIQgEDbBFZRCp69cFl2vH2QpQcMWj1eNtdlMFiXzYUa3ZDh2lA2FqojlsKbsj5Yk7W1NRl20qGu2580DrHHNyl+0iEAAQhAoCsCSMGuyC/YLlJwQYAUhwAEIACB1gmsohTc/uYB+a2PfomlBwxaPWCiloKlgFJJZ5aKqatP3xiuyWDdV50zyMuNoWlvtI7R0dG2bHxZfm2n3GfTdF0Jf7Sqcs9U7Y/236/fjU3bbzc+7Y7GOJCRoTD7q4yy2BtgV1JkCwIQgAAEIiKAFIxoMGYJBSk4Cy3yQgACEIBADARWWQr+m08+KR/69PMsCTK45ZPfN1K31WMoeinoCqVcghUzG+uEk4ioVCvy5UR1n2/NxsGeRsx57WwMvRmTs7bpxjOxfa//Jn/ZvhGClf5mwq0iOpcan3bGi7Hon7ffi91kWyQ2Efny46/J7VueYUmYwee/95Ls2HWgeNewAQEIpE0AKZjo+CEFEx04woYABCCwwgRWWQqqELzl/p0sCTL4o8881YoU3FwflDPbhsPq48NGztgZXKVgEslm2a07ZUvflKUVT9tW6ihnx/mz90wcphIVRHYWm3vi8sSRScrEVtZ2KN2W13yjQrGM2eabsM77UhFpbhFN9+Wjnz5zo04FY9v3++/0WWVv6JFuP159vbT4tB9+jLZv/n4ndptlwdhu/cSGfOC2B+TmO7eyJMpAZ79veexl+45gDQEIJE4AKZjoACIFEx04woYABCCwwgSQgkjBFMVoK1LQyKJSlpnZZFZq+bMGK1Imk3GFHKtIJ03LBaJXv7j5KkLKl0KhE1Y4TykXNd0KTF2X/dLaynzqpmokmZGdbh1jtmvkmWFYPJrr9aPC0EszLzOu7iPGtdsj7Xt8tC07DhXWTrs+h6XGp+16MRahePvd2G2eibHZjOG1SkEVgimeC4g5+wxDCobf2+yFQKoEkIKJjhxSMNGBI2wIQAACK0wAKYgUTPGmuhUp6IsWlURWChox40kxm5bPFCxmA1ZkjyMF/fpNPjtbUPPl4s5tt/Zc5YmjPJ9KuMyPhdOL6pw2ylmJRep0G0aihWYx+sU1FmXnzq7MH2MekXl+2TGvx7Zv27Rj5khRHYdi7Jz6TX1OjCPj5eSdZnNsfFpB3RiNid22u2BsSMH0PweQgvZgYA2BfhBACiY6jkjBRAeOsCEAAQisMAGkYPo3gylKvUVjjkIK1gosR/yZc4sre8q0UfmWyR9brabrbEO7Hn+actuwOR2xWCucbF7bdqgem2fMWqVU3QzAmmKV2YmaZxGxNbH9Mf3y5Z+NV+t0ZeFS49NG62Ks228DXZCdiCAF0/8cQAo6xwObEOgBAaRgooOIFEx04AgbAhCAwAoTQAqmfzO4qGBLsXwrUtDIonJGmXn01UoiL616ClEZ58yYM8LKzjgrpWD2mG5Zv5Fi7uw5bWMwlGHwF2mrLYaEUiXeWuFU1mMk5WBQzoYsk8ZvTRRyWXGt3wrPLF47izGvfl7pNlX748Sapq153xeYjWEZ7wLibar4lEFdjHX7nWGZl11eBVIw/c8BpKBzPLAJgR4QQAomOohIwUQHjrAhAAEIrDABpGD6N4MpSr1FY25FCqqmqfxYyIYMrRTUc0Yue4rvtSsMUib+Zv+hEUcQmnNSLqvcNo04coRjce7K867Zx2N9yTUp3XRWBq7MLOqu3zDicc2Te7XZM9FmeRXfuWjzzyG2pm9/klgb5VMMZyvxaSN1MUyKfQFhmfcNKZj+5wBS0B6orCHQDwJIwUTHESmY6MARNgQgAIEVJoAUTP9mcFHBlmL5tqTgfKcGZzbgfBUUpVR6jcipInXCxh13iNx0k4iuQ/8mpYfKsK9dApPGaFL6lNEiBdP/HEAKTvlmJxsEEiGAFExkoPwwkYI+EV5DAAIQgEDsBJCC6d8Mpij1Fo15JaRg3XfdTXNSue8+kbvuynLqWl+7/yalu3nZ7obApDGalD5D1EjB9D8HkIIzvOHJCoEECCAFExikUIhIwRAV9kEAAhCAQMwEkILp3wwuKthSLB+3FOzgiFdBdPfdWcO61tfuv0XT3brYXg6BDscIKZj+5wBScDmHJbVCoCsCSMGuyC/YLlJwQYAUhwAEIACB1gkgBdO/GUxR6i0aM1IwcKq4/fbscWFdh/4tmh6qk33NEuhojJCC6X8OIAWbPRSpDQJdE0AKdj0Cc7aPFJwTHMUgAAEIQKAzAn2VgucvX69luv3NA6I3UB/69POyqJzqrvwueeSkyP4duxLuw/w34kjB2rc3CRCYmQBScP5zUXefAdWYkYIzv+0pAIGoCSAFox6e+uCQgvVsSIEABCAAgTgJ9FUKPrT9iPzNo7vl9QPnR8AjBas3k7Hc1M4SB1Jw5G3NDgjMTQApmP45ESk499ufghCIkgBSMMphmRwUUnAyI3JAAAIQgEBcBPosBa1kUjm46/CFAvyqSsHbdlwSOXlUbrs//RtgpGDxdmYDAlMR+NZLh6VuBnXKUvCe3SKye09wxrRJ8+hse1zPf9lMay+pfFlTn/1MiXGNFCyHjy0I9IEAUjDRUUQKJjpwhA0BCEBghQmsghS0N3Cf/OH7Rg4iBZGCK3zI0/UVJaDnwQ8/uCnf2X5kRA72Wgq6gu/x02b0MzFoz4P9+CoGpOCKHth0u7cEkIKJDi1SMNGBI2wIQAACK0zg7SMX5N4n9siDzx3s1XLXw+8GZ47ojfGdD70lH/j4V3r2nYLZje22x6szYLLvHKzuM2/3xGcM6kzB//G/fF++/otD8s0XD8s3Xzwk/7LtsFm+9dIReeilw/LQ9sPynZePmGXj5SOy8csj8vAvj8h3dxyVR/Ll0VeOiS7ff+WY/OCVY/LD147LY2Y5Jo/vPG6WH79+Qp4wy3F5avOEPPXGCfnJGyfkp2+elJ++eUJ+9tZJ+flbJ+WZXafM8uyuU/LcO6flubdPiV4bvvButry4+7Tosm33aXnpvTPy0nvhCT2NAAAgAElEQVSn5eX3z5hlx56zsmPvWfnV3rPyii77zspr+8+ZZef+c+Yx+M0D52Tz4Hl5I1/eOnxB3jp8XvQYfkeXoxfl3aMXzPLesYuiy/vHL8qeE5dk74lLsu9ktuw/eUkOnLosB09dlkOnL8vhM5flyJkrZjl65rIcO3dFjufLyfNX5cT5K3LqwlWznL5wVc5cvCZnL10zYuncpWty4cp1s1y8cl0uXb0hl69eN8uVazfk6rUbcu36Dbl+I1tW+FTbedftH0dCcnBlpKCdIeiKwnxf6t/PihTs/BAjAAg0SgAp2CjO9ipDCrbHmpYgAAEIQKA5ApkAuCrHz/Vn+ecXDgWloM4WfHTbnh7+0Egp/opZMFuPyn4Rsa/79vjwb3/8n43YUsGloksXlV+6qAhTIWblmMqy3UcvZvLsyAUj0lSoqVhTyfbmofOyefCcqHjT76FUEWel3Kv7zskr+84ZYafiTgWelXnb31e5d8aIPiv9rAR8/h2VgpkgVFFopaEKxJ+/dUp+ZqTiSSMYVTSqcHzi9ePyxOYJ+XEuJFVMPvbaMSMqVVj+4NVjZrEy08pNFZ3f/eVRefiXR0UFqJWhKkZVkKoo3frSYdm6LROoKlJVqOrytV8ckq++cFC++sIh+crzB+Ur+R8Itjx7QB7Q5ZkD8uVnDsiXnjkgX3x6v9z/9H75p5/tky/8bL984Wf75D5dfrpP/vEn2fK5n+yTzz61Vz771D75zJN7zXLvk3vl0z/eI5/KF93WfTZd82qZzz21t6hH69S6tY1/+vl+uV+Xp/ebGDQWjUlj2/Js+QcNjV37oH3RPn3thYOmj99w5LEyUBb6OK1+9+i3t5e8lJ0yVJbK9Hu/ygSy5W35//DVY/IjXx7vzMbuyc0Toosrj3WsdcyffuukPL0rE8hWHtv3ic7a1sW+j6w81vfYy3vOyi9VHLvyeN850ffmq/vOys4D58x7Vt+7mTw+Z97T+r7Wr07QxZWCdtvOHLzlEw/LzXduDeaxeWNdT3x8eKIAzM6dSMHmrimoCQIQWJwAUnBxhp3UgBTsBDuNQgACEIAABEYI6M2+exPrfq9gPx8fDt/YujfMfZOCOjOGf+kRuHFDipmDOotQZxPqrEJdLl3NZhvqrEM7A1FnI+qisxN1lqLOVrQzF3UW44nz9o8ZV8wsR53taGc+6kxIXQ6evmxmR6o4tjMm9+gsyuPZbEpXHqtA1lmXOgNTZZorj1Ug62zN11XC5SLOymOd3amzPHW2p5F3jjzWWaFGHr93Rl7MxV8pj7NZpc++fUp0ceWxzkLV2ag6M/Unb5w0orGQx6+fEJ3FquL4R748zme/PvqrTGyq3HTPh+72n3zlDbnlU0+thhQ0jw9fkke22keHy+8XRAqOO5dsyHBtTdYCy3BjXDk/bVPWB2tSlvFf+/mbeJ3HXjaaV5q17fapzKJlhlLXtY1hlcVgfTMQaF27gaxml8YzkGpVoTimqdetK8+/8NjVxc3+ZRFACi6L7JLrRQouGTDVQwACEIAABKYkYKVg6BeIkYLuDXGa2/zQyJQHAtkgkBNwRaBuqwzUmaYqYHv9+HDlHeALQaRgBc80LzaGslbas2lKOHnakIBOcyKyuT6QwXAogxHJ54ozEdF+FXlCMi6r1wjBSv8z6eaLwfp2q/GVr7x4TMJoHNPVG6or72Ml9rJ1tuIjgBSMb0ymiggpOBUmMkEAAhCAAASWTmDbe2fMY6ChhlZHCuaPFOePzzFTMPRuYB8EVoOAlYKuDLQ977UUrDw+HPojSHiWteWVyrq17xT0paCRaXbmnDu7LhOAdibecKP62u7XdeapMgG2vj4oZiS6/sqfnbc2WJdsfl5Wry/lsve2lWNZHrc+EZtmjwJt387UG5VxJtfmekAu5rKtiEdz2rpD7dr2/LUt4+7347B5JtVr87l1IQU9GtG/RApGP0ThAJGCYS7shQAEIAABCMREoM9SUMSZCeM9KmekoJyWe+4P3RintY+ZgjEdUcSSAgH9/kD9/kSdGej/QwqK8Piw/66oee1KQZVkrgxz09ztoqpRmaWyr5SCa2Llns6IK8RfpR1X3hUVhzfcciPxeOJM0yfNFNQ8bn9tq74sHNuuLeSvMzauLM22HdE6db1e32xTIwxsAusYCSAFYxyVKWJCCk4BiSwQgAAEIACBjgn0WQru33FUtjl87Y+MZLNd9pRpPfj1Yb5T0BloNiEwgcD5y6My0BZBCiIF7Xth4toVS0ak2VmC+dpKMyPK1rxHjSdJwRoB5sowmV4Kmkdtiy/p88v5Es7OElQC/gy9nMqUUnB8u3WEQyKvGsf09YbqYqZgHflY9yMFYx2ZCXEhBScAIhkCEIAABCAQAYF+SEF/Zt8uefOjd8jF//7X5eHf+3DwRwV0/87Br9Wmp/KYnMbJTMEIDiRC6A2B5KWgPxL5I8PuDy3Vn994fNjHN/a1LwWrz+SOFs3FYZZtTiloJF0pH+1swtHG3D0q1MoydgZeWbZGnJkqqjKuqNWITkdc2oSKLJzUri3kr0PxuHHMUm+oLqSgTzz210jB2EeoJj6kYA0YdkMAAhCAAAQiItBHKfjFW/9a3vj4XeYRuIc++KfyxVvvrohBfa379cY4lF5/w+zLxzheIwUjOqAIJXkCKUtB/9w16Y8fk9L9+lJ53cl3ChpJ5s6wCx8K7gy38nHhLG/52hVg5hdCykeTN4bFY8XhFgJ7K6IuT6/sqxFnmrVO/pnvCvRnP2ayrnCjlTZC7QZiNbtC8ThMZqo3VBdSsI58rPuRgrGOzIS4kIITAJEMAQhAAAIQiIBAH6SgSr5vffDPcsn3Z6JS8JGT5SNwo+lVSZjKjW5dnEjBCA4kQugNgb5IwUl//JiUXne+SWF/J1JQjwCVVe6MvNyOqQgs9zuz64r82b6ppKCRdNVZf4WEy0VdOQMwOyy1Xn9f9liwlZghcebMxisb8I5zLVeNxfQzzz9du/Z7FN2q6+IpOY3vz6S6kIIuoRS2kYIpjFIgRqRgAAq7IAABCEAAApER6IMU1JvU7978x+ZxYF2HblonpYfKpLIPKRjZQUU4SRNIVQpO+uPHoumpnA81ztakYAfv9BHRpmKxVtpNCPCOO0RuuklE16F/k9JDZczkQpWgjvysyVf7fYW1+UlYVQJIwURHHimY6MARNgQgAAEIrBSBvkjBlG5Ym44VKbhShyydXTKBVKWgnlcm/fFj0fSmz13Lqq/PUjB7nNednTeNfAscNPfdJ3LXXVmCrvW1+29Supt3zm2dQTmvz5yzSYolSgApmOjAIQUTHTjChgAEIACBlSKAFIzjewEXuTlGCq7UIUtnl0wgZSm4yHmkT2V7LQXnff+r5Lv77qy0rkMScFz6vO1SDgINEEAKNgCxiyqQgl1Qp00IQAACEIDAbASQgkjB2d4x5IZAvwkgBdM/JyIFa47R22/PHhfWdejfpPRQGfZBoAUCSMEWIC+jCaTgMqhSJwQgAAEIQKBZAkjB9G+AmSnY7DFBbatNACmY/jkRKbjaxzC97x8BpGCiY4oUTHTgCBsCEIAABFaKAFIw/RtgpOBKHbJ0dskEkILpnxORgks+SKgeAi0TQAq2DLyp5pCCTZGkHghAAAIQgMDyCOzYdcD8UuN/+MS35X//1CMsCTL4X/7qm2YMl/cuoWYIrA4BpCBScHXe7fQUAmkQQAqmMU4jUSIFR5CwAwIQgAAEIBAdgYPHz8qWx15m6QGD6N5cBASBBAmoFPzdO74hH7r3BZZEGTBTMMEDj5AhMIYAUnAMnJiTkIIxjw6xQQACEIAABCAAAQhAAAI+gb/87PfNzFsVSyzpMtA/dvEPAhDoBwGkYKLjiBRMdOAIGwIQgAAEIAABCEAAAhCAAAQgAAEIREAAKRjBIMwTAlJwHmqUgQAEIAABCEAAAhCAAAQgAAEIQAACEFACSMFE3wdIwUQHjrAhAAEIQAACEIAABCAAAQhAAAIQgEAEBJCCEQzCPCEgBeehRhkIQAACEIAABCAAAQhAAAIQgAAEIAABJYAUTPR9gBRMdOAIGwIQgAAEIAABCEAAAhCAAAQgAAEIREAAKRjBIMwTAlJwHmqUgQAEIAABCEAAAhCAAAQgAAEIQAACEFACSMFE3wdIwUQHjrAhAAEIQAACEIAABCAAAQhAAAIQgEAEBJCCEQzCPCEgBeehRhkIQAACEIAABCAAAQhAAAIQgAAEIAABJYAUTPR9gBRMdOAIGwIQgAAEIAABCEAAAhCAAAQgAAEIREAAKRjBIMwTAlJwHmqUgQAEIAABCEAAAhCAAAQgAAEIQAACEFACSMFE3wdIwUQHjrAhAAEIQAACEIAABCAAAQhAAAIQgEAEBJCCEQzCPCEgBeehRhkIQAACEIAABCAAAQhAAAIQgAAEIAABJYAUTPR9gBRMdOAIGwIQgAAEIAABCEAAAhCAAAQgAAEIREAAKRjBIMwTAlJwHmqUgQAEIAABCEAAAhCAAAQgAAEIQAACEFACSMFE3wdIwUQHjrAhAAEIQAACEIAABCAAAQhAAAIQgEAEBJCCEQzCPCEgBeehRhkIQAACEIAABCAAAQhAAAIQgAAEIAABJYAUTPR9gBRMdOAIGwIQgAAEIAABCEAAAhCAAAQgMDeBDRmuDWXDlHe3Z6hwc10Gg3XZnKEIWftJACmY6LgiBZseuDlPpk2Hsez69OS/tiZrawNZ5xNg2bSpHwIQgAAEIAABCEAAAhDoAYGNod5D5cvCMm1T1gdrMsys3hx03HtXd3uGqmqlYBZb0Vft87yBmnvP1O47Fx2bGcYgkqxIwUgGYtYwkIKzEhORyknJP9jnPJnOEUa4iB9PONeie/XDrDinGx72L0yL1kx5CEAAAhCAAAQgAIHUCVy/IaL3Gbq8cfC86c7pC9eKfftPXjL79p64VOw7e+ma2ff6gXNm3wvvnCowvPDuadHl9QNZXZr3F++eNovWof8Onrpc7Dt14arZ99ah88U+jUn/bX/vjNn32v5z5vWFK9eLPO8du2j2HT5zpdh34twVs+/tIxeKfVfzynbsOSsv7j4tr+w7a/JcvnrdvNZ9u49mdR07e6XYd/RsVtd7xy8W+y5dvW7Kajxa7ld7s7q0DX2ti7at/06ev1rsO3z6stm358SlYt+FyxlDZf7Se2dkR17XjRtiXus+W9eZi9eKfQfzunRcNI8udjyUob5Wbvbfy++fNfvePJSNx7lLZV12bDU+W5cdj3eOXBAtq4sdD2Wnr+375OKV60WeffnYHjt3pdh34nzO8NjFYt+Va9ngKkOtS99D+k/32/b2HM/eJzqedt/xfGz3nbxkWCmvS1ezujQefb0zf5/Yvi+yNkKwuIkSkY2hDBaaYbHovZ977+puz9DLsVIwNZE3Q78nZl10bCY2EF0GpGB0QzJdQEjB6TjV5/IP9jlPpvUNzJjixzNj8amye20gBaeiRiYIQAACEIAABCCwKgSu37ghz719yiybuRRUMWT3HTiVCS0VenafSir9pxJG96kEtP9UAD73zml5NZdvmvfZt0+Z5f3jmXxTGWX3qTzTf9q23acx6T+VbLrPyrfzl8u63s1FnkoyW86KI5Vjdp+VUCq9ntl1Sra/nwkzFXxP7zpllrcOZ8Ls8JnLxb5DuXxTMWfzqQTTf1qH7tP49N/VazeKPFaYHT93tdhn5ZvGbOtSOaf/frnnjPzszZMmXn2tfdfXulgZqozsPhWL+k9lpd1nRZ5KO93387dOmjz6n/ZZ91mGOh62nJWhKtrsPsvw1f3n5KdvnjSLHQ9lqvssQx0Pm2fX4UyG6vvF7jtyJpOCOrZ2n8pY/afvGd1nGargs3neyAWmCl+77+CprN8qN59644RZrFjV95zue2ZX2e8CwDwbk+6ZNoblDMI1ZwKGZPeX6+uDIj3zitk9WTkTTydpZHmH+WzEwj9OqDv4+HClTHUCyKYTy2A4rHl8WOMLScG6/qgjXatIUtOO6YR7jx3oYyXWadjpAPpxaKwOU38WZ6UNl4dfj7bv1GNmhbr553nzpFEGKZjGOI1E2Z0U9A+eeQ7CwAnB/MHFmZKtB6E9oGsP5AyLnnTKv9Ro3c4JpfIXkKzdDQkd7H6/nDoq9P18Y/pvPkCcPhVn92r7Y08+wb5nMYx8aNg4g+1W2yw/hPL4bGzB9rTiCW3atllDAAIQgAAEIAABCEAAAhDoCwG9P7L3pX6fzH2XI9DMayuS9P6plGVGlBX1ZPdm9hYsu9cq85pmJtbttpNva5mijWxGY/Hor1efmf3o5i365t832v6N6U+FkZZ3y7hxOn304sme6gvnrbILxFHc/3tcx/Ew97dlPGUbXh0Fl/5uIAUTHdtupaB38Mx8EFYPZDMElQNW0/MTSWW/d2KzY+eehDbXZTgoJaE5uIuzrdZrTzT+wV6NqTwp2EbsOpCvrv+2iFk7J0eNt4jJZvLjyR93dk/URblqDLaG8NppN5ehRdPmRGx5jGtPa56lzXAk7IUABCAAAQhAAAIQgAAEIJAUAfde0w+8uD+zCe49nd4/1d1rufm0rJfX7PLvGd0ybn5nW+Ox33to1/Z+0o/Vv8+2XTD3jFbqFTtHY6yU1xhC9+9ObH4f/Xgq96puOf8+1UvTemwfTdbSBehj3rU8/HiK/ric3f73dxspmOjYdisFnZPbXAehdyDrGBQHob7Q9PykMvZAtoNX1qcyb7ixIcP8xFD5Dr3Kge8f7GUdptZKPLYdG9uU/deeuF9Ia+Wh1q0n6cLOab1+PKZwzUnMi9UNL98Otuu3YeLw+mI/POy6OMFObjMQBrsgAAEIQAACEIAABCAAAQikS8C/Z3J6Up2AognuPZ13/1S5v3TzaTkvby636u8X3fzOtt47V+4xnWD9tEo8Tj7Th1mlYPkIsTKpPsVn7zedOGfqn8nszICs1mPEX3HPqlrBad/vs9tNn3nBwx+bSqFevkAKJjqsyUjB4EnJO5DNGOi+8lHb4kQy9kAuB8/Kv41hdtLJ1n477mv/YHfT/BNP2c7ICVvjG3cSKtL89krplyGqSZ+anxNjJSa3Xnc776P716uxrD0+TnNsQgACEIAABCAAAQhAAAIQ6CeB7B6qItvsD40YYegINL2fKu6vvPunQjpllOz9a/6qOqtQd05dt9OOX8YdEC/NTCIp7lUrGZ3Hf939Tjs2Pre86d/QPLVX/gaLW8bdnqV//r25V0/l3teTgl6f3d6M3Neb+NdlM5/YE7wNr1bQm1dIwUSHMgkpWHsQegeyjoE9sfrjUVuHl9EILT0JZQeymTG4vi6DytFcbXfsidg5KVRbqtYx9V8mTD9Gv6fQ/UtGNZ7AibIIxIuh2J9vuHKv0u4EKTiW9YQ2/Rh4DQEIQAACEIAABCAAAQhAoBcEcjFoJ7G4MsyIQDu5xRGEtTPRciBFOZ3UUnOvVeTR+uvq9spWylSfTtN7T/s4rft0XXWIvL5qn809tdfOyP1yXs5lU+mXV14brcRa178FpOBIG7YvJqEqYt3+FHHZWY5VQn17hRRMdESTkILmWPOe4w+dUDRfLq/sSUrXhc8rDkrvRzEqY6cnmfK7Dm19RR0mr3ciKuoNnIjdk8JIO87JQetwTnyu5LPTx7M+DUV/GETjcU/G5V+S3JOiV7/98Kk7IVfi0xfuibxs1+4vmTj57M6Cic/aYzfSJjsgAAEIQAACEIAABCAAAQhAAAIQSIkAUjCl0XJi7U4KOkE0uKmz5IpHhrVelVNWVDXYDlVBAAIQgAAEIAABCEAAAhCAAAQgAAEIiCAFE30X9E0K2pl95UxBZ7ZcomNE2BCAAAQgAAEIQAACEIAABCAAAQhAIFYCSMFYR2ZCXL2TghP6SzIEIAABCEAAAhCAAAQgAAEIQAACEIBAcwSQgs2xbLUmpGCruGkMAhCAAAQgAAEIQAACEIAABCAAAQj0igBSMNHhRAomOnCEDQEIQAACEIAABCAAAQhAAAIQgAAEIiCAFIxgEOYJASk4DzXKQAACEIAABCAAAQhAAAIQgAAEIAABCCgBpGCi7wOkYKIDR9gQgAAEIAABCEAAAhCAAAQgAAEIQCACAkjBCAZhnhCikYKb6zIYrMvmPJ0oymzIcK3HvzbcCKMC1sptfOGxV+T2Lc+wwKD374E7HnxGHvzRy3Lw+NmVO87pMAQgAAEIrAaBLz/+Wu8/z/t+3fr5770kO3YdWI03LL2EwAoQQAomOshIwbqB25T1wZoMN+rSO9i/kBT0++O/7qA/LTf5b/+fDfnt9X+Wm+/cygKDXr8Hfvc/fUN+66Nf4kK75XMMzUEAAhCAQHsEbv3Ehnzgtgd6/Xne92tWvVbZ8tjL7b1paAkCEFgqAaTgUvEur3KkYB3bCKVZo1Kwrt/93a9S8A/+9kdyy/07WWDQ6/fAv/3MC0jB/p7K6BkEIAABCIiISkGVZlzXpXtdixTkUIZAvwggBRMdzy6l4Ob6QNbW1swyGA6rjw9vDIu0tcojwdkjwutO2XI2n/f4cKWOctbfxnBNBuvlg8omjrISEcmEoI2taL+mvurQT45vOMz6XDQ5pt56Rl5fPWHolltb+x/kfxpkbZZ98mLQTtTGMa5P1d7H/AopmO5FIxf8s40dUjDmMxGxQaAHBLxrjvl65F3HzFdJy6XK68PiGq7lCMY3F3t846OfNRUpONu1QYzXUkjBWd/15IdA3ASQgnGPT210nUlBvaBcG4h1cyrq1ux3CvoXmyqriqsvvYh0pJ6px36PoHOB6dUvbj6tz7ZlBGAZRwnKmyk4rr6ykJq1CfE5sWu5cfV6aRVGph3b77we2ye3r0VsXn+MAyxF6dg4vD4Z4WjbKuqPfwMpmP7FY4wXtDHGhBSM/3xEhBBImoBeZyx8HeBcszUMw1wv2T862wvNyvVedq3m/6FUXxeXm+Niyv+I6v6BeVx2e21YXsv6ufN4TOMLxqZVTx1fKREti7L/s6XV983va3OvkYLpX9chBZs7HqgJAjEQQArGMApzxNCZFKyIPk9q5Rcz9gLFrIuLT/8iUi9arNRz0vz689l/2cWO5svL1F7YehJtbH0ueCcGs7smPltkXL1+WiVWrx03zS9XxFG92NWL5uLib6SM2/8xbdl+JLBGCqZ/8RijgIsxJqRgAickQoRAygTca465++FdW8xdj1dQr2eKa0b1Y/YPqO71mFNm5PrHSRu3qeXcP1KPyat/TDVPxFSefCkL1KbPG5tWPVV8HhNTpobXuDT7hI3Dvezd8raQgulf1yEFl3d8UDMEuiCAFOyCegNtRisFC1vld9K/iHQvaMo0M5utUocruXSC3sA8QmzXfiv2EWJbxaT6yvJlDNm+cHw2/9h6/YvBykW4146TNlqntlbtv+5xpeBoGTd/fVu2HymskYLpXzzGKOBijAkpmMIZiRghkBYBc51gZ99F8ZUv2XXKyGw9vXYKyin3esxh719rOUkTN40o854AGSlk23Wvq9xMY9IXiU2bmBifbdvGo9d79g/ts6SZxsyTMva62da4zDVSMP3rOqTgMo8Q6oZA+wSQgu0zb6TFzqSgSqziwiMTVMVFnJdW7ahesDgXYOaCx/5V05FXfh2VfHZm4lCGxSzDaiv6ypVmI4/X+vUVxaeMz+YfF6eXZh6HKS503Qu3ED/LxDbk9Wem/jlctTqNq4ijrD/2LaRg+hePMQq4GGNCCsZ+NiI+CCRGYNz1iH9NoNdHhRnyrolMPfb6xLm28OrPrrnyfFpfcc3hi6owR3O95F4rmmw1ZSvx+vVl8VeeXMnF6Mi+os9eHS6fUFvj0kP5K9UvGp/HRNsrZjMG0iaMg3IfkbSVeJt9gRRM/7oOKdjsMUFtEOiaAFKw6xGYs/3OpKBxS+UPjQw3NmRYXGyUf90sLrqKi63sInL2Hxqxf/m0oPRix/keQ7vbXZuLI/1BDufCtLgY9OuzBWeIryji/qhKtV73L/M+o2nTRuPP+lORnhpL0V/tsxtH1qcNG697AWv3JbBGCqZ/8RijgIsxJqRgAickQoRASgR8OeVeB1SuHfIfNSuu57zrh5Hv9XOur4rrPAWTXaNlu7SO/JrEbXciv/w6z17DVdp2Cvt9c5Imbmo8I/KxWkqv1UpR5vQlzzY2fZHYtP6J8VlG+bhZziY2L60YU1Ox89U9eUf8PzaXu5e2hRRM/7oOKbi0w4OKIdAJAaRgJ9gXb7RLKThf9P4F5ny1aKkRKTZ/VU7J5uJzKmWzAQJIwfQvHmMUcDHGhBRs4IRBFRCAQEnAl1OunPPTylJ6pSXDQsppgoom+0fHMs38kbNWCk7zlS+VRisvytlrbttOlrHxO/n8TS03QQgWPzBS/EE5k29VSWiFXLku0ueNTWOdKr4aJqavbppuu7MA3TQLRsfTjq3dt9w1UjD96zqk4HKPEWqHQNsEkIJtE2+ovZWVguavp/lfqBtimVVTXuQ2Wi2VLUwAKZj+xWOMAi7GmJCCC58uqAACEHAJmGumUvioaCse6fXS3GJWilUkVyEJneslvw4jtJxrNE0fjP/KF9uuCsbSL2YyK3sdElm5PCsL2GrGr6cSbnndlRl23j6tZ1L6rLFp5NPGV5G0fpc9XmaM7Jh4aaZJ5z3hV7Wk10jB9K/rkIJLOjioFgIdEUAKdgR+0WbTk4KL9pjyq0oAKZj+xWOMAi7GmJCCq3qWo98QWB4BM5svn/Hmf52JlVDtfuVLJvwK4Vh0XWVjYNZdnQBTgTaDeDNCdG3NEY9FwyMb5SxFN6mcUTcp3XCdITZtZZb4qjM33Rh1Oyz+Mt4Z+2K8lfeMcfqtzfMaKZj+dR1ScJ53PmUgEC8BpGC8YzM2MqTgWDwk9ohAElLw8dMiJ4/KbffHcqG3R7aJyLbHY4mnizh2ySMnRfbv2CUxCsBQTEjBHp246AoEkibgzAZcsB8quzrwTgtGHaCRiU4AACAASURBVCh+xx0iN90kouvQv0npoTJN7pvU/qT0JmOZUBdSsItrombbRApOeJOTDIHECCAFExswGy5S0JJg3XcCXUrBe3bLFLIvk0+xCbjbdlwS2b2nAyGW8Sjfl6flnoAsNWzlkjyytdkL1VK2IQXLMWALAhCAwCwEGpKClUdXZ2k/srz33Sdy111ZULrW1+6/Selu3mVsT2p/UvoSYtp4+aicuXgtWHP6UjD7w2vROeday1zbmNf+tVCRO9twypTXLcu6Hmq+XqSgN568hEDiBJCCiQ4gUjDRgSPsmQlELwW3HpX9UhVfRsh1PXMwEFcbF56+SM3kn8vHvZhGCrpjwkzBmU8PFIAABCDQPAGVaHffndWra33t/ls03a1rnu1F259Ufp6YvDJ/vGVT/uiBTfnmi4dH5GDaUjC7hnGfQrhnd3ktU0pBV8Sl90dK99oktI0U9N7wvIRA4gSQgokOIFIw0YEj7JkJdCkFQxdC/r6QAAzt88st/3UHjxAbEVleHJs+mn3lo8yFNAzlDcwonJ9TehfhSMGZTw8UgAAEILAcArffnj0urOvQv0XTQ3XOsm/R9ieVnyWWQF6Vgvbz25eDSUvBCdcuSMHAm4FdEIBA9ASQgtEPUThAlYLf+9VR2XviEgsMev0e+Hef/L78wd/+qLi4tBeZ063dWWn+o8CZNNr2ePURj+pff2XiI7jVC8BqXeboLWYM+mnu7Dn9i/LssZpHlvX7DO2/oq3sL9Qam9ufEDMjMG354nsIJ7MJ1XWLicXvV1bXSBwTLqzL+m0sJZ/yUe1xTP12x+WdxH+nhDlpuUn1ZmNR9qf+tUrB3/4/vyKP/3KvvHfsIovD4P3jFyXVZc/xi7K05cQl2bOsZZlxH7+41M+tfScvybKWZV93LSturXc/S5DBgVOXZVnLwdOXZWnLqctycEnLodOXZZHFlYL288/KwVv/7hG5+c6tc17X1X+G2naWu86vRWoe/61eE9pY/esRuz/dNTMFnQtnNiHQAwJIwUQH8fTFa/KV5w/I1pcOs8Cg1++Bf/fpn80pBfUizJ21ll3IlXKqlDmFZArNaqu58MsuOsMXeqMzBfO2nLqqeaaNteyPufDU81chAv3+7ZTwxalzEVor5iazCV10Z+JsOVJQRr5/cBqmVopOk7dkawVt8V6ZxKl2XB3WU8yCVCl4853/Iv/443fkOy8fWcry7e1HZFnLsmLWepcVs633oe2HZXnLEXlo+5KWlw7LQ0tavvXSYVnuckS+9dJylmVeG/3LtsOyzGXrtsOyrGWZcX/zxUOyrOUbLx6SZS76iOuylm/84pAsa/n6Lw5JrIsKwNB1gtn/qZ8mLAV3yi35taK5hXQ+/7W/4euu7BqkuKaY4nogxC6mfd1IweovlLu/oj3bjxllv8JdlvFfNykHRn8NXCT0na1538qgAkFMU1coj1+VtjWQ9U13/zIZuO2wHSsBpGCsI0NcEICAIdDk48N6sVZelIUv0twLOnc7fDE2KuI0X1X42QtIVzqpLNKy/r5SIk2MNTArz493JA7/QjS/sC2Z2PYnswnxWKYUHIkxKOpcpk4fJua1/S7XFf51nOaoN8TN7uPxYU56EIAABCDQBwL+TEE7S1B/fCTpx4fd66jiSY3yWs6/Dss+353rEbd8wtvdSEHnyNgYytpYgebkHdlsU4CFJN2oFNxcH8hgOJTB2lA2RuK1O6apK5THlrdrpKAlwbokgBQsWbAFAQhESGAhKVhcsJUdK+VS+CLNvaBztzPhVdaTzS6cRQqWZcut8kIye/S2TNGtsbHOKAXD8Vthmbdb/MV7MptgfYGY7OO1ZV9y8RYQasE688dzw+WrvLJXlqnTh1zqjea2eXfKeP41nKapd4aLfqTg6AixBwIQgAAE0iNgpaArA20veiMFzed7dq0h+fWTe91o/+BXex00w/VBWVf5x8su90UnBVUSrq3liyvWMgFo04Yb1dd2v64zx5gJu/X1QVGf6x43hraNfD1Yl2zCXVbvoDr9TkRCks6XgjZPVofbnj1msrXN5+6tq8vN429PIwWzWCyfIqYg5yyGYc4my1tT3g+F19EQQApGMxQEAgEIhAjMLQVzYVM8Gpw/1lHKJUcaFRdm01zcuRdkoTqmnSno1DNPrAEB51+M+q/HX0C6fXG3bZxVNsG6TD8c0aZcA30zZUN5i3Gwbeo6FIut12urUt4pN6mtQIzKrnyv1MQzqd5KPG4d4W2kYOgMwD4IQAACEEiNwJ9/7c3gLw9rP/olBavXfOHrLud6ZMbrguC1VgR1RCUFN9dlUMg5EXFnEbrbxUE0Kt9U9mUySwXXmli5pzP41mzdlXZCYq1owNmoyjEr2dbcGYFuvcF4bXVT1BWUkLa8XYdi95iE4nDj1KqKPFVmppUizbbJOnYCSMHYR4j4ILDiBBaTgo40ysVPKXpyyeU+wmtEW1kmfHFXFTqhPNmMN/e79fK2ipl41ToycVa2a0WaH2v52s5sc9vwv8tmQpsjF5XuRetkNuEL1dE2DZ/iew+dfk8t1Ny4nPL2Bz7qmFZk4mhclfj9WEbeK6PtZmMxod4Rxm49o9tIwRU/2dF9CEAAAj0hcP7y9dqepCwFzfVd5bqj+sRI6Jqw9o+bM14jVK5bOi4blRRUAVXMEvRm8KnI0rRiqpu+LT0BZvyWKwWdmYauCHO3zfcC+t/LF3rLa1t+PpVoZRvm0eFihmFI2Nl6J9cVnploy9t1qA2PSYhbLedqf0wrofK2edZREkAKRjksBAUBCFgCc0tB+91+tqKTR+WeHZec2V9WNh2VbTZP8eu7mbAJX9xVZY65QByRXtlFoqm2SMsFktOWSCn1Ko/O1sa6q/zi7okzBbMY3JmSIxeUpg4nIC/W/Tvq2YzUVVygOn3Xqos6M26VfjpN18dpx8npe9HWOKZ+uXF5vV8X9vnXctI+ja+3nlP1faT5kILOG4JNCEAAAhDoJYGUpaB+VptrQ2dk3D/Yhq8b/euR0c//Wa4VYsgbnRSsSD9ncOxmLrTcR1vdItWZgqWwkxERWD4+bGcT2ibC60kiT4VaWaeVm+G6J9WlEYTy+JGF8oT25bMB7aPVtbP/AlLQNlnhbneyjpEAUjDGUSEmCECgILCIFPQvnB7+vQ/LzsGvia6tzHEv5qrp/sy7mos4M6uslHt+m529njOujMGvy5sfvcMRqDV9L+Qc6U2MM1KwOOzZgAAEIACBnhJIXQo28Xmfeh1RSUEzK82fjTd68Lgz8koJmOUrX3uCy5WCG8PiseLR2uv2hGSb04ZKM/t4sq0itM+kTairNo+tuFxrfyuzJ428c2RomVUKbrWcnf445exmUd7uYB0lAaRglMNCUBCAgCXQlBT84q13y0Mf/FMz007XX7z1r+WRk+X3xk1Kr7+Ay/4CXD/TrRthNvqIy+Q4Sga7ZPPjd8nJ//zX5cxEBODSWSAF7VHPGgIQgAAE+koAKTj5eqz+mjOOslFJQT1Q8hlpdqadFV4qpIp9ziO7Zf5MhE0lBY0Uq87qK2cbqrArv4uwPHbHizxtd3RWoEq2kOQcX1fWppsni6mMsYzKPkIdZKPzDSdyyzmYykelYG15NwS2oyKAFIxqOAgGAhDwCcwrBVVwfeuDf5ZLwD8Tfe1eZKkUfH39bjMb7qEPeun6uOh994ncfbvcc/9OGUn3BZnm9x6Tddtqf3uKR4fv32mYhBllolOlYDg9jovS9rkut99IQf/o5zUEIAABCPSNAFJwudcSbVwbdS4FOzgoRgSeisiwcesgulCTo7IulIt9EFACSEHeBxCAQNQE5pWCelH03Zv/2DwurOvQRdKi6aE6U9sHg3guzpGCUZ+KCA4CEIAABBoggBSM57pj3mvWVZSC5vsFK9//F37ctoFDpJEqdLZe1M6ykV5SSVMEkIJNkaQeCEBgKQQWkYLzXuxQLv0L1hTHECm4lFMIlUIAAhCAQEQEkILpX2OtpBSM6BgiFAg0TQAp2DRR6oMABBolgBRM/+IxRUHXRcxIwUZPHVQGAQhAAAIREkAKpn9dhxSM8MAiJAgsQAApuAA8ikIAAssngBRM/+KxC8GWYptIweWfT2gBAhCAAAS6JYAUTP+6DinY7TFE6xBomgBSsGmi1AcBCDRKACmY/sVjioKui5iRgo2eOqgMAhCAAAQiJIAUTP+6DikY4YFFSBBYgABScAF4FIUABJZPACmY/sVjF4ItxTaRgss/n9ACBCAAAQh0SwApmP51HVKw22OI1iHQNAGkYNNEqQ8CEGiUgErB3/+rR+RD977AAoNevwf+5//3SdEL7R27DjR6DFEZBCAAAQhAIBYCKgV/945v9PrzvO/XrEjBWI4m4oBAMwSQgs1wpBYIQGBJBP7ys983okQvQFhgsArvAaTgkk4mVAsBCEAAAp0T6Pt13Qdu2yK//39/t/fXrFsee7nz9xIBQAACzRBACjbDkVogAAEIQAACEIAABCAAAQhAYIUJnDh/RR54hhn/K/wWoOsQSI4AUjC5ISNgCEAAAhCAAAQgAAEIQAACEIiNwMnzV+WBZ5GCsY0L8UAAAvUEkIL1bEiBAAQgAAEIQAACEIAABCAAAQhMReDE+auy5dmDU+UlEwQgAIEYCCAFYxgFYoAABCAAAQhAAAIQgAAEIACBpAkcP3dFtjBTMOkxJHgIrBoBpOCqjTj9hQAEIAABCEAAAhCAAAQgAIHGCRw/d1UefI6Zgo2DpUII/P/t3QecVPW993Fyvdfc5948eW6JSZ4n1cSIWCKoscZesYAlMVGkKDaKCtgN5kaTaBQVFcVQbNiIIkVgF1F6ld53Fxak7QK7O2V3ev0+r/+ZnWV2mGV32TZn5rOv1z8zc86ZU97nDL5e3/z+/z8CbSZAKNhmtOwYAQQQQAABBBBAAAEEEEAgXwQIBfPlTnOdCOSOAKFg7txLrgQBBBBAAAEEEEAAAQQQQKCDBEz3YSoFOwifwyKAwBEJEAoeERtfQgABBBBAAAEEEEAAAQQQQOCgQJXHhILMPnxQhHcIIJDtAoSC2X6HOD8EEEAAAQQQQAABBBBAAIGsF6jyhjWBMQWz/j5xggggcFCAUPCgBe8QQAABBBBAAAEEEEAAAQQQOCKBSk9Y7y1jopEjwuNLCCDQIQKEgh3CzkERQAABBBBAAAEEEEAAAQRySYBQMJfuJteCQH4IEArmx33mKhFAAAEEEEAAAQQQQAABBNpQoLImpAlUCrahMLtGAIHWFiAUbG1R9ocAAggggAACCCCAAAIIIJB3AlQK5t0t54IRsL0AoaDtbyEXgAACCCCAAAIIIIAAAggg0BEC+6tD2lLus9rS0mq9Omdv3Wez3BeKdcRpcUwEEECgSQKEgk1iYiMEEEAAAQQQQAABBBBAAAEE6guY4K/XuM0Z26D3SxSKxut/gU8IIIBAFgkQCmbRzeBUEEAAAQQQQAABBBBAAAEE7CXwx6k7MoaChRsd9roQzhYBBPJOgFAw7245F4wAAggggAACCCCAAAIIINBaAit31hwSClIl2Fq67AcBBNpSgFCwLXXZNwIIIIAAAggggAACCCCAQE4LmA7CT0zeXi8YpEowp285F4dAzggQCubMreRCEEAAAQQQQAABBBBAAAEEOkIgtVqQKsGOuAMcEwEEjkSAUPBI1PgOAggggAACCCCAAAIIIIAAArUCqdWCVAnyWCCAgF0ECAXtcqc4TwQQQAABBBBAAAEEEEAAgawVMNWCVAlm7e3hxBBAIIOALUPBaDSqjRs3asWKFXWtU6dOysaWeo7J99u2bctwK1iEAAIIIIAAAggggAACCOSuwO3PT9Olw97M2XbJsDfV/clJOXt9yXv3zqw1ufuQcmUI5JmALUNBn8+nr776SuY12bIxEDTnlDy/5KvH49HChQvz7DHjchFAAAEEEEAAAQQQQCDfBW57doqufPwj/fblZTSbGphgkFAw33/JXH8uCdg2FDRVd6l/mULBb3/72+rTp4/69++vO+64Q7fffrv69etntb59+ynR+lrbmO169+5ttdt699Ztt92mXqb16mW97927j3r36aPb+vbV//vhD5tclZh6juZ9LBYjFExH4TMCCCCAAAIIIIAAAgjkvIAJBa/6w8f1ZuntNW4zn21kQCiY8z9TLjDPBHI6FPz+97+vd999V6tWrbK6G69fv16mrVu3zmpr163T2rVrtca0NWu0enWirVq9WqtWrdbKVau0evVqzZ+/QBMn/kNffvmlJnzwgfrdcYd+8IMfNCkYTH+eCAXTRfiMAAIIIIAAAggggAAC+SBAKGj/AJRQMB9+qVxjPgnkdCj4ve99T2+++abcbnfGe2pmiKprcSl+SDNrpfLyck2dOlU7d+7UrM8/17sTJliVh2b/mSoUU5elH5hQMF2EzwgggAACCCCAAAIIIJAPAr2fmaqrnpikXmOKaDY1uGzo25pQuCofHleuEYG8EMjpUPC73/2uxo8fL6fTqXg8rnAkkmjhiMJWCysUTmmhxPtgKKxEC1ndfffs2aNp06apsrJKe/fu1cyCAitsHDBgoP7Pf/yHvvGNbzQYDqY/RYSC6SJ8RgABBBBAAAEEEEAAgXwQIBS0fxhKKJgPv1SuMZ8E8joUPBgIRhQKRxRqJBSsqKiQo8qhHTt2qLCwUK+9Plr3DR2qo48+mlAwn341XCsCCCCAAAIIIIAAAgg0W4BQkFCw2Q8NX0AAgTYVyPlQcNy4cXWVgpFoVJHIwXZo5WBtOGgCQquFFYvHZCoFTffh/fv3q6qqSvv27VNxcbG++OIL/WH4cB39zW8SCrbpY8rOEUAAAQQQQAABBBBAwO4ChIKEgnZ/hjl/BHJNIOdDwbFjE6FgSUmJNevv4sWLdbi2aPFiJduChQv19c6vVVZWpg8++EATJ0602kcffWR9fuedd/TY449TKZhrvwquBwEEEEAAAQQQQAABBFpdgFCQULDVHyp2iAACLRLI+VBwzNixVqXg7t27tXbtOmv2YWsGYjMLcaa2Ljk78XprVuK9e8vkcDi1eMkSFRbOUkFBoQoKCvT5559r8pQpeviRRwgFW/QI8mUEEEAAAQQQQAABBBDIBwFCQULBfHjOuUYE7CSQ+6HgmDFyOJ3WPUmdXTgWjysWV0ozn+OKxuo30+U4EAiquqZG1TWe2lYjvz+gLVuK9NDDDxMK2umJ51wRQAABBBBAAAEEEECgQwQIBQkFO+TB46AIINCgQN6Egh6PVxWVlWmtShWVVaqoqGygVchMLnKgorJe23/ggBUKbivdroceIhRs8OliBQIIIIAAAggggAACCCBQK0AoSCjIjwEBBLJLIOdDwb///e9WpeDades0ffp0q+uv6f6b3mYWFChjm1mgmfXaTGs/paWlKt2+Qw8SCmbXE83ZIIAAAggggAACCCCAQFYKEAoSCmblg8lJIZDHAjkfCr7xxhuqcjjk8/vldLrkdLkSr+Z9ymeH02WFhwdfndZYgmY8wap6zaHKKofVpXjrtlINe/Ahug/n8Q+IS0cAAQQQQAABBBBAAIGmCdg5FOwzy2NdZPTrveo1JnO4l75N73ElKqhs2OZw+2roGB29/LKhb2tC4aqGL4o1CCBgK4GcDwVHj35DVVUO66bEYnGltoPjB8YUjSWbGVMwpmg00SLRmMJWiyocjSoSiSociSouaevWbRr24IOEgrZ65DlZBBBAAAEEEEAAAQQQ6AgBO4eCL+yQVu9wSZGAXnprfcZg8HDbJAPCXZtKMn63o8O+ph6fULAjfjkcE4G2E8jpUPCYY74rKxR0OLRjx9dasWKlVq1aVa+tTPtcb/3KVTLr67WVq/TVVyu0b99+bSst1dAHhxEKtt3zyZ4RQAABBBBAAAEEEEAgRwTsGgr2+9ChA7EajRy31ar8WzFn4yHBXmPbEArmyEPMZSCQYwI5Hgoeo9dHj7a6D5sAb8nSpVq2fHmiLVuuZaYlPydfk8sPeV2mZcsSbcmSpSorK9e2baUaMoxQMMd+E1wOAggggAACCCCAAAIItIGAXUPBh9eGlezqm/o+tboudXnq++Q2hIJt8ECxSwQQaLFAzoeCr73+uqqqqhSLSxGr+29Mpkuw6QZc18zy2q7Bye7BpovwwRZROBxRqLYFwxHF41JJyVYNGUoo2OKnkB0ggAACCCCAAAIIIIBAzgvYMRRMhnnJ6kBTEVgeD+izjzfVVQs2Zxu6D+f8Y84FImArgdwPBV97zQoF/YGA3O7qRKuukbuuVctdXdtq17vc1arf3HK5Es3pcsu0UCicCAWHDKX7sK0eeU4WAQQQQAABBBBAAAEEOkLAjqFgsltwchzBZACYGu41ZZtM30tWEdrplTEFO+KXwzERaDuBnA8FR1mhoEPr1q3TjBkzVFBQ0OJm9lNaul3btm3TA4SCbfd0smcEEEAAAQQQQAABBBDIGQE7hoKmK3Cmv0hNpYaN22JVCzZlG0LBTIosQwCBjhbI/VBwVKJS0OV2q6y8XOX79qm8vH4rK9+nQ1u5NW6gGTtwb3rbWyaP16vikhLdP2QIlYId/RRzfAQQQAABBBBAAAEEEMh6AduFguN3anVcSnYdTlb01etC3JRtxhSJUDDrH09OEIG8FMj5UPDVUaNUWVlp3dxYLK7UFo3FlbnFFDXjDjbUIlHFJRWVlOi+BwgF8/KXw0UjgAACCCCAAAIIIIBAswTsFgr2meWRIgEluw4nQ8HUgK8p25jvpX4nuR87vtJ9uFmPPBsjkPUCOR8KvvLqq6qsqtLevXu1ceMmbdq0uQnNbJdoGzdtUnrbsGGjFTQWb92q++5/gErBrH/MOUEEEEAAAQQQQAABBBDoaAG7hYIv7FDdrMPpAZ7VZTgSUMG2xrcxoSKhYEc/fRwfAQQyCeR+KPjKK1YouGXLFs2ZO1fz589vuM1LrJs3f74ytnnzNW/ePM2ZM1e7du1SydatGkwomOm5YhkCCCCAAAIIIIAAAgggUE/AbqFgehBoPk+96m4VdTnNem2L9Zn2mU3LqBSs90jzAQHbC+R0KPidY47Ry6+8oorKSkWiUQWCoQZaUIFgUIFAovkDQWVs/oB8tS0ai6mouFiD77ufSkHb/wy4AAQQQAABBBBAAAEEEGhrAbuHgmN6PaV/9LjHmlzEvJrPqYFdS9en7itb3xMKtvWvhP0j0L4CuR0KfucYjXw5EQqGwmF5fX55fb76zeuT1+uTp7Hm8aompYUjkUQoOPg+QsH2fWY5GgIIIIAAAggggAACCNhQwG6hYEtDvsa+n63B3+HOi1DQhj88ThmBwwjkeCj4HY0c+bJVKbhhwwYVzpql2bNnH3H7fPZsmVZYOEs7duxQcclWDRo8mFDwMA8YqxBAAAEEEEAAAQQQQAABI2C3UNCEY/neXTg9ICQU5LeMQG4J5Hwo+NLIkaqoqNSBAxXaVlqq0u3bm9ZKt6u0dLu2ZWhbt5XK5XZblYIDCQVz6xfB1SCAAAIIIIAAAggggECbCNgxFEwPxfL9M6Fgm/w02CkCHSaQF6HggYoKxeJSJBpreotEFT5Mi0vaXFSkAYOoFOywp5cDI4AAAggggAACCCCAgG0ECAWL6o1BaMeAkVDQNj83ThSBJgnkfCj44ksvNa9SMENlYHq1YLJScEtxsQYMHET34SY9amyEAAIIIIAAAggggAAC+SxAKEgomM/PP9eOQDYK5Hwo+MKLiVDQGlOwsLBuPMHk+IBH8pocU7CouET3DhxIKJiNTzbnhAACCCCAAAIIIIAAAlklQChIKJhVDyQngwACyvlQcMQLL+rAgQMKhkLyeLx1LXUm4SN5b7oWb96yRfcOIBTkd4QAAggggAACCCCAAAIINCZAKEgo2NgzwnoEEGhfgTwIBV/Q/gMHFA5H5PMH5PcHrFfzviUtGotZoeA9hILt+8RyNAQQQAABBBBAAAEEELClwD0vfKbuj7yvPs9Oo9nUgDEFbfnT46QRaFAgL0LBiqoqC8AEea3VzA6Liot1z70D9C9HH61OnTplbOnysVhMCxcuTF/MZwQQQAABBBBAAAEEEEAgpwVen7xMw0bNzNl2/6jPdefo5Tl7fcl7N+urrTn9nHJxCOSTQE6Hgsccc4zMmIJfzpmjxUuWaOHixVq4aJEWmLbQtIWav8C0BZpn2vwFmmvavPlWmzNvnkz7cq5pc/XFHNPm6Isv51jLPvn0Uw0cfB9jCubTL4ZrRQABBBBAAAEEEEAAAQQyCLg8Qb23uDzDGhYhgAAC2SmQ06Hgt771Ld1w40367W9v1k03/UY33nST1cyyG268UTfccKOuv+EGq/W8/gb1uP569ehpWk/16NFT1/XooWtNu66HrrnuOl1z7XW65pprdXVtM+suvOhiHXXUURmrBE31YPoflYLpInxGAAEEEEAAAQQQQAABBOwvQCho/3vIFSCQbwI5HQo21KW3PZenP1CEgukifEYAAQQQQAABBBBAAAEE7C9gQsH3l+yz/4VwBQggkDcChIINjAXYWsFh+pNEKJguwmcEEEAAAQQQQAABBBBAwP4Cbm+IUND+t5ErQCCvBHImFGzKXTv33LMVDofrtR+PWK2dDp+Oe2mNzHvTzPuvq3zWe7P9ia+sq1tn1ptlV72zpd4ys7wpf4SCTVFiGwQQQAABBBBAAAEEEEDAXgJ0H7bX/eJsEUBAIhQcsVozi6vU+5OtdSHfbR9vVUGxg1CQXwgCCCCAAAIIIIAAAggggECTBAgFm8TERgggkEUChIIjVuvmiSUqPuBR93e3WBWA5v3vJ5YQCmbRg8qpIIAAAggggAACCCCAAALZLGC6DzP7cDbfIc4NAQTSBQgFa7sMDyvYoX1uv/ZX+/XkF7vqqgYzdTdOX2Y+0304/dHiMwIIIIAAAggggAACCCCQPwLVvrAmLCrLnwvmShFAwPYChIK1oaAJ9VramvI0z08ZwQAAIABJREFUMKZgU5TYBgEEEEAAAQQQQAABBBCwl4CpFCQUtNc942wRyHeBvA8FM1X9NWWZmbTkSP4IBY9Eje8ggAACCCCAAAIIIIAAAtktQCiY3feHs0MAgUMF8igUnKKfduqk/+p8tkyg19I2YMA9h2o2YQmhYBOQ2AQBBBBAAAEEEEAAAQQQsJkA3YdtdsM4XQQQyK/Zh9Pvd9GjndWp55T0xXWfG1tft2Htm6ZsTyiYrsZnBBBAAAEEEEAAAQQQQMD+AoSC9r+HXAEC+SaQR5WCh97axkK8xtan77Ep2xMKpqvxGQEEEEAAAQQQQAABBBCwv4AJBd9cuN/+F8IVIIBA3gjkWChYpEc7d1KnTonWc8oU9ezUWY8WmfuZWJcsDJzS8+B2Zvvk8uSdz7TeCv06Pyprd2bDKT3VqXb/mbZP7iv1lVAwVYP3CCCAAAIIIIAAAggggEBuCBAK5sZ95CoQyCeBHAoFE6Ff50QCaN3DRFCXORQ0GzRW2Zdpvdln4hj1Q8am7M9sQyho3Rr+BwEEEEAAAQQQQAABBBCwvUDpfp+mrDpgtQ+XHdDwyTvrPpvlzpqA7a+RC0AAgdwVyJ1QsOhRde7UU/VHCGy4UtDc0kyhX+qtzri+9jiPZhiPMOP2qTskFEzT4CMCCCCAAAIIIIAAAgggYF8BUx14x/gt6jWm6JA29KPtisXi9r04zhwBBHJeIHdCQdOVN7Vrr3Xr2iAUTIaJhwSQjYeM5pSoFMz53xQXiAACCCCAAAIIIIAAAnkk8P6SfYcEgiYkXFTsyCMFLhUBBOwokFuhYHpQZ1X1tW73YckEjT3Vs64b8cHbTqXgQQveIYAAAggggAACCCCAAAL5IJCpWpAqwXy481wjAvYXyJ1Q0ArrkuP9JW5Ms8cUrBciZqr8Sx1HMLUKMXE8QkH7/yC4AgQQQAABBBBAAAEEEECguQJm1uHULsRUCTZXkO0RQKAjBHIoFLT69apz7czDiRmFU4O71EAvSW3WJ2cqTn4/WVlotqm/3goZU7sop8w+nNhj/e2TR0l9pftwqgbvEUAAAQQQQAABBBBAAAH7C+x3h9Rv7CYrGKRK0P73kytAIF8EcisUTL9rGScfSd+ofT8TCravN0dDAAEEEEAAAQQQQAABBNpDYOy8MisUpEqwPbQ5BgIItIZADoeCicrATj3rz0fcGmgt2QehYEv0+C4CCCCAAAIIIIAAAgjYVaB0r0Mbt+3N2bZgwx7d916J1mzdl7PXaO7fAUeNXR9BzhsBBNIEcigUrA0BU7oPZ1sgaOwJBdOeQD4igAACCCCAAAIIIIBAXgj0fmaqLhv6dk63qx5+L6evz9y/CYWr8uJ55SIRyAeBHAoF7XG7CAXtcZ84SwQQQAABBBBAAAEEEGhdARMKXvPYh/rtyK9oNjUgFGzd3wR7Q6CjBQgF2/kOEAq2MziHQwABBBBAAAEEEEAAgawQMKHgVU9MqjdLb+qMvbwvynobQsGs+ClxEgi0mgChYKtRNm1HhIJNc2IrBBBAAAEEEEAAAQQQyC0BQsHsD/0aC2YJBXPrN8nVIJAboWBcUjQqBUOKh0KJ91l6b1saCsZjcUXCEavForEsvUpOCwEEEEAAAQQQQAABBBCoL0AoSChY/4ngEwIIdLSA7UPBeDCoWFm5wvMXKvjJZIWmzVB4xSrFq6qkuEkLs+vvSEPBaCSqQI1LsZWr5Jk6Tf4pk+RfvEShvbtkwsF4Fl5rdslzNggggAACCCCAAAIIINCRAoSChIId+fxxbAQQOFTA3qFgJKLI5iL5//q8XBdeIefJZ8jZ9WxV33SL/KPHKu52Z13V4JGEgqY6MFy2W953J8h53Y1ydT1X7lNOl/uSa+Qe/qRi20oVDoUPvbssQQABBBBAAAEEEEAAAQSyRIBQkFAwSx5FTgMBBGoFbBsKLl++XOWl27Vn+kxtH/SAtve5Q6W33Z5o/e7Sjsf+oLLlX2nfrl3at29f1rTy8nItXLiwWQ+g6S7sW7RYrh43yfmTE+T64bFWq/rR8XKdc64877yrWJWjWftkYwQQQAABBBBAAAEEEECgPQUIBQkF2/N541gIINC4gC1DQdNVdvfu3Spat16bZxZo/bPPa/1Tf9b6P9W2p/+qDS+P0pZFi1W0cZOKi4uzqlVUVDR+Z1K2MFWA/vlzVH3ptXL8uHNdKGiFg13Plff1sYpUVKZ8g7cIIIAAAggggAACCCCAQHYJEAoSCmbXE8nZIIBA1oeCZuKQ2P4Diq7fqPCs2Qq895ECH36s0BdzFVm3QeG58+V98DE5u54l57Fd5Pj5SXJferV8Tz+r6MbNiixbodD0mQp8+A9rzMHwwsWKbt8h1dRkXddi8ziGgiEFPW6FfTUy3YbNn3mNbt0m71+es7oOm2DQ/aOfJboQ971TgfVrFAv66p5mM/5gyFttdSlO7qNuJW8QQAABBBBAAAEEEEAAgQ4QIBQkFOyAx45DIoDAYQSyMxSMxazxACPLV8j34iuquXOA3N2vl+vci+U67Vy5zjhPrvMukfu6m+S5a6C8w/8k/4iR8r/4ivzPvSTvH/8sz33DVH1rP7kvv0ausy+U6/Rz5frVr+W64HJrzEHvo8MV/MckRUu3d0w4GJcV/gW3FClcOEvhAxXWRCLBmQXyDHtMrj8MV3DpMivcM/fPVAuaSUXMJCO+V15VzUsjFXj/AwU3rE3MRByLyYSB4eIS+d8Yr5r77pf/o0kK7tuvaGWV/OtWW12Q4w6nNTHJYZ4JViGAAAIIIIAAAggggAACrS5AKEgo2OoPFTtEAIEWCWRdKBgPBBVZs06+v/zNCvCcJ54m50mnW8Ge+5obVN3rdlXf8Du5L+luTSriOP6Xcp5yhqqvvVG+p5+RZ9BQuS+4XM4TTpWj86mJ73Xvqerf9rKa+9Lucp56ppwndLXCxepb+yo44QPFKyoVj0SbjBmORFW0o1xzV2xRMBRu9uy/ZgzAwMRPVX39b+U6/xIFZs1VqKhYnpEvWxWArhO6yN3zN4nA0FdjnZeZZdgEfGa7yOYNVkhogsDknwkIPf/zJ1X/8gw5ju+s6sH3KbRxnQJLllrv3RdcKv8zIxTctrOuCjH5XV4RQAABBBBAAAEEEEAAgbYUIBQkFGzL54t9I4BA8wWyKxQMhxUqmKWafnfLhH2OX5yiml63K/DuB1ZX4FhFheI1NYpXORTfW6bw7C/lGfaItZ3jJ52trsOOY7vI+bMT5T7/MgXeeleRjZsV318hudyKu9yK7S1TZNES+f70F7ku7S7HcSfJ1e1s+Z4dodi2plcN+gMhzViwVs+M/0zVHr9itV19m3oLTFjnf/gP1sQhVV1OlX/KJIU3rZdnxN9kAkEzXqDpJuwd/rgV7JlKQdOFuGboo9bYgs5fXyxv/3tlKgtNMBjxe+R/dZTM8rrv9r/X6locWDBX1bf1tvZnZiw2n5mtuKl3iu0QQAABBBBAAAEEEECgNQQIBQkFW+M5Yh8IINB6AlkVCoYXLFZNv7vk6PxLuX59mfx/H694+b7M3XtDIYULZ6umd//EWII/Pl4mEDThoNO0rmdZlYOxXbszfz8YVGjeAtXcM1iOn3WR44Su8r/8mqI7djZJ14SC0+ev1dNjphxRKGjGATTdhM0MwslQ0ASF3heeqwsFrYlEbu2VqCLcu0vVL75Uf90JXVT9m97y79oh387t8j30hLWvw4WCJjQMFRQqGvAecp2BQFCbS3ZowvTFenvKAk2atUSlO8vk9fq0fVd53fK3psxXQ+3tqQs0bc4KOZ0uRVKqGM3BzAQxUVPtWNtMkGqaWd7Yn9kmHI5q3oot+mDmUr05eYE+mb1Cpbv3KxSO1Pu62aerxqfZSzfqnWmL9PbUhZo8Z6UOOKoViSYqK01159dlFXp/xhJr/cTC5VpXvEuRSKzevviAAAIIIIAAAggggAACrSNgt1DwhR2HXveKORvVa0wi3Gtsvdku0zaRmkoNG7elbj/J/dnh9bKhb2tC4apDYViCAAK2FMiOUNCMIVhdLe8jf7C69Jquwf5Ro6Vg0CRJGWEjGzZZE4w4TjhVrrMukG/ESIWmzVDgnfdVc9cgOY4/Rc6Tz1Dw06mKVVVl3IfCYaursqf/ADl/cbJM9+TgpClSKJR5+5SlB0PBqa0aCqZWCppwz3nLrfIXzpEZe9A9aLBcP01UEVqBoXnf/WqrwtB0KfYNGWp1G24sFDRjGGYKBcsOOPXcW9P1rXPu0T+d2ls/7f6gFf59vWe/3pu+RP913l06qmsfa51Zn6kdffrt+uVNj2vF+m3y+wOWmAnpfD6/1pfs1osTCnXvU2P1u4deUb8nx+qvY6do5cZS1dR4DhsOmn24a3z6/SOv678vGKhOp/bRz695yDovt8efcmdkBX+bS/eq+8AX9K9n9te/nH67TrzhMS1Zu1UeX+KcHG6PPv1ypf7z/AE6qls//eiKIXp6zFR5/cF6++IDAggggAACCCCAAAIItI6AHUPB6Nd768K7PrM8FkQyGDSBX/r6WCymzz7eVPed9G16jytRQaWUvp0dAkFzjoSCrfNbYC8IZItAVoSC8WBQ0U2bVX3D760gz0wSEikuOayRCQDNOIEm+DMhoJmhWKYKzOtTaPI0ayISx4+Pl3/kKEV3fN3gvmIut8KffyHXORfJcdJptdWFexrcPrniYCjYtpWCqaGg5+4HMoaCpsLQhILeB4a0KBQsr3BlDAV37j2gDwqW6f9eMtgKDP/1V/31L6f1qwsFTVD4zTPu0P868059+7wB+tWtf9KqTdtlKg9Nhd++Src+/XypTvvdk/q3s+6q+54JFU2I2O3m4Xpz8jyZULKhP1Nd2JJQsMv1hw8Ff3zlUELBhvBZjgACCCCAAAIIIIBAKwjYPRRMBnrJILChwG/XppIGQ0ETrKXvxy6BIKFgK/wI2AUCWSaQHaGgCfJmfSHXxVfKdeb58v/tBcVrEv8vTENewY8+UXWP38jV7RyrG64ZL9CqKjTdgmfMkvvCK+T40S/ke+FlRbdnqPtO7jgYUrSoRNXX3SRn51/KM+B+hVc2Xg7d3qFgYPMWNRQKmrEI2zIUNGGhqeYb+vx7Gvjn8br10dd06m+esAI9EwiaYO+i2/+s3k+8oUF/eVN//vun2lVWoXA4YgWD0+et0iX9/2qFgWZ7Exx+/+JBOuaCe+sqD833JxUuUSgUTt6Zeq+tHQo6q731KgUJBetx8wEBBBBAAAEEEEAAgVYXyJVQMBn6pYeCvcbv1Oq4lFxvQrRDtqntemxVHUYCeumt9XUBoh3CQSoFW/1nwQ4R6FCB7AgFPR6Fpk6X+4LLrIo9/4uvKO7zHRamLhTsepY89z2ouMNparCtLsehGYVNDgXj4bDMuIPVN98mZ5eu8twzWOFlXx322GblwVCwdboP+yZ/Yk0ocrjuww2FgslKwZZ2H26oUtDj8VrjAJrKP9O27thjBYT/fvbdVqj3v8+9V6M/mmUFgWZ9MBiqm3jFVAmOeGemvnN+okuyqSa85ZFRVrfhwX99q65LsgkJnxr9iRzmPmb4yxQKHnftw63WfZhQMAM6ixBAAAEEEEAAAQQQaEUBu4eCJshL7fabHvg9vDYspQV96dskg79+HzpUHg/U62qcXJfNr4SCrfiDYFcIZIFAVoSC8vsVWbJM7qt6yHX6ufL+8c8yMw0f7q9+KDgsLRQ8WCnob6RS0ISP0TXr5LryOjlO7GaNaxjdUny4Q1vrDoaCrdN9OBkKpk800pzuw00NBRuaaORwoWAqiKkCfOjFD5UaCo6bNCdjoOeocuqlCbP0vYsGWpWC/3nunXpm3FQtW1us1z8stKoF/7lbX2tMv2fHT5PLVHxm+EuGgrc8OrrJYwpePejFujEFG+4+fC9jCmbwZhECCCCAAAIIIIAAAq0tYMdQMNUgNRA0wZ0J/FL/Mk0gQiiYKsR7BBDINoHsCAUjEcX2lslz50C5Tj3LqtoLFc6WorEGJxpplVAwGlXs650ylYnOU8+U6/zLFBj7luLu6kbvE6Fg00JBUzU4Y/5qXXzHX6xQ0IxFeMU9z6nv8DG6sN/TMoGgWdZzyKsqXLTukBmLkzciUyj4vUsGa9Az7+qtqQs0cdbyuvZhwTK98G6But38pDXJiJlohFAwKckrAggggAACCCCAAAIdI2DHUDA5fmCm6r16gV9t1+H07ettU9t12OyL7sMd8wxyVAQQqC+QHaGgmWE4HFbgrQlyd7/eCuiq+92tyLIVinszdyNOhoLOE7up+vd9FFm5WnGPR9E9exUY86acZ/z68GMKxmKKmkBwzHhrUhLncSfLO+RhRZavSHRDru90yKeDoWB+dB9OBUivFDRjBDZUKWi+t7u8UiPf/7yuKtBMNmKqDM3kJKZd0PcpayKThroOm30kQ8HU2YdN2Pfdiwfr2KsftGYiNrMRm/azax60Kg//7aw79Y2ufZo0+zDdh1PvMO8RQAABBBBAAAEEEGh9gZwOBWuDvkzVhOlBYbLKMNPyTOFjNi2j+3Dr/y7YIwIdKZAdoWCtgAn0/C+9KvfFV1ldeWt+31vhOfNkTSKSphT8ZLKqb/idHD/pLOcpZgbigQrNmSv/62OsbsiOY7vI8cPj5HvxlUNnH45L0eKtVoWgNSHJcSer5vd9FP5irlTdeJWgOZWDoeCRdR824wD6HnpCjh93VlWXU+WfMskaU7Ch7sOtMdGI8ycnqPrCyxSaPV+hYChNVDrS7sONhYJmTMLZSzfqlBsfk5m52Mw6bNp///puXX7336wKQdNtOBaLH3JOyQWZQsFOp/ZRU1qmSkEmGknK8ooAAggggAACCCCAQPsI5HoomJxVuLGJRqxux2ljD2ZT8He4cyEUbJ/fCkdBoL0EsioUjMdi1qQfgXFvyX3p1XIe20Xua29U8P2PFC/fV88kWlwiM16g+6Ir5PjpCXKdc6H8Y9+U5/4H5ex8qhwnnJrohjx7juJO18HvxuKKbi6S57En5TzrAjlPPkPVt/RVeNESxU0gaKoWm/DX0lAwUlEp77sTVHPR5XKe1E2+z6YrsnmDGgoFg1uKGpx9ODnRiPeBIXIc31muHx5rhY3e/vcqsH6NggvnydWnvxU+uh94WP5NmxWNRA+5ypaEguM/nZtxTEG/P2AFgrc9PrpuDMJkKGgmH7nu/pe1vmS3NTnJISeUsiBTKPjvZ9+l0373pLoPHKEe94+sa9fd/5IuvvNZffeiQfqnrn2tSsGGuw8PsMYUpFIwBZu3CCCAAAIIIIAAAgi0gUCuh4ImTEufbMQKANMs7VghmAwKCQXTbiYfEbC5QFaFgpZlLKZ4RaWCn82Q+8oech7/S2smYf/IV61xB+u8o1GZYND37Ag5jjtZrrMuUGD0WHkGPmDNIuy+pLsiS5bXC/riXq/VPbimz51WdaHrzPPlffgJRYuKpVCoyYGgOYeDoeCRdR+Om3CyskrRFSvl/2iSwmW7Fdj9tY5k9uHwpvUKFRWroYlGgvv2W8GgmczEHCccCtcxpr4pO+DUc29N17fOScwU/NPuD+qtKfNlKv1S/5rafdiUzptxAm9+8GWZWYdNGGjGDzTVgkeffnvdzMV3/HG8Vm4stYJB04V4ydpt2rPfoWA4UndYU0XorvEptfuw6TY85pO52lVeJVeNr65Vumq0fEOpLr/nOX3zV3c0qfvwj64YoqfHTJXXH6w7Jm8QQAABBBBAAAEEEECg9QTsFgomg7Dk69Sr7lZRl9NkXpPLUl9buj51X9n6nlCw9X4P7AmBbBDIvlAwqeIPKLJuvapv7Sdnl26JWYkfetyqJIxHEmGRNUnIyFFyHH9K/VDwxG5yX3GtIus3KO73W3uMOxwKTpshl+ma/LMT5fr1pfKPHHVIBWLy8I29HgwFj6z7cOr+47XViZHyPS2qFGwoFDTHMsdIHif12KnvWzsU3LF7nwb+ebzVTfiorn2s8QN7P/GGnn97hsyrGVvQBIUmILzlkVH625uf6f5n39EPrxii3zz0qpatL1UwlLjXmSoFj7v2Yb03fYncnsQ9Tl5LJBrV5tK9as7sw1QKJvV4RQABBBBAAAEEEECgbQTsHAqO6fWU/tHjHisMNK/mc2pw19L1qfvK5veEgm3z22CvCHSUQPaGgrVBVmTTFnkfHS7n6efJedJpqul1uyLLvrIqABsNBddtkKkOjO7cpcAb46zZhU1XY/cV1yk48RPFKiqP2N2Egp/NX6Onx7Q8FEyeRPhAhTwjX7a6E5suwKY5b7lV/sI5akr34fRQsHrIIzJVhE39a0n34UwTjXy+ZIM107AJ/szEIpfe+YzWFe9SIBDU0jVF6vfkWCsYNIGhCQaTFYTf6NrXqiwc/MwErdq8wzr9ZCh4y6Oj9d8XDLTGEjSTirw3o+FQsPvAF/SvZ/ZvpPvwvVb34USl4BQqBZv6sLAdAggggAACCCCAAALNFLBTKFhwxW367Ip+VvA3/crbZT6nhnUtXZ+6Lzu9JxRs5kPP5ghkuUBWh4JJO2uW4FFvyGXGD/z5SXJfd5OC/5ik8NLl1riCDVYKrlqj8PIV8g5/Sq5zLpLz5NNV/ZtbrQlF6o0zmDxQM17bIhSMhCMKF86ygkAzAYkVDN7ay1p2uIlGkmMKmlDQ2fkEazxB9ymnyzfhPYX2H2jyVbV2KGi6Dl9217NWNaAZP7DXY69r47a98np91viDMxes0SX9/1pv8pFEgHiXVeU3c9E6mQlBzF8yFEztPtySUNDsd9IXK/Sf5yfGFCQUbPJjwoYIIIAAAggggAACCByRgJ1CQRPUvXbHX1R87OnWa6bgrqXrM+0z25cRCh7Ro8+XEMhaAVuEgmbyj9i+fVYQaCYescYZvLS7PA88JM99w+T4xaFjCrrOu1j+N8Zak4g4u50t19kXyjvsUUU2bpaCLR83zoSCBYvW6W9vTVe1x3/YmXObc/fNOIPeaZ+p+vrfyt3tPLkGDpJ34aK6SkH3sScmwkJTSfjTLnJ1v9qqBjTjEXr/9JQc510k9yXXqObpZ60xCmPRWJMPf6Sh4P8+915lqhRcuGKjrr1vpDWOoBlL8PsXDdKAp8dZ3YQfe+VjXXnv89YyUylowkDTzPvvXDRIw1+bpC07yhSqnRCltUNBh9ujT79cWRcKJroPUynY5IeFDRFAAAEEEEAAAQQQaKaA3ULBbA/oOuL8CAWb+dCzOQJZLmCPULAWMeZyKfTlPNX0u1vOrmfJeeJpcp7yq8QYgWeef3Cikc6/tCYfcZ5+rhy/OEXuy66W7/mXFC3Z2mq3IxxJjFs3e+lGBYLhRsfra86Bw74aa9Zg31vjFPx8nqyJQhqZfTjoccu/eIk877xrhYqxKoeaEwia82vtUNDs7y9jJuvEng/rn7v1tUI/82q6CpuQMBkCmlDx2Ksf0g8vf8DqNnxUt376weUP6MnRn2pN0U4FQ+GMlYLWmIKH6T7c2JiCqZWCjCnYnCeUbRFAAAEEEEAAAQQQaL4AoWBRvS7IHRHqtfSYhILNf+75BgLZLGCrUNBUDCocVmT1Wnmf+B+5zrtEjh8fL8dPOsvMJJycfdhUDjp+9AuZ8QOrr79ZgXfeU3Tn7mbNLtyUm2ZmxI3UVrI1ZfvmbmNCPTNLsZkgxMwuXHPf/YnqwNrxBpOVgpHNGxQL+qwQMPmd5h7LbO9yufXp50t13f0vW2MB3vb4aM1avF5+f6De7qqqHFZloKkCNNV+Nw15UQUL16qmxlNvO+NTsn23XvugQFcNGKGfX/uIvn/xIKuZEK7bzcOtSsJHRk60xgY0293+x3G6/J7nrdZn+Bh9ULBU+yrdViWmzx/SM+M/003DXk2s/8MYfbFs0yHjAJqqQjMj8ROvfqyrB70gM7Zg/z+NtyYfMQGu+avxBrRoTYluGPqKrhwwQr0ef0Pvz1hiBbz1LoIPCCCAAAIIIIAAAggg0CoChIKEgq3yILETBBBoNQF7hYLJy47FFN26Tf6XR8l9+TVymtmEz7lIgXFvy/vAQ3Ke0FWOE09TTd87FS6cnZhQpHaG3+Qu7PYaLtst/6ujZMYKrPrR8YlJSE7qpup+dym0d5eirRBOmoDT6XSpuHSX1pfs1tYde+R2V1tVeqleZjsT1BVt26kNW/dY25vtMgWksVhM1dXVWle80wocx378hd74aJYmfLbIChyLS3da6yORiLxer3aVHbCObY5v2s6yStV4E7MLm5DRhH1mZmGzrmhHmTXmoAkBU/9MiGpmLf66rFIbtu62WvHX5fIFQnXdvKPmvLx+bSrdY13Dlu1lOuCorlufuj/eI4AAAggggAACCCCAQMsFCAUJBVv+FLEHBBBoTQF7hoJGwASDu3YrOGmKPA8+Jt8zIxT+aqWCn0y2qgh9f31OkTVrJa+31SsEW/MGNHlfgYCiRSXyPfO8avr0V/Xve8v72JMKFcxS3IyRmOWhpwnqTBBnul2HwpFDgsYmO7AhAggggAACCCCAAAII2FKAUJBQ0JYPLieNQA4L2DcUNDclFlPc61OsrEyxAwcUDwQUr65WrHyfYmbW3Wg068OyZj1b0ajiFZWKbitVtHironv2Ku5PVNE1az9sjAACCCCAAAIIIIAAAgi0s8ADL3+mHo++qwEvzaDZ1IAxBdv5R8PhEGhjAXuHgm2Mw+4RQAABBBBAAAEEEEAAAQRaR2DWV1s1oXAVzeYGG7ftbZ0Hgr0ggECHCxAKdvgt4AQQQAABBBBAAAEEEEAAAQQQQAABBBBoXwFCwfb15mgIIIAAAggggAACCCCAAAIIIIAAAgh0uAChYIffAk4AAQQQQAABBBBAAAEEEEAAAQQQQACB9hUgFGxfb46GAAIIIIAAAggggAACCCCAAAIIIIBAhwsQCnb4LeAEEEAAAQQQQAABBBBAAAEEEEAAAQQQaF8BQsH29eZoCCCAAAIIIIAAAggggAAoo2wiAAABg0lEQVQCCCCAAAIIdLgAoWCH3wJOAAEEEEAAAQQQQAABBBBAAAEEEEAAgfYVIBRsX2+OhgACCCCAAAIIIIAAAggggAACCCCAQIcLEAp2+C3gBBBAAAEEEEAAAQQQQAABBBBAAAEEEGhfAULB9vXmaAgggAACCCCAAAIIIIAAAggggAACCHS4AKFgh98CTgABBBBAAAEEEEAAAQQQQAABBBBAAIH2FSAUbF9vjoYAAggggAACCCCAAAIIIIAAAggggECHCxAKdvgt4AQQQAABBBBAAAEEEEAAAQQQQAABBBBoXwFCwfb15mgIIIAAAggggAACCCCAAAIIIIAAAgh0uAChYIffAk4AAQQQQAABBBBAAAEEEEAAAQQQQACB9hVIhoJTpkzSpk0b1emxxx7W5MnTZFbQMOAZ4BnIt2dg4sRP+LePf/95BngG8vIZ4N8//pufb//Nz6brHf36G6J1nME/Jn6Mfwc+g9n0W+Rc+G9hvj0Dkz6dKpMDTps2VZs3b9L/B0zY3rmfhkcXAAAAAElFTkSuQmCC;" vertex="1" parent="WIyWlLk6GJQsqaUBKTNV-1">
          <mxGeometry x="-530" y="70" width="1285" height="723" as="geometry" />
        </mxCell>
        <mxCell id="prbU7gKbNOZ-RbJoMTSF-1" value="1" style="ellipse;whiteSpace=wrap;html=1;aspect=fixed;strokeWidth=3;strokeColor=#CC0000;fontSize=20;fontColor=#FF0000;" vertex="1" parent="WIyWlLk6GJQsqaUBKTNV-1">
          <mxGeometry x="-80" y="120" width="40" height="40" as="geometry" />
        </mxCell>
        <mxCell id="prbU7gKbNOZ-RbJoMTSF-3" value="2" style="ellipse;whiteSpace=wrap;html=1;aspect=fixed;strokeWidth=3;strokeColor=#CC0000;fontSize=20;fontColor=#FF0000;" vertex="1" parent="WIyWlLk6GJQsqaUBKTNV-1">
          <mxGeometry x="180" y="120" width="40" height="40" as="geometry" />
        </mxCell>
        <mxCell id="prbU7gKbNOZ-RbJoMTSF-4" value="3" style="ellipse;whiteSpace=wrap;html=1;aspect=fixed;strokeWidth=3;strokeColor=#CC0000;fontSize=20;fontColor=#FF0000;" vertex="1" parent="WIyWlLk6GJQsqaUBKTNV-1">
          <mxGeometry x="670" y="180" width="40" height="40" as="geometry" />
        </mxCell>
        <mxCell id="prbU7gKbNOZ-RbJoMTSF-5" value="4" style="ellipse;whiteSpace=wrap;html=1;aspect=fixed;strokeWidth=3;strokeColor=#CC0000;fontSize=20;fontColor=#FF0000;" vertex="1" parent="WIyWlLk6GJQsqaUBKTNV-1">
          <mxGeometry x="370" y="370" width="40" height="40" as="geometry" />
        </mxCell>
        <mxCell id="prbU7gKbNOZ-RbJoMTSF-8" value="5" style="ellipse;whiteSpace=wrap;html=1;aspect=fixed;strokeWidth=3;strokeColor=#CC0000;fontSize=20;fontColor=#FF0000;" vertex="1" parent="WIyWlLk6GJQsqaUBKTNV-1">
          <mxGeometry x="-120" y="440" width="40" height="40" as="geometry" />
        </mxCell>
        <mxCell id="prbU7gKbNOZ-RbJoMTSF-9" value="6" style="ellipse;whiteSpace=wrap;html=1;aspect=fixed;strokeWidth=3;strokeColor=#CC0000;fontSize=20;fontColor=#FF0000;direction=south;" vertex="1" parent="WIyWlLk6GJQsqaUBKTNV-1">
          <mxGeometry x="-240" y="360" width="40" height="40" as="geometry" />
        </mxCell>
        <mxCell id="prbU7gKbNOZ-RbJoMTSF-16" value="" style="rounded=0;whiteSpace=wrap;html=1;fontSize=20;fontColor=#FF0000;strokeColor=#CC0000;strokeWidth=3;dashed=1;fillColor=none;" vertex="1" parent="WIyWlLk6GJQsqaUBKTNV-1">
          <mxGeometry x="52.5" y="280" width="637.5" height="60" as="geometry" />
        </mxCell>
        <mxCell id="prbU7gKbNOZ-RbJoMTSF-51" value="" style="endArrow=none;startArrow=classic;html=1;rounded=0;shadow=0;sketch=0;fontSize=20;fontColor=#FF0000;strokeColor=#FF0000;strokeWidth=3;jumpStyle=line;endFill=0;" edge="1" parent="WIyWlLk6GJQsqaUBKTNV-1">
          <mxGeometry width="50" height="50" relative="1" as="geometry">
            <mxPoint x="-120" y="210" as="sourcePoint" />
            <mxPoint x="-70" y="160" as="targetPoint" />
          </mxGeometry>
        </mxCell>
        <mxCell id="prbU7gKbNOZ-RbJoMTSF-52" value="" style="endArrow=none;startArrow=classic;html=1;rounded=0;shadow=0;sketch=0;fontSize=20;fontColor=#FF0000;strokeColor=#FF0000;strokeWidth=3;jumpStyle=line;endFill=0;" edge="1" parent="WIyWlLk6GJQsqaUBKTNV-1">
          <mxGeometry width="50" height="50" relative="1" as="geometry">
            <mxPoint x="150" y="210" as="sourcePoint" />
            <mxPoint x="200" y="160" as="targetPoint" />
          </mxGeometry>
        </mxCell>
        <mxCell id="prbU7gKbNOZ-RbJoMTSF-54" value="" style="endArrow=none;startArrow=classic;html=1;rounded=0;shadow=0;sketch=0;fontSize=20;fontColor=#FF0000;strokeColor=#FF0000;strokeWidth=3;jumpStyle=line;endFill=0;" edge="1" parent="WIyWlLk6GJQsqaUBKTNV-1">
          <mxGeometry width="50" height="50" relative="1" as="geometry">
            <mxPoint x="630" y="270" as="sourcePoint" />
            <mxPoint x="680" y="220" as="targetPoint" />
          </mxGeometry>
        </mxCell>
        <mxCell id="prbU7gKbNOZ-RbJoMTSF-59" value="" style="endArrow=classic;startArrow=classic;html=1;rounded=0;shadow=0;sketch=0;fontSize=20;fontColor=#FF0000;strokeColor=#FF0000;strokeWidth=3;jumpStyle=line;" edge="1" parent="WIyWlLk6GJQsqaUBKTNV-1">
          <mxGeometry width="50" height="50" relative="1" as="geometry">
            <mxPoint x="-210" y="360" as="sourcePoint" />
            <mxPoint x="-160" y="310" as="targetPoint" />
          </mxGeometry>
        </mxCell>
        <mxCell id="prbU7gKbNOZ-RbJoMTSF-62" value="" style="endArrow=classic;startArrow=classic;html=1;rounded=0;shadow=0;sketch=0;fontSize=20;fontColor=#FF0000;strokeColor=#FF0000;strokeWidth=3;jumpStyle=line;" edge="1" parent="WIyWlLk6GJQsqaUBKTNV-1">
          <mxGeometry width="50" height="50" relative="1" as="geometry">
            <mxPoint x="-70" y="455" as="sourcePoint" />
            <mxPoint x="30" y="445" as="targetPoint" />
            <Array as="points">
              <mxPoint x="-50" y="455" />
            </Array>
          </mxGeometry>
        </mxCell>
        <mxCell id="prbU7gKbNOZ-RbJoMTSF-64" value="" style="endArrow=classic;startArrow=classic;html=1;rounded=0;shadow=0;sketch=0;fontSize=20;fontColor=#FF0000;strokeColor=#FF0000;strokeWidth=3;jumpStyle=line;" edge="1" parent="WIyWlLk6GJQsqaUBKTNV-1">
          <mxGeometry width="50" height="50" relative="1" as="geometry">
            <mxPoint x="360" y="379.41" as="sourcePoint" />
            <mxPoint x="240" y="379.41" as="targetPoint" />
            <Array as="points">
              <mxPoint x="290" y="379.41" />
            </Array>
          </mxGeometry>
        </mxCell>
        <mxCell id="prbU7gKbNOZ-RbJoMTSF-69" value="" style="rounded=0;whiteSpace=wrap;html=1;fontSize=20;fontColor=#FF0000;strokeColor=#CC0000;strokeWidth=3;dashed=1;fillColor=none;" vertex="1" parent="WIyWlLk6GJQsqaUBKTNV-1">
          <mxGeometry x="40" y="420" width="637.5" height="60" as="geometry" />
        </mxCell>
      </root>
    </mxGraphModel>
  </diagram>
</mxfile>
